<?xml version="1.0" encoding="utf-8" standalone="no"?>
<!DOCTYPE svg PUBLIC "-//W3C//DTD SVG 1.1//EN"
  "http://www.w3.org/Graphics/SVG/1.1/DTD/svg11.dtd">
<svg xmlns:xlink="http://www.w3.org/1999/xlink" width="460.8pt" height="345.6pt" viewBox="0 0 460.8 345.6" xmlns="http://www.w3.org/2000/svg" version="1.1">
 <metadata>
  <rdf:RDF xmlns:dc="http://purl.org/dc/elements/1.1/" xmlns:cc="http://creativecommons.org/ns#" xmlns:rdf="http://www.w3.org/1999/02/22-rdf-syntax-ns#">
   <cc:Work>
    <dc:type rdf:resource="http://purl.org/dc/dcmitype/StillImage"/>
    <dc:date>2024-11-29T09:38:41.286566</dc:date>
    <dc:format>image/svg+xml</dc:format>
    <dc:creator>
     <cc:Agent>
      <dc:title>Matplotlib v3.8.4, https://matplotlib.org/</dc:title>
     </cc:Agent>
    </dc:creator>
   </cc:Work>
  </rdf:RDF>
 </metadata>
 <defs>
  <style type="text/css">*{stroke-linejoin: round; stroke-linecap: butt}</style>
 </defs>
 <g id="figure_1">
  <g id="patch_1">
   <path d="M 0 345.6 
L 460.8 345.6 
L 460.8 0 
L 0 0 
z
" style="fill: #ffffff"/>
  </g>
  <g id="axes_1">
   <g id="patch_2">
    <path d="M 57.6 307.584 
L 414.72 307.584 
L 414.72 41.472 
L 57.6 41.472 
z
" style="fill: #ffffff"/>
   </g>
   <g id="matplotlib.axis_1">
    <g id="xtick_1">
     <g id="line2d_1">
      <defs>
       <path id="m8986d4fcd6" d="M 0 0 
L 0 3.5 
" style="stroke: #000000; stroke-width: 0.8"/>
      </defs>
      <g>
       <use xlink:href="#m8986d4fcd6" x="73.832727" y="307.584" style="stroke: #000000; stroke-width: 0.8"/>
      </g>
     </g>
     <g id="text_1">
      <!-- 0.0 -->
      <g transform="translate(65.881165 322.182437) scale(0.1 -0.1)">
       <defs>
        <path id="DejaVuSans-30" d="M 2034 4250 
Q 1547 4250 1301 3770 
Q 1056 3291 1056 2328 
Q 1056 1369 1301 889 
Q 1547 409 2034 409 
Q 2525 409 2770 889 
Q 3016 1369 3016 2328 
Q 3016 3291 2770 3770 
Q 2525 4250 2034 4250 
z
M 2034 4750 
Q 2819 4750 3233 4129 
Q 3647 3509 3647 2328 
Q 3647 1150 3233 529 
Q 2819 -91 2034 -91 
Q 1250 -91 836 529 
Q 422 1150 422 2328 
Q 422 3509 836 4129 
Q 1250 4750 2034 4750 
z
" transform="scale(0.015625)"/>
        <path id="DejaVuSans-2e" d="M 684 794 
L 1344 794 
L 1344 0 
L 684 0 
L 684 794 
z
" transform="scale(0.015625)"/>
       </defs>
       <use xlink:href="#DejaVuSans-30"/>
       <use xlink:href="#DejaVuSans-2e" x="63.623047"/>
       <use xlink:href="#DejaVuSans-30" x="95.410156"/>
      </g>
     </g>
    </g>
    <g id="xtick_2">
     <g id="line2d_2">
      <g>
       <use xlink:href="#m8986d4fcd6" x="120.748124" y="307.584" style="stroke: #000000; stroke-width: 0.8"/>
      </g>
     </g>
     <g id="text_2">
      <!-- 2.5 -->
      <g transform="translate(112.796562 322.182437) scale(0.1 -0.1)">
       <defs>
        <path id="DejaVuSans-32" d="M 1228 531 
L 3431 531 
L 3431 0 
L 469 0 
L 469 531 
Q 828 903 1448 1529 
Q 2069 2156 2228 2338 
Q 2531 2678 2651 2914 
Q 2772 3150 2772 3378 
Q 2772 3750 2511 3984 
Q 2250 4219 1831 4219 
Q 1534 4219 1204 4116 
Q 875 4013 500 3803 
L 500 4441 
Q 881 4594 1212 4672 
Q 1544 4750 1819 4750 
Q 2544 4750 2975 4387 
Q 3406 4025 3406 3419 
Q 3406 3131 3298 2873 
Q 3191 2616 2906 2266 
Q 2828 2175 2409 1742 
Q 1991 1309 1228 531 
z
" transform="scale(0.015625)"/>
        <path id="DejaVuSans-35" d="M 691 4666 
L 3169 4666 
L 3169 4134 
L 1269 4134 
L 1269 2991 
Q 1406 3038 1543 3061 
Q 1681 3084 1819 3084 
Q 2600 3084 3056 2656 
Q 3513 2228 3513 1497 
Q 3513 744 3044 326 
Q 2575 -91 1722 -91 
Q 1428 -91 1123 -41 
Q 819 9 494 109 
L 494 744 
Q 775 591 1075 516 
Q 1375 441 1709 441 
Q 2250 441 2565 725 
Q 2881 1009 2881 1497 
Q 2881 1984 2565 2268 
Q 2250 2553 1709 2553 
Q 1456 2553 1204 2497 
Q 953 2441 691 2322 
L 691 4666 
z
" transform="scale(0.015625)"/>
       </defs>
       <use xlink:href="#DejaVuSans-32"/>
       <use xlink:href="#DejaVuSans-2e" x="63.623047"/>
       <use xlink:href="#DejaVuSans-35" x="95.410156"/>
      </g>
     </g>
    </g>
    <g id="xtick_3">
     <g id="line2d_3">
      <g>
       <use xlink:href="#m8986d4fcd6" x="167.663521" y="307.584" style="stroke: #000000; stroke-width: 0.8"/>
      </g>
     </g>
     <g id="text_3">
      <!-- 5.0 -->
      <g transform="translate(159.711958 322.182437) scale(0.1 -0.1)">
       <use xlink:href="#DejaVuSans-35"/>
       <use xlink:href="#DejaVuSans-2e" x="63.623047"/>
       <use xlink:href="#DejaVuSans-30" x="95.410156"/>
      </g>
     </g>
    </g>
    <g id="xtick_4">
     <g id="line2d_4">
      <g>
       <use xlink:href="#m8986d4fcd6" x="214.578917" y="307.584" style="stroke: #000000; stroke-width: 0.8"/>
      </g>
     </g>
     <g id="text_4">
      <!-- 7.5 -->
      <g transform="translate(206.627355 322.182437) scale(0.1 -0.1)">
       <defs>
        <path id="DejaVuSans-37" d="M 525 4666 
L 3525 4666 
L 3525 4397 
L 1831 0 
L 1172 0 
L 2766 4134 
L 525 4134 
L 525 4666 
z
" transform="scale(0.015625)"/>
       </defs>
       <use xlink:href="#DejaVuSans-37"/>
       <use xlink:href="#DejaVuSans-2e" x="63.623047"/>
       <use xlink:href="#DejaVuSans-35" x="95.410156"/>
      </g>
     </g>
    </g>
    <g id="xtick_5">
     <g id="line2d_5">
      <g>
       <use xlink:href="#m8986d4fcd6" x="261.494314" y="307.584" style="stroke: #000000; stroke-width: 0.8"/>
      </g>
     </g>
     <g id="text_5">
      <!-- 10.0 -->
      <g transform="translate(250.361502 322.182437) scale(0.1 -0.1)">
       <defs>
        <path id="DejaVuSans-31" d="M 794 531 
L 1825 531 
L 1825 4091 
L 703 3866 
L 703 4441 
L 1819 4666 
L 2450 4666 
L 2450 531 
L 3481 531 
L 3481 0 
L 794 0 
L 794 531 
z
" transform="scale(0.015625)"/>
       </defs>
       <use xlink:href="#DejaVuSans-31"/>
       <use xlink:href="#DejaVuSans-30" x="63.623047"/>
       <use xlink:href="#DejaVuSans-2e" x="127.246094"/>
       <use xlink:href="#DejaVuSans-30" x="159.033203"/>
      </g>
     </g>
    </g>
    <g id="xtick_6">
     <g id="line2d_6">
      <g>
       <use xlink:href="#m8986d4fcd6" x="308.409711" y="307.584" style="stroke: #000000; stroke-width: 0.8"/>
      </g>
     </g>
     <g id="text_6">
      <!-- 12.5 -->
      <g transform="translate(297.276898 322.182437) scale(0.1 -0.1)">
       <use xlink:href="#DejaVuSans-31"/>
       <use xlink:href="#DejaVuSans-32" x="63.623047"/>
       <use xlink:href="#DejaVuSans-2e" x="127.246094"/>
       <use xlink:href="#DejaVuSans-35" x="159.033203"/>
      </g>
     </g>
    </g>
    <g id="xtick_7">
     <g id="line2d_7">
      <g>
       <use xlink:href="#m8986d4fcd6" x="355.325108" y="307.584" style="stroke: #000000; stroke-width: 0.8"/>
      </g>
     </g>
     <g id="text_7">
      <!-- 15.0 -->
      <g transform="translate(344.192295 322.182437) scale(0.1 -0.1)">
       <use xlink:href="#DejaVuSans-31"/>
       <use xlink:href="#DejaVuSans-35" x="63.623047"/>
       <use xlink:href="#DejaVuSans-2e" x="127.246094"/>
       <use xlink:href="#DejaVuSans-30" x="159.033203"/>
      </g>
     </g>
    </g>
    <g id="xtick_8">
     <g id="line2d_8">
      <g>
       <use xlink:href="#m8986d4fcd6" x="402.240504" y="307.584" style="stroke: #000000; stroke-width: 0.8"/>
      </g>
     </g>
     <g id="text_8">
      <!-- 17.5 -->
      <g transform="translate(391.107692 322.182437) scale(0.1 -0.1)">
       <use xlink:href="#DejaVuSans-31"/>
       <use xlink:href="#DejaVuSans-37" x="63.623047"/>
       <use xlink:href="#DejaVuSans-2e" x="127.246094"/>
       <use xlink:href="#DejaVuSans-35" x="159.033203"/>
      </g>
     </g>
    </g>
    <g id="text_9">
     <!-- Time (s) -->
     <g transform="translate(217.264688 335.762125) scale(0.1 -0.1)">
      <defs>
       <path id="CMUSerif-Roman-54" d="M 230 2893 
L 352 4333 
L 4262 4333 
L 4384 2893 
L 4224 2893 
Q 4198 3181 4176 3347 
Q 4154 3514 4099 3670 
Q 4045 3827 3977 3904 
Q 3910 3981 3782 4041 
Q 3654 4102 3488 4118 
Q 3322 4134 3072 4134 
Q 2778 4134 2707 4122 
Q 2630 4102 2611 4048 
Q 2592 3994 2592 3878 
L 2592 506 
Q 2592 378 2617 326 
Q 2643 275 2790 236 
Q 2938 198 3264 198 
L 3520 198 
L 3520 0 
Q 3258 19 2304 19 
Q 1357 19 1094 0 
L 1094 198 
L 1350 198 
Q 1677 198 1824 236 
Q 1971 275 1996 326 
Q 2022 378 2022 506 
L 2022 3878 
Q 2022 3968 2016 4006 
Q 2010 4045 1981 4077 
Q 1952 4109 1888 4121 
Q 1824 4134 1542 4134 
Q 1293 4134 1126 4118 
Q 960 4102 832 4041 
Q 704 3981 637 3904 
Q 570 3827 515 3670 
Q 461 3514 438 3347 
Q 416 3181 390 2893 
L 230 2893 
z
" transform="scale(0.015625)"/>
       <path id="CMUSerif-Roman-69" d="M 211 0 
L 211 198 
Q 550 198 630 240 
Q 710 282 710 486 
L 710 2208 
Q 710 2445 630 2502 
Q 550 2560 237 2560 
L 237 2758 
L 1133 2829 
L 1133 480 
Q 1133 288 1200 243 
Q 1267 198 1581 198 
L 1581 0 
Q 928 19 915 19 
Q 826 19 211 0 
z
M 480 3942 
Q 480 4070 579 4176 
Q 678 4282 819 4282 
Q 960 4282 1059 4186 
Q 1158 4090 1158 3942 
Q 1158 3795 1059 3699 
Q 960 3603 819 3603 
Q 672 3603 576 3705 
Q 480 3808 480 3942 
z
" transform="scale(0.015625)"/>
       <path id="CMUSerif-Roman-6d" d="M 205 0 
L 205 198 
Q 544 198 624 240 
Q 704 282 704 486 
L 704 2202 
Q 704 2438 621 2499 
Q 538 2560 205 2560 
L 205 2758 
L 1107 2829 
L 1107 2157 
Q 1408 2829 2054 2829 
Q 2803 2829 2906 2202 
Q 3014 2445 3244 2637 
Q 3475 2829 3834 2829 
Q 4314 2829 4506 2592 
Q 4646 2432 4675 2253 
Q 4704 2074 4704 1613 
L 4704 390 
Q 4710 256 4812 227 
Q 4915 198 5203 198 
L 5203 0 
Q 4550 19 4486 19 
Q 4435 19 3763 0 
L 3763 198 
Q 4102 198 4182 240 
Q 4262 282 4262 486 
L 4262 1978 
Q 4262 2304 4163 2496 
Q 4064 2688 3789 2688 
Q 3456 2688 3190 2409 
Q 2925 2131 2925 1664 
L 2925 486 
Q 2925 282 3005 240 
Q 3085 198 3424 198 
L 3424 0 
Q 2771 19 2707 19 
Q 2656 19 1984 0 
L 1984 198 
Q 2323 198 2403 240 
Q 2483 282 2483 486 
L 2483 1978 
Q 2483 2304 2384 2496 
Q 2285 2688 2010 2688 
Q 1677 2688 1411 2409 
Q 1146 2131 1146 1664 
L 1146 486 
Q 1146 282 1226 240 
Q 1306 198 1645 198 
L 1645 0 
Q 992 19 928 19 
Q 877 19 205 0 
z
" transform="scale(0.015625)"/>
       <path id="CMUSerif-Roman-65" d="M 179 1408 
Q 179 2010 566 2438 
Q 954 2867 1510 2867 
Q 2074 2867 2365 2502 
Q 2656 2138 2656 1613 
Q 2656 1517 2630 1497 
Q 2605 1478 2496 1478 
L 710 1478 
Q 710 826 902 518 
Q 1171 90 1626 90 
Q 1690 90 1763 102 
Q 1837 115 1990 169 
Q 2144 224 2278 371 
Q 2413 518 2490 749 
Q 2509 838 2573 838 
Q 2656 838 2656 762 
Q 2656 704 2595 579 
Q 2534 454 2419 304 
Q 2304 154 2080 42 
Q 1856 -70 1587 -70 
Q 1024 -70 601 355 
Q 179 781 179 1408 
z
M 717 1613 
L 2234 1613 
Q 2234 1747 2211 1897 
Q 2189 2048 2121 2256 
Q 2054 2464 1897 2595 
Q 1741 2726 1510 2726 
Q 1408 2726 1296 2681 
Q 1184 2637 1049 2531 
Q 915 2426 822 2186 
Q 730 1946 717 1613 
z
" transform="scale(0.015625)"/>
       <path id="CMUSerif-Roman-20" transform="scale(0.015625)"/>
       <path id="CMUSerif-Roman-28" d="M 634 1600 
Q 634 2682 1037 3552 
Q 1210 3917 1450 4224 
Q 1690 4531 1850 4665 
Q 2010 4800 2054 4800 
Q 2118 4800 2118 4736 
Q 2118 4704 2035 4627 
Q 1005 3578 1005 1600 
Q 1005 -384 2010 -1395 
Q 2118 -1504 2118 -1536 
Q 2118 -1600 2054 -1600 
Q 2010 -1600 1856 -1472 
Q 1702 -1344 1465 -1049 
Q 1229 -755 1056 -397 
Q 634 474 634 1600 
z
" transform="scale(0.015625)"/>
       <path id="CMUSerif-Roman-73" d="M 211 83 
L 211 928 
Q 211 998 214 1024 
Q 218 1050 237 1069 
Q 256 1088 294 1088 
Q 339 1088 355 1069 
Q 371 1050 384 979 
Q 480 538 688 304 
Q 896 70 1274 70 
Q 1632 70 1814 230 
Q 1997 390 1997 653 
Q 1997 1120 1331 1242 
Q 947 1318 787 1369 
Q 627 1421 486 1536 
Q 211 1760 211 2080 
Q 211 2400 454 2633 
Q 698 2867 1235 2867 
Q 1594 2867 1837 2688 
Q 1907 2746 1946 2790 
Q 2029 2867 2074 2867 
Q 2125 2867 2134 2835 
Q 2144 2803 2144 2714 
L 2144 2067 
Q 2144 1997 2141 1971 
Q 2138 1946 2118 1930 
Q 2099 1914 2061 1914 
Q 1990 1914 1984 1971 
Q 1933 2746 1235 2746 
Q 858 2746 688 2602 
Q 518 2458 518 2259 
Q 518 2150 569 2067 
Q 621 1984 688 1936 
Q 755 1888 880 1843 
Q 1005 1798 1081 1782 
Q 1158 1766 1306 1734 
Q 1818 1638 2035 1427 
Q 2304 1158 2304 819 
Q 2304 442 2048 186 
Q 1792 -70 1274 -70 
Q 858 -70 570 205 
Q 531 166 502 134 
Q 474 102 464 89 
Q 454 77 451 70 
Q 448 64 442 58 
Q 314 -70 282 -70 
Q 230 -70 220 -38 
Q 211 -6 211 83 
z
" transform="scale(0.015625)"/>
       <path id="CMUSerif-Roman-29" d="M 365 -1536 
Q 365 -1504 448 -1427 
Q 1478 -378 1478 1600 
Q 1478 3584 486 4589 
Q 365 4704 365 4736 
Q 365 4800 429 4800 
Q 474 4800 627 4672 
Q 781 4544 1017 4249 
Q 1254 3955 1427 3597 
Q 1850 2726 1850 1600 
Q 1850 518 1446 -352 
Q 1274 -717 1034 -1024 
Q 794 -1331 634 -1465 
Q 474 -1600 429 -1600 
Q 365 -1600 365 -1536 
z
" transform="scale(0.015625)"/>
      </defs>
      <use xlink:href="#CMUSerif-Roman-54"/>
      <use xlink:href="#CMUSerif-Roman-69" x="72.199982"/>
      <use xlink:href="#CMUSerif-Roman-6d" x="99.899979"/>
      <use xlink:href="#CMUSerif-Roman-65" x="183.199966"/>
      <use xlink:href="#CMUSerif-Roman-20" x="227.59996"/>
      <use xlink:href="#CMUSerif-Roman-28" x="260.899948"/>
      <use xlink:href="#CMUSerif-Roman-73" x="299.699936"/>
      <use xlink:href="#CMUSerif-Roman-29" x="339.09993"/>
     </g>
    </g>
   </g>
   <g id="matplotlib.axis_2">
    <g id="ytick_1">
     <g id="line2d_9">
      <defs>
       <path id="m71932aefa7" d="M 0 0 
L -3.5 0 
" style="stroke: #000000; stroke-width: 0.8"/>
      </defs>
      <g>
       <use xlink:href="#m71932aefa7" x="57.6" y="291.144819" style="stroke: #000000; stroke-width: 0.8"/>
      </g>
     </g>
     <g id="text_10">
      <!-- −4 -->
      <g transform="translate(35.857813 294.944038) scale(0.1 -0.1)">
       <defs>
        <path id="DejaVuSans-2212" d="M 678 2272 
L 4684 2272 
L 4684 1741 
L 678 1741 
L 678 2272 
z
" transform="scale(0.015625)"/>
        <path id="DejaVuSans-34" d="M 2419 4116 
L 825 1625 
L 2419 1625 
L 2419 4116 
z
M 2253 4666 
L 3047 4666 
L 3047 1625 
L 3713 1625 
L 3713 1100 
L 3047 1100 
L 3047 0 
L 2419 0 
L 2419 1100 
L 313 1100 
L 313 1709 
L 2253 4666 
z
" transform="scale(0.015625)"/>
       </defs>
       <use xlink:href="#DejaVuSans-2212"/>
       <use xlink:href="#DejaVuSans-34" x="83.789062"/>
      </g>
     </g>
    </g>
    <g id="ytick_2">
     <g id="line2d_10">
      <g>
       <use xlink:href="#m71932aefa7" x="57.6" y="235.540044" style="stroke: #000000; stroke-width: 0.8"/>
      </g>
     </g>
     <g id="text_11">
      <!-- −2 -->
      <g transform="translate(35.857813 239.339263) scale(0.1 -0.1)">
       <use xlink:href="#DejaVuSans-2212"/>
       <use xlink:href="#DejaVuSans-32" x="83.789062"/>
      </g>
     </g>
    </g>
    <g id="ytick_3">
     <g id="line2d_11">
      <g>
       <use xlink:href="#m71932aefa7" x="57.6" y="179.935269" style="stroke: #000000; stroke-width: 0.8"/>
      </g>
     </g>
     <g id="text_12">
      <!-- 0 -->
      <g transform="translate(44.2375 183.734488) scale(0.1 -0.1)">
       <use xlink:href="#DejaVuSans-30"/>
      </g>
     </g>
    </g>
    <g id="ytick_4">
     <g id="line2d_12">
      <g>
       <use xlink:href="#m71932aefa7" x="57.6" y="124.330494" style="stroke: #000000; stroke-width: 0.8"/>
      </g>
     </g>
     <g id="text_13">
      <!-- 2 -->
      <g transform="translate(44.2375 128.129712) scale(0.1 -0.1)">
       <use xlink:href="#DejaVuSans-32"/>
      </g>
     </g>
    </g>
    <g id="ytick_5">
     <g id="line2d_13">
      <g>
       <use xlink:href="#m71932aefa7" x="57.6" y="68.725718" style="stroke: #000000; stroke-width: 0.8"/>
      </g>
     </g>
     <g id="text_14">
      <!-- 4 -->
      <g transform="translate(44.2375 72.524937) scale(0.1 -0.1)">
       <use xlink:href="#DejaVuSans-34"/>
      </g>
     </g>
    </g>
    <g id="text_15">
     <!-- Momentum (kgm/s) -->
     <g transform="translate(29.357812 218.962375) rotate(-90) scale(0.1 -0.1)">
      <defs>
       <path id="CMUSerif-Roman-4d" d="M 237 0 
L 237 198 
Q 467 198 614 243 
Q 762 288 816 374 
Q 870 461 883 518 
Q 896 576 896 672 
L 896 3872 
Q 896 4058 816 4115 
Q 736 4173 390 4173 
L 237 4173 
L 237 4371 
L 1318 4371 
Q 1434 4371 1466 4352 
Q 1498 4333 1542 4230 
L 2931 646 
L 4333 4250 
Q 4365 4339 4393 4355 
Q 4422 4371 4544 4371 
L 5626 4371 
L 5626 4173 
L 5472 4173 
Q 5126 4173 5046 4115 
Q 4966 4058 4966 3872 
L 4966 499 
Q 4966 314 5046 256 
Q 5126 198 5472 198 
L 5626 198 
L 5626 0 
Q 5389 19 4710 19 
Q 4026 19 3789 0 
L 3789 198 
L 3942 198 
Q 4288 198 4368 256 
Q 4448 314 4448 499 
L 4448 4173 
L 4442 4173 
L 2867 122 
Q 2822 0 2752 0 
Q 2675 0 2624 141 
L 1082 4122 
L 1075 4122 
L 1075 672 
Q 1075 576 1088 518 
Q 1101 461 1155 374 
Q 1210 288 1357 243 
Q 1504 198 1734 198 
L 1734 0 
Q 1062 19 985 19 
Q 909 19 237 0 
z
" transform="scale(0.015625)"/>
       <path id="CMUSerif-Roman-6f" d="M 601 346 
Q 179 762 179 1370 
Q 179 1978 592 2422 
Q 1005 2867 1600 2867 
Q 2182 2867 2598 2425 
Q 3014 1984 3014 1370 
Q 3014 768 2595 349 
Q 2176 -70 1594 -70 
Q 1024 -70 601 346 
z
M 710 1421 
Q 710 800 870 518 
Q 1120 90 1600 90 
Q 1837 90 2035 218 
Q 2234 346 2342 563 
Q 2483 845 2483 1421 
Q 2483 2035 2317 2310 
Q 2067 2726 1594 2726 
Q 1389 2726 1187 2617 
Q 986 2509 864 2298 
Q 710 2016 710 1421 
z
" transform="scale(0.015625)"/>
       <path id="CMUSerif-Roman-6e" d="M 205 0 
L 205 198 
Q 544 198 624 240 
Q 704 282 704 486 
L 704 2202 
Q 704 2438 621 2499 
Q 538 2560 205 2560 
L 205 2758 
L 1107 2829 
L 1107 2157 
Q 1408 2829 2054 2829 
Q 2534 2829 2726 2592 
Q 2867 2432 2896 2253 
Q 2925 2074 2925 1613 
L 2925 390 
Q 2931 256 3033 227 
Q 3136 198 3424 198 
L 3424 0 
Q 2771 19 2707 19 
Q 2656 19 1984 0 
L 1984 198 
Q 2323 198 2403 240 
Q 2483 282 2483 486 
L 2483 1978 
Q 2483 2304 2384 2496 
Q 2285 2688 2010 2688 
Q 1677 2688 1411 2409 
Q 1146 2131 1146 1664 
L 1146 486 
Q 1146 282 1226 240 
Q 1306 198 1645 198 
L 1645 0 
Q 992 19 928 19 
Q 877 19 205 0 
z
" transform="scale(0.015625)"/>
       <path id="CMUSerif-Roman-74" d="M 122 2560 
L 122 2701 
Q 416 2714 611 2922 
Q 806 3130 873 3386 
Q 941 3642 947 3936 
L 1107 3936 
L 1107 2758 
L 2022 2758 
L 2022 2560 
L 1107 2560 
L 1107 781 
Q 1107 90 1536 90 
Q 1722 90 1843 278 
Q 1965 467 1965 806 
L 1965 1158 
L 2125 1158 
L 2125 794 
Q 2125 448 1965 189 
Q 1805 -70 1491 -70 
Q 1376 -70 1261 -41 
Q 1146 -13 998 64 
Q 851 141 758 329 
Q 666 518 666 794 
L 666 2560 
L 122 2560 
z
" transform="scale(0.015625)"/>
       <path id="CMUSerif-Roman-75" d="M 205 2560 
L 205 2758 
L 1146 2829 
L 1146 704 
Q 1146 550 1158 460 
Q 1171 371 1222 268 
Q 1274 166 1395 118 
Q 1517 70 1709 70 
Q 2054 70 2268 355 
Q 2483 640 2483 1062 
L 2483 2202 
Q 2483 2438 2400 2499 
Q 2317 2560 1984 2560 
L 1984 2758 
L 2925 2829 
L 2925 557 
Q 2925 320 3008 259 
Q 3091 198 3424 198 
L 3424 0 
L 2502 -70 
L 2502 506 
Q 2234 -70 1677 -70 
Q 1395 -70 1203 0 
Q 1011 70 915 160 
Q 819 250 768 422 
Q 717 595 710 700 
Q 704 806 704 1011 
L 704 1971 
Q 704 2406 640 2483 
Q 576 2560 205 2560 
z
" transform="scale(0.015625)"/>
       <path id="CMUSerif-Roman-6b" d="M 179 0 
L 179 198 
Q 518 198 598 240 
Q 678 282 678 486 
L 678 3814 
Q 678 4051 595 4112 
Q 512 4173 179 4173 
L 179 4371 
L 1101 4442 
L 1101 1370 
L 2003 2150 
Q 2144 2272 2144 2400 
Q 2144 2547 1958 2560 
L 1958 2758 
Q 2227 2739 2675 2739 
Q 2938 2739 3123 2758 
L 3123 2560 
Q 2720 2541 2317 2214 
Q 2227 2144 2012 1958 
Q 1798 1773 1798 1754 
Q 1798 1747 1804 1731 
Q 1811 1715 1824 1702 
Q 1837 1690 1837 1683 
L 2650 538 
Q 2816 307 2937 252 
Q 3059 198 3270 198 
L 3270 0 
Q 2995 19 2714 19 
Q 2560 19 2022 0 
L 2022 198 
Q 2253 198 2253 346 
Q 2253 448 1734 1165 
Q 1696 1216 1613 1325 
Q 1536 1440 1491 1498 
L 1082 1146 
L 1082 486 
Q 1082 282 1162 240 
Q 1242 198 1581 198 
L 1581 0 
Q 1197 19 877 19 
Q 813 19 179 0 
z
" transform="scale(0.015625)"/>
       <path id="CMUSerif-Roman-67" d="M 179 -506 
Q 179 -301 336 -121 
Q 493 58 768 134 
Q 486 314 486 704 
Q 486 1005 685 1235 
Q 384 1485 384 1894 
Q 384 2272 685 2550 
Q 986 2829 1421 2829 
Q 1805 2829 2099 2598 
Q 2406 2899 2778 2899 
Q 2944 2899 3024 2796 
Q 3104 2694 3104 2586 
Q 3104 2490 3043 2442 
Q 2982 2394 2918 2394 
Q 2842 2394 2787 2445 
Q 2733 2496 2733 2579 
Q 2733 2714 2835 2752 
Q 2816 2758 2771 2758 
Q 2458 2758 2195 2509 
Q 2458 2266 2458 1888 
Q 2458 1510 2157 1232 
Q 1856 954 1421 954 
Q 1062 954 787 1152 
Q 678 1024 678 851 
Q 678 691 774 566 
Q 870 442 1018 422 
Q 1062 416 1498 416 
Q 1754 416 1894 409 
Q 2035 403 2236 361 
Q 2438 320 2598 237 
Q 3014 6 3014 -493 
Q 3014 -858 2595 -1088 
Q 2176 -1318 1594 -1318 
Q 1005 -1318 592 -1084 
Q 179 -851 179 -506 
z
M 512 -506 
Q 512 -768 822 -969 
Q 1133 -1171 1600 -1171 
Q 2061 -1171 2371 -972 
Q 2682 -774 2682 -506 
Q 2682 -314 2573 -192 
Q 2464 -70 2240 -22 
Q 2016 26 1859 35 
Q 1702 45 1414 45 
L 1037 45 
Q 819 32 665 -128 
Q 512 -288 512 -506 
z
M 864 1888 
Q 864 1101 1421 1101 
Q 1702 1101 1875 1357 
Q 1978 1530 1978 1894 
Q 1978 2682 1421 2682 
Q 1139 2682 966 2426 
Q 864 2253 864 1888 
z
" transform="scale(0.015625)"/>
       <path id="CMUSerif-Roman-2f" d="M 365 -1510 
Q 365 -1478 390 -1408 
L 2650 4627 
Q 2650 4634 2666 4669 
Q 2682 4704 2691 4726 
Q 2701 4749 2720 4768 
Q 2739 4787 2765 4787 
Q 2829 4787 2829 4710 
Q 2829 4704 2810 4627 
L 544 -1414 
Q 506 -1523 483 -1555 
Q 461 -1587 422 -1587 
Q 365 -1587 365 -1510 
z
" transform="scale(0.015625)"/>
      </defs>
      <use xlink:href="#CMUSerif-Roman-4d"/>
      <use xlink:href="#CMUSerif-Roman-6f" x="91.599991"/>
      <use xlink:href="#CMUSerif-Roman-6d" x="141.599976"/>
      <use xlink:href="#CMUSerif-Roman-65" x="224.899963"/>
      <use xlink:href="#CMUSerif-Roman-6e" x="269.299957"/>
      <use xlink:href="#CMUSerif-Roman-74" x="324.799942"/>
      <use xlink:href="#CMUSerif-Roman-75" x="363.59993"/>
      <use xlink:href="#CMUSerif-Roman-6d" x="419.099915"/>
      <use xlink:href="#CMUSerif-Roman-20" x="502.399902"/>
      <use xlink:href="#CMUSerif-Roman-28" x="535.69989"/>
      <use xlink:href="#CMUSerif-Roman-6b" x="574.499878"/>
      <use xlink:href="#CMUSerif-Roman-67" x="627.199875"/>
      <use xlink:href="#CMUSerif-Roman-6d" x="677.19986"/>
      <use xlink:href="#CMUSerif-Roman-2f" x="760.499847"/>
      <use xlink:href="#CMUSerif-Roman-73" x="810.499832"/>
      <use xlink:href="#CMUSerif-Roman-29" x="849.899826"/>
     </g>
    </g>
   </g>
   <g id="line2d_14">
    <path d="M 73.832727 167.921993 
L 75.108826 168.555323 
L 76.272328 169.379881 
L 77.398297 170.452327 
L 78.524267 171.835991 
L 79.706535 173.651563 
L 81.0014 176.063652 
L 82.577757 179.506494 
L 88.282669 192.468361 
L 89.652599 194.769238 
L 90.909932 196.463647 
L 92.0922 197.693406 
L 93.199403 198.531756 
L 94.231542 199.040914 
L 95.188616 199.270096 
L 96.070625 199.258255 
L 96.915102 199.023025 
L 97.722047 198.563704 
L 98.510226 197.857246 
L 99.317171 196.824005 
L 100.142882 195.386151 
L 101.006125 193.407768 
L 101.925667 190.708319 
L 102.957806 186.943107 
L 104.346501 180.927576 
L 106.560908 171.34882 
L 107.574281 167.974387 
L 108.45629 165.771675 
L 109.263235 164.327537 
L 110.032647 163.388923 
L 110.783294 162.809736 
L 111.571472 162.481668 
L 112.434716 162.369272 
L 113.448088 162.469727 
L 114.761719 162.837939 
L 116.7134 163.641225 
L 128.723741 168.968902 
L 137.787796 172.666884 
L 140.133566 173.904429 
L 141.82252 175.03807 
L 143.136151 176.183588 
L 144.187056 177.389872 
L 145.069066 178.736607 
L 145.838478 180.323829 
L 146.51406 182.24221 
L 147.114577 184.636815 
L 147.658796 187.761582 
L 148.146716 191.903805 
L 148.597104 197.720491 
L 149.028725 206.48795 
L 149.460347 220.347126 
L 150.229759 246.547705 
L 150.32359 246.938045 
L 150.361122 246.870257 
L 150.473719 246.01825 
L 150.736446 241.592173 
L 151.749818 222.971618 
L 152.369101 216.072697 
L 153.025917 211.122718 
L 153.739031 207.382731 
L 154.508444 204.503421 
L 155.334154 202.248652 
L 156.23493 200.425002 
L 157.21077 198.944642 
L 158.280441 197.719799 
L 159.481476 196.680749 
L 160.870171 195.778517 
L 162.502827 194.989176 
L 164.529572 194.266975 
L 167.213133 193.560914 
L 172.186165 192.531802 
L 176.821406 191.479373 
L 179.823992 190.572048 
L 182.357423 189.57725 
L 184.646894 188.440159 
L 186.842535 187.100516 
L 189.132006 185.436585 
L 191.853099 183.168188 
L 195.118411 180.158488 
L 197.220221 177.94208 
L 198.815344 175.942863 
L 200.185274 173.871416 
L 201.442606 171.558609 
L 202.624874 168.908067 
L 203.807142 165.694768 
L 205.120774 161.435269 
L 208.348553 150.57783 
L 209.174264 148.763612 
L 209.943676 147.586252 
L 210.713089 146.804132 
L 211.613864 146.208986 
L 213.152689 145.507035 
L 215.948847 144.44691 
L 216.924687 144.324787 
L 217.712866 144.442356 
L 218.463512 144.784083 
L 219.214159 145.377045 
L 220.03987 146.325502 
L 220.996944 147.78247 
L 222.216744 150.07576 
L 224.299788 154.559018 
L 226.964582 160.15076 
L 228.7849 163.448538 
L 230.530152 166.154401 
L 232.331704 168.538278 
L 234.358449 170.845623 
L 237.098308 173.600527 
L 243.009648 179.473113 
L 246.36879 183.202149 
L 252.03617 189.909036 
L 256.183491 194.633746 
L 259.186077 197.722476 
L 261.832105 200.13193 
L 264.309238 202.091857 
L 266.748839 203.740696 
L 269.376101 205.24363 
L 275.944256 208.845881 
L 277.745808 210.240844 
L 279.791319 211.814199 
L 280.429368 212.02052 
L 280.879756 211.948022 
L 281.292612 211.645675 
L 281.705467 211.044659 
L 282.155855 209.965756 
L 282.681307 208.060576 
L 283.300591 204.90312 
L 284.220132 198.880279 
L 285.946619 187.56159 
L 286.884927 182.957968 
L 287.785703 179.61528 
L 288.705244 177.040809 
L 289.662318 175.001473 
L 290.713223 173.272091 
L 291.933024 171.69456 
L 293.453083 170.104897 
L 295.873917 167.939397 
L 298.932801 165.144458 
L 300.640521 163.272494 
L 302.047983 161.40038 
L 303.28655 159.377727 
L 304.412519 157.109048 
L 305.613553 154.153971 
L 306.645692 151.734031 
L 306.927184 151.531962 
L 307.077314 151.662426 
L 307.264975 152.212183 
L 307.471403 153.592554 
L 307.715363 156.944583 
L 307.996855 164.544919 
L 308.372179 182.311857 
L 308.972696 209.851969 
L 309.329253 216.766024 
L 309.648277 219.18772 
L 309.911004 219.835112 
L 310.117431 219.883498 
L 310.342625 219.667624 
L 310.755481 218.88739 
L 311.862684 216.123955 
L 313.457808 212.393141 
L 315.015399 209.327569 
L 316.760652 206.387709 
L 318.787397 203.416449 
L 321.151933 200.351982 
L 323.94809 197.098885 
L 327.382297 193.456206 
L 331.96124 188.944697 
L 356.263416 165.476457 
L 359.941583 161.574046 
L 362.531313 158.511745 
L 364.558058 155.779581 
L 366.20948 153.188429 
L 367.579409 150.633913 
L 368.742911 147.994988 
L 369.718751 145.235458 
L 370.563229 142.172197 
L 371.276343 138.745681 
L 371.895626 134.654527 
L 372.421078 129.663907 
L 372.871466 123.190613 
L 373.265555 114.070256 
L 373.697177 100.634868 
L 373.753476 102.292995 
L 373.847306 117.03163 
L 374.278928 215.104482 
L 374.429057 216.663063 
L 374.447823 216.646511 
L 374.541654 216.222196 
L 374.841913 213.319969 
L 375.855285 203.473142 
L 376.793593 196.695659 
L 378.03216 189.451133 
L 381.785391 168.514868 
L 382.611102 162.029062 
L 383.267918 155.064596 
L 383.774604 147.245365 
L 384.168694 137.632214 
L 384.506484 123.331248 
L 384.806743 107.111627 
L 384.844275 108.230577 
L 384.91934 119.936736 
L 385.426026 237.5318 
L 385.707519 243.819298 
L 385.951479 249.304764 
L 386.120374 258.629186 
L 386.308036 285.241904 
L 386.364334 290.244111 
L 386.401867 284.90122 
L 386.795956 199.814071 
L 387.133747 182.835032 
L 387.659199 168.567936 
L 388.541209 150.471709 
L 388.822701 148.003875 
L 388.878999 148.097634 
L 388.97283 149.016407 
L 389.104193 152.763573 
L 389.273089 164.976955 
L 389.70471 208.404377 
L 389.761009 207.485783 
L 389.948671 198.360614 
L 390.811914 152.303702 
L 391.224769 140.476785 
L 391.299834 139.938399 
L 391.356132 140.242256 
L 391.449963 142.90366 
L 391.581326 155.245717 
L 391.768988 203.378554 
L 391.881585 220.303169 
L 391.919117 218.219535 
L 392.088013 185.878973 
L 392.407037 128.024819 
L 392.425803 128.321269 
L 392.482102 142.509361 
L 392.557167 253.536671 
L 392.575933 295.488 
L 392.669764 286.339935 
L 392.707296 286.266803 
L 392.763594 286.365115 
L 393.026321 286.76521 
L 393.251514 286.635735 
L 394.020927 286.133256 
L 394.88417 285.889931 
L 396.460528 285.709475 
L 398.487273 285.615384 
L 398.487273 285.615384 
" clip-path="url(#p274a294fdd)" style="fill: none; stroke: #1f77b4; stroke-width: 1.5; stroke-linecap: square"/>
   </g>
   <g id="line2d_15">
    <path d="M 73.832727 167.906972 
L 75.240189 167.467132 
L 76.929143 167.180536 
L 79.218615 167.033252 
L 83.684961 167.020548 
L 91.510449 167.169637 
L 93.462129 167.45282 
L 94.907123 167.877806 
L 96.108158 168.460792 
L 97.140296 169.206108 
L 98.09737 170.174613 
L 98.998146 171.406327 
L 99.898922 173.031796 
L 100.799697 175.137506 
L 101.738005 177.92154 
L 102.770144 181.717077 
L 104.083775 187.48082 
L 106.711037 199.192856 
L 107.72441 202.581879 
L 108.606419 204.789839 
L 109.413364 206.242612 
L 110.182777 207.194531 
L 110.952189 207.800442 
L 111.740368 208.137014 
L 112.584845 208.25211 
L 113.541919 208.153708 
L 114.705421 207.800465 
L 116.169181 207.110721 
L 118.083329 205.948705 
L 120.673059 204.098886 
L 124.23863 201.259097 
L 129.418089 196.825064 
L 141.034342 186.492016 
L 146.851851 181.507675 
L 150.999172 178.25229 
L 159.443943 171.873194 
L 164.886129 168.114419 
L 177.365625 159.62042 
L 180.086718 157.414584 
L 182.207294 155.414337 
L 183.971313 153.444904 
L 185.510138 151.393461 
L 186.955132 149.090252 
L 188.475191 146.225991 
L 190.952324 141.47313 
L 191.534075 140.850005 
L 191.94693 140.698059 
L 192.284721 140.805622 
L 192.641278 141.183705 
L 193.054133 141.995633 
L 193.542054 143.490575 
L 194.180103 146.250289 
L 195.118411 151.451373 
L 197.445415 164.636128 
L 198.59015 169.662943 
L 199.697354 173.555573 
L 200.842089 176.79062 
L 202.080656 179.628491 
L 203.469352 182.248712 
L 205.177072 184.975836 
L 211.463735 194.57281 
L 214.466321 200.074635 
L 216.136509 202.875945 
L 217.20618 204.27027 
L 218.069423 205.054991 
L 218.820069 205.449103 
L 219.514417 205.565108 
L 220.208765 205.451324 
L 220.978178 205.086643 
L 221.916486 204.374056 
L 223.323947 202.983539 
L 225.669717 200.678796 
L 226.851985 199.843025 
L 227.865358 199.391838 
L 228.803666 199.21354 
L 229.741974 199.265462 
L 230.73658 199.550224 
L 231.975147 200.156236 
L 234.54611 201.481542 
L 235.390587 201.62054 
L 236.122468 201.518839 
L 236.854348 201.185644 
L 237.642527 200.57024 
L 238.580834 199.534767 
L 239.838167 197.780597 
L 245.862104 188.89474 
L 247.832551 186.630838 
L 249.93436 184.557991 
L 252.298896 182.54408 
L 255.151353 180.416634 
L 259.279908 177.643484 
L 265.641635 173.36218 
L 268.475325 171.16693 
L 270.74603 169.129894 
L 272.697711 167.08205 
L 274.46173 164.906654 
L 276.131918 162.489543 
L 277.971002 159.414187 
L 280.054045 155.970654 
L 280.729627 155.268858 
L 281.180015 155.087575 
L 281.536572 155.174831 
L 281.893129 155.516562 
L 282.287218 156.240373 
L 282.756372 157.623553 
L 283.338123 160.112063 
L 284.201366 164.934591 
L 285.79649 173.826761 
L 286.622201 177.127867 
L 287.354081 179.186125 
L 288.010896 180.425598 
L 288.63018 181.151063 
L 289.211931 181.503082 
L 289.774915 181.586091 
L 290.356666 181.444461 
L 291.013482 181.047957 
L 291.801661 180.295651 
L 292.777501 179.032214 
L 294.072366 176.95828 
L 298.876502 168.891703 
L 300.077537 167.487784 
L 301.18474 166.524883 
L 302.235645 165.896876 
L 303.305316 165.516011 
L 304.431285 165.353339 
L 305.72615 165.400162 
L 307.433871 165.704412 
L 310.473988 166.498198 
L 312.463201 167.277396 
L 315.015399 168.53385 
L 319.125188 170.839109 
L 338.398033 181.878695 
L 340.443544 182.760331 
L 341.663344 183.064299 
L 342.489055 183.059156 
L 343.108338 182.842579 
L 343.615025 182.427792 
L 344.065413 181.754114 
L 344.478268 180.706328 
L 344.872357 179.02953 
L 345.228914 176.476873 
L 345.566705 172.382549 
L 345.923262 165.007834 
L 346.580078 150.310052 
L 346.636376 150.232016 
L 346.673909 150.301373 
L 346.805272 151.142255 
L 347.180595 155.729958 
L 347.83741 162.850922 
L 348.456694 167.199884 
L 349.151042 170.518549 
L 349.93922 173.209598 
L 350.858762 175.553261 
L 351.928433 177.671032 
L 353.223298 179.736553 
L 354.855954 181.90811 
L 357.107893 184.507373 
L 363.844944 192.069229 
L 365.608963 194.513387 
L 367.035191 196.868525 
L 368.236225 199.283909 
L 369.268364 201.8701 
L 370.150373 204.688854 
L 370.919786 207.910262 
L 371.576601 211.624472 
L 372.158352 216.2496 
L 372.646272 221.967281 
L 373.059128 229.446851 
L 373.434451 240.493667 
L 373.697177 248.441764 
L 373.734709 247.73035 
L 373.809774 240.467556 
L 373.941137 196.431935 
L 374.185097 138.428928 
L 374.372759 132.850811 
L 374.429057 132.715891 
L 374.46659 132.793555 
L 374.616719 133.842515 
L 375.423664 142.642653 
L 376.343205 150.847637 
L 377.581772 159.794501 
L 381.222407 185.011339 
L 382.141949 193.631522 
L 382.855063 202.396912 
L 383.436813 212.306373 
L 383.905967 224.112844 
L 384.300057 239.940471 
L 384.656614 264.351486 
L 384.825509 274.145906 
L 384.863042 272.522338 
L 384.956872 252.279536 
L 385.294663 164.051159 
L 385.426026 160.863246 
L 385.463559 161.006127 
L 385.576156 162.92151 
L 385.89518 173.682825 
L 386.964851 211.693555 
L 387.246344 215.210843 
L 387.283876 215.251326 
L 387.321408 215.172556 
L 387.434005 214.206908 
L 387.659199 209.554557 
L 388.128353 200.119014 
L 388.372313 198.771453 
L 388.785169 197.714314 
L 388.935298 195.734851 
L 389.104193 189.993907 
L 389.291855 174.294133 
L 389.70471 130.536558 
L 389.742243 130.834466 
L 389.873606 135.570392 
L 391.168471 196.642864 
L 391.3186 198.474362 
L 391.356132 198.315568 
L 391.449963 196.009501 
L 391.581326 184.285123 
L 391.768988 137.243425 
L 391.881585 121.06912 
L 391.919117 123.428794 
L 392.088013 157.221729 
L 392.407037 218.593988 
L 392.44457 216.865624 
L 392.500868 192.08536 
L 392.575933 53.568 
L 392.707296 64.802042 
L 392.951256 66.527433 
L 393.251514 67.219482 
L 393.645604 67.573552 
L 394.264887 67.798405 
L 395.465921 67.956912 
L 398.374676 68.06573 
L 398.487273 68.067759 
L 398.487273 68.067759 
" clip-path="url(#p274a294fdd)" style="fill: none; stroke: #ff7f0e; stroke-width: 1.5; stroke-linecap: square"/>
   </g>
   <g id="line2d_16">
    <path d="M 73.832727 203.976842 
L 74.733503 203.863485 
L 75.653045 203.52057 
L 76.591353 202.929426 
L 77.567193 202.047857 
L 78.618098 200.785053 
L 79.744067 199.068974 
L 81.0014 196.73153 
L 82.540225 193.371777 
L 88.320202 180.228256 
L 89.727664 177.855588 
L 91.060061 176.032578 
L 92.373692 174.605956 
L 93.706089 173.482532 
L 95.113551 172.584388 
L 96.671142 171.856549 
L 98.49146 171.257953 
L 100.855996 170.729572 
L 105.097148 170.056026 
L 111.158617 169.270025 
L 113.804645 169.16412 
L 116.131649 169.292142 
L 118.42112 169.641748 
L 120.823189 170.236931 
L 123.487983 171.132958 
L 126.621932 172.430693 
L 130.88185 174.456635 
L 137.900393 177.808446 
L 140.133566 178.612637 
L 141.709923 178.955716 
L 142.892191 178.995798 
L 143.830499 178.811962 
L 144.599912 178.441291 
L 145.275493 177.87008 
L 145.894777 177.044795 
L 146.457761 175.917282 
L 147.00198 174.300513 
L 147.508666 172.055917 
L 147.97782 168.933258 
L 148.428208 164.330192 
L 148.841064 157.720987 
L 149.253919 147.23662 
L 149.779372 126.94042 
L 150.173461 115.019581 
L 150.304824 114.093684 
L 150.342356 114.129216 
L 150.436187 114.720416 
L 150.642615 117.853488 
L 152.031311 142.864335 
L 152.688126 149.426726 
L 153.40124 154.423926 
L 154.189419 158.439299 
L 155.071428 161.806296 
L 156.047269 164.676221 
L 157.154472 167.246108 
L 158.393038 169.565116 
L 159.819266 171.764255 
L 161.489455 173.924801 
L 163.497434 176.147977 
L 166.030865 178.607669 
L 169.934226 182.049475 
L 175.357646 186.867536 
L 178.02244 189.54564 
L 180.180549 192.026919 
L 182.038398 194.502993 
L 183.68982 197.076593 
L 185.209879 199.861635 
L 186.654873 202.978213 
L 188.156166 206.766782 
L 191.45901 215.387798 
L 191.984462 216.054051 
L 192.359786 216.223454 
L 192.67881 216.129479 
L 193.016601 215.769844 
L 193.429457 214.955664 
L 193.954909 213.353347 
L 194.668023 210.372876 
L 197.839504 196.105398 
L 198.721513 193.563673 
L 199.528458 191.875971 
L 200.260338 190.826942 
L 200.917154 190.244527 
L 201.517671 189.990961 
L 202.080656 189.984631 
L 202.662407 190.205732 
L 203.28169 190.687833 
L 203.994804 191.544695 
L 204.839281 192.93765 
L 206.002783 195.339946 
L 207.654205 198.702579 
L 208.386085 199.701802 
L 208.967836 200.151926 
L 209.474522 200.283717 
L 209.981209 200.189652 
L 210.56296 199.844133 
L 211.313606 199.114865 
L 212.439575 197.667001 
L 217.318777 191.059006 
L 219.946039 188.083103 
L 225.087966 182.334593 
L 227.114712 179.663516 
L 228.972561 176.83923 
L 231.018073 173.300718 
L 234.170787 167.813002 
L 235.240458 166.427639 
L 236.103702 165.652283 
L 236.873114 165.24951 
L 237.604994 165.111168 
L 238.393173 165.193699 
L 239.331481 165.527132 
L 240.795241 166.317466 
L 243.178543 167.581806 
L 244.586005 168.065878 
L 245.937169 168.297418 
L 247.344631 168.309103 
L 248.883456 168.094477 
L 250.703773 167.607915 
L 253.199672 166.689561 
L 259.486335 164.285379 
L 261.738274 163.715716 
L 263.708721 163.442006 
L 265.529038 163.411944 
L 267.255525 163.605989 
L 268.925713 164.016907 
L 270.595901 164.657266 
L 272.322388 165.561255 
L 274.161471 166.780311 
L 276.282047 168.465087 
L 279.190802 171.091303 
L 284.970779 176.653122 
L 286.678499 178.626872 
L 288.14226 180.662207 
L 289.549721 183.01028 
L 290.994716 185.868877 
L 292.608605 189.582442 
L 294.766714 195.167736 
L 298.444881 204.697734 
L 300.396561 209.065808 
L 305.632319 220.311224 
L 306.60816 222.481853 
L 306.889652 222.68709 
L 307.058548 222.549298 
L 307.246209 222.010453 
L 307.471403 220.500435 
L 307.715363 217.092957 
L 307.996855 209.427431 
L 308.372179 191.572543 
L 308.972696 163.887877 
L 309.329253 156.882476 
L 309.648277 154.373659 
L 309.92977 153.626901 
L 310.154964 153.547313 
L 310.398924 153.748403 
L 310.830545 154.468705 
L 314.114623 160.700664 
L 315.465787 162.504604 
L 316.967079 164.135532 
L 318.656034 165.640077 
L 320.607714 167.076657 
L 322.897185 168.479403 
L 325.637045 169.890149 
L 329.071252 171.397951 
L 334.419607 173.469379 
L 338.660759 175.198252 
L 340.537375 176.192644 
L 341.775941 177.089499 
L 342.676717 178.010795 
L 343.371065 179.033829 
L 343.952816 180.297047 
L 344.440736 181.900266 
L 344.872357 184.112018 
L 345.266447 187.400174 
L 345.623004 192.402786 
L 345.998327 201.247261 
L 346.542545 214.254819 
L 346.636376 214.609843 
L 346.692675 214.527712 
L 346.824038 213.703276 
L 347.236893 208.971366 
L 347.856177 203.01776 
L 348.437927 199.5062 
L 349.057211 197.069496 
L 349.732792 195.284053 
L 350.464673 193.9573 
L 351.271617 192.943677 
L 352.172393 192.163879 
L 353.204532 191.563429 
L 354.424332 191.113808 
L 355.925625 190.805963 
L 357.821007 190.654788 
L 360.354438 190.68955 
L 364.314098 190.99362 
L 369.362194 191.348115 
L 371.407706 191.266095 
L 372.890232 190.99252 
L 374.241396 190.510212 
L 375.423664 189.881588 
L 376.605932 188.992616 
L 377.863264 187.761963 
L 379.120597 186.216734 
L 380.265333 184.461143 
L 381.259939 182.525502 
L 382.08565 180.422799 
L 382.761232 178.093875 
L 383.342983 175.26772 
L 383.849669 171.650684 
L 384.318823 166.587525 
L 384.806743 158.640916 
L 385.238365 147.946467 
L 385.688752 130.125552 
L 386.026543 108.405819 
L 386.232971 80.146925 
L 386.364334 56.519604 
L 386.401867 60.351844 
L 386.77719 131.375139 
L 387.058682 140.796109 
L 387.452771 152.285993 
L 388.48491 189.879966 
L 388.935298 195.556191 
L 389.479517 199.688323 
L 389.948671 201.807603 
L 390.286461 202.517276 
L 390.530421 202.609762 
L 390.774382 202.442663 
L 391.112172 201.909735 
L 391.431197 200.96922 
L 391.787754 199.064875 
L 392.163077 195.963308 
L 392.594699 190.453303 
L 392.951256 186.538821 
L 393.17645 186.007149 
L 393.457942 185.898414 
L 394.321185 185.969853 
L 396.817085 186.092833 
L 398.487273 186.122663 
L 398.487273 186.122663 
" clip-path="url(#p274a294fdd)" style="fill: none; stroke: #2ca02c; stroke-width: 1.5; stroke-linecap: square"/>
   </g>
   <g id="line2d_17">
    <path d="M 73.832727 179.935269 
L 398.487273 179.935269 
L 398.487273 179.935269 
" clip-path="url(#p274a294fdd)" style="fill: none; stroke: #d62728; stroke-width: 1.5; stroke-linecap: square"/>
   </g>
   <g id="patch_3">
    <path d="M 57.6 307.584 
L 57.6 41.472 
" style="fill: none; stroke: #000000; stroke-width: 0.8; stroke-linejoin: miter; stroke-linecap: square"/>
   </g>
   <g id="patch_4">
    <path d="M 414.72 307.584 
L 414.72 41.472 
" style="fill: none; stroke: #000000; stroke-width: 0.8; stroke-linejoin: miter; stroke-linecap: square"/>
   </g>
   <g id="patch_5">
    <path d="M 57.6 307.584 
L 414.72 307.584 
" style="fill: none; stroke: #000000; stroke-width: 0.8; stroke-linejoin: miter; stroke-linecap: square"/>
   </g>
   <g id="patch_6">
    <path d="M 57.6 41.472 
L 414.72 41.472 
" style="fill: none; stroke: #000000; stroke-width: 0.8; stroke-linejoin: miter; stroke-linecap: square"/>
   </g>
   <g id="text_16">
    <!-- Figure 2b: The Y Momenta of the Body 1, Body 1, and Body 3 -->
    <g transform="translate(97.095937 35.472) scale(0.1 -0.1)">
     <defs>
      <path id="CMUSerif-Roman-46" d="M 211 0 
L 211 198 
L 365 198 
Q 710 198 790 256 
Q 870 314 870 499 
L 870 3853 
Q 870 4038 790 4096 
Q 710 4154 365 4154 
L 211 4154 
L 211 4352 
L 3725 4352 
L 3904 2912 
L 3744 2912 
Q 3699 3277 3641 3485 
Q 3584 3693 3453 3859 
Q 3322 4026 3101 4090 
Q 2880 4154 2522 4154 
L 1754 4154 
Q 1536 4154 1488 4109 
Q 1440 4064 1440 3898 
L 1440 2278 
L 1990 2278 
Q 2426 2278 2547 2435 
Q 2669 2592 2669 3027 
L 2829 3027 
L 2829 1331 
L 2669 1331 
Q 2669 1773 2547 1926 
Q 2426 2080 1990 2080 
L 1440 2080 
L 1440 506 
Q 1440 371 1462 320 
Q 1485 269 1619 233 
Q 1754 198 2048 198 
L 2259 198 
L 2259 0 
Q 2029 19 1184 19 
Q 435 19 211 0 
z
" transform="scale(0.015625)"/>
      <path id="CMUSerif-Roman-72" d="M 179 0 
L 179 198 
Q 518 198 598 240 
Q 678 282 678 486 
L 678 2202 
Q 678 2438 595 2499 
Q 512 2560 179 2560 
L 179 2758 
L 1069 2829 
L 1069 2125 
Q 1158 2400 1350 2614 
Q 1542 2829 1856 2829 
Q 2061 2829 2195 2713 
Q 2330 2598 2330 2438 
Q 2330 2298 2243 2227 
Q 2157 2157 2054 2157 
Q 1939 2157 1859 2230 
Q 1779 2304 1779 2432 
Q 1779 2509 1814 2569 
Q 1850 2630 1878 2652 
Q 1907 2675 1926 2682 
Q 1914 2688 1856 2688 
Q 1504 2688 1302 2336 
Q 1101 1984 1101 1485 
L 1101 499 
Q 1101 314 1177 256 
Q 1254 198 1587 198 
L 1722 198 
L 1722 0 
Q 1466 19 909 19 
Q 832 19 710 16 
Q 589 13 429 6 
Q 269 0 179 0 
z
" transform="scale(0.015625)"/>
      <path id="CMUSerif-Roman-32" d="M 320 0 
Q 320 115 329 150 
Q 339 186 390 237 
L 1619 1606 
Q 2291 2362 2291 3021 
Q 2291 3450 2067 3757 
Q 1843 4064 1434 4064 
Q 1152 4064 915 3891 
Q 678 3718 570 3411 
Q 589 3418 653 3418 
Q 813 3418 902 3318 
Q 992 3219 992 3085 
Q 992 2912 880 2829 
Q 768 2746 659 2746 
Q 614 2746 556 2755 
Q 499 2765 409 2854 
Q 320 2944 320 3104 
Q 320 3552 659 3907 
Q 998 4262 1517 4262 
Q 2106 4262 2490 3913 
Q 2874 3565 2874 3021 
Q 2874 2829 2816 2656 
Q 2758 2483 2681 2348 
Q 2605 2214 2400 2000 
Q 2195 1786 2028 1632 
Q 1862 1478 1491 1152 
L 813 493 
L 1965 493 
Q 2528 493 2573 544 
Q 2637 634 2714 1114 
L 2874 1114 
L 2694 0 
L 320 0 
z
" transform="scale(0.015625)"/>
      <path id="CMUSerif-Roman-62" d="M 179 4173 
L 179 4371 
L 1101 4442 
L 1101 2413 
Q 1472 2829 1978 2829 
Q 2528 2829 2931 2406 
Q 3334 1984 3334 1382 
Q 3334 774 2912 352 
Q 2490 -70 1907 -70 
Q 1376 -70 1069 397 
Q 845 6 838 0 
L 678 0 
L 678 3814 
Q 678 4051 595 4112 
Q 512 4173 179 4173 
z
M 1120 730 
Q 1120 595 1210 461 
Q 1466 70 1882 70 
Q 2330 70 2605 480 
Q 2803 787 2803 1389 
Q 2803 1984 2618 2278 
Q 2362 2688 1946 2688 
Q 1478 2688 1190 2278 
Q 1120 2176 1120 2048 
L 1120 730 
z
" transform="scale(0.015625)"/>
      <path id="CMUSerif-Roman-3a" d="M 649 2179 
Q 550 2279 550 2419 
Q 550 2560 649 2659 
Q 749 2759 889 2759 
Q 1030 2759 1129 2659 
Q 1229 2560 1229 2419 
Q 1229 2279 1129 2179 
Q 1030 2080 889 2080 
Q 749 2080 649 2179 
z
M 649 99 
Q 550 199 550 339 
Q 550 480 649 579 
Q 749 679 889 679 
Q 1030 679 1129 579 
Q 1229 480 1229 339 
Q 1229 199 1129 99 
Q 1030 0 889 0 
Q 749 0 649 99 
z
" transform="scale(0.015625)"/>
      <path id="CMUSerif-Roman-68" d="M 205 0 
L 205 198 
Q 544 198 624 240 
Q 704 282 704 486 
L 704 3814 
Q 704 4051 621 4112 
Q 538 4173 205 4173 
L 205 4371 
L 1126 4442 
L 1126 2214 
L 1133 2214 
Q 1235 2445 1465 2637 
Q 1696 2829 2054 2829 
Q 2534 2829 2726 2592 
Q 2867 2432 2896 2253 
Q 2925 2074 2925 1613 
L 2925 390 
Q 2931 256 3033 227 
Q 3136 198 3424 198 
L 3424 0 
Q 2771 19 2707 19 
Q 2656 19 1984 0 
L 1984 198 
Q 2323 198 2403 240 
Q 2483 282 2483 486 
L 2483 1978 
Q 2483 2304 2384 2496 
Q 2285 2688 2010 2688 
Q 1677 2688 1411 2409 
Q 1146 2131 1146 1664 
L 1146 486 
Q 1146 282 1226 240 
Q 1306 198 1645 198 
L 1645 0 
Q 992 19 928 19 
Q 877 19 205 0 
z
" transform="scale(0.015625)"/>
      <path id="CMUSerif-Roman-59" d="M 70 4173 
L 70 4371 
Q 474 4352 902 4352 
Q 1619 4352 1850 4371 
L 1850 4173 
Q 1613 4173 1507 4141 
Q 1402 4109 1402 4013 
Q 1402 3968 1446 3904 
L 2605 2016 
L 3661 3731 
Q 3725 3827 3725 3923 
Q 3725 4032 3635 4102 
Q 3546 4173 3360 4173 
L 3360 4371 
Q 3859 4352 4096 4352 
Q 4429 4352 4723 4371 
L 4723 4173 
Q 4154 4173 3904 3757 
L 2669 1747 
L 2669 512 
Q 2669 314 2749 256 
Q 2829 198 3181 198 
L 3328 198 
L 3328 0 
Q 3098 19 2394 19 
Q 1690 19 1459 0 
L 1459 198 
L 1613 198 
Q 1958 198 2038 256 
Q 2118 314 2118 499 
L 2118 1747 
L 774 3936 
Q 717 4032 672 4073 
Q 627 4115 512 4144 
Q 397 4173 186 4173 
L 70 4173 
z
" transform="scale(0.015625)"/>
      <path id="CMUSerif-Roman-61" d="M 269 608 
Q 269 1152 909 1440 
Q 1293 1626 2086 1670 
L 2086 1907 
Q 2086 2304 1878 2515 
Q 1670 2726 1408 2726 
Q 941 2726 717 2432 
Q 909 2426 976 2330 
Q 1043 2234 1043 2138 
Q 1043 2010 963 1926 
Q 883 1843 749 1843 
Q 621 1843 537 1923 
Q 454 2003 454 2144 
Q 454 2458 736 2662 
Q 1018 2867 1421 2867 
Q 1946 2867 2298 2515 
Q 2406 2406 2460 2265 
Q 2515 2125 2521 2032 
Q 2528 1939 2528 1760 
L 2528 480 
Q 2528 442 2541 381 
Q 2554 320 2611 240 
Q 2669 160 2765 160 
Q 2995 160 2995 570 
L 2995 928 
L 3155 928 
L 3155 570 
Q 3155 230 2976 96 
Q 2797 -38 2630 -38 
Q 2419 -38 2284 118 
Q 2150 275 2131 486 
Q 2035 243 1814 86 
Q 1594 -70 1293 -70 
Q 1062 -70 844 -12 
Q 627 45 448 205 
Q 269 365 269 608 
z
M 762 614 
Q 762 378 931 224 
Q 1101 70 1338 70 
Q 1606 70 1846 278 
Q 2086 486 2086 896 
L 2086 1536 
Q 1376 1510 1069 1228 
Q 762 947 762 614 
z
" transform="scale(0.015625)"/>
      <path id="CMUSerif-Roman-66" d="M 211 2560 
L 211 2758 
L 717 2758 
L 717 3494 
Q 717 3968 1024 4240 
Q 1331 4512 1709 4512 
Q 1958 4512 2121 4377 
Q 2285 4243 2285 4064 
Q 2285 3942 2211 3862 
Q 2138 3782 2003 3782 
Q 1875 3782 1801 3862 
Q 1728 3942 1728 4058 
Q 1728 4262 1920 4326 
Q 1824 4371 1709 4371 
Q 1478 4371 1299 4134 
Q 1120 3898 1120 3501 
L 1120 2758 
L 1869 2758 
L 1869 2560 
L 1139 2560 
L 1139 499 
Q 1139 314 1216 256 
Q 1293 198 1626 198 
L 1760 198 
L 1760 0 
Q 1504 19 947 19 
Q 870 19 748 16 
Q 627 13 467 6 
Q 307 0 218 0 
L 218 198 
Q 557 198 637 240 
Q 717 282 717 486 
L 717 2560 
L 211 2560 
z
" transform="scale(0.015625)"/>
      <path id="CMUSerif-Roman-42" d="M 230 0 
L 230 198 
L 384 198 
Q 730 198 810 256 
Q 890 314 890 499 
L 890 3872 
Q 890 4058 810 4115 
Q 730 4173 384 4173 
L 230 4173 
L 230 4371 
L 2573 4371 
Q 3181 4371 3587 4044 
Q 3994 3718 3994 3290 
Q 3994 2938 3696 2656 
Q 3398 2374 2931 2285 
Q 3462 2227 3814 1907 
Q 4166 1587 4166 1171 
Q 4166 704 3763 352 
Q 3360 0 2739 0 
L 230 0 
z
M 1421 454 
Q 1421 288 1469 243 
Q 1517 198 1734 198 
L 2534 198 
Q 2995 198 3260 499 
Q 3526 800 3526 1177 
Q 3526 1555 3292 1878 
Q 3059 2202 2624 2202 
L 1421 2202 
L 1421 454 
z
M 1421 2342 
L 2349 2342 
Q 2842 2342 3107 2640 
Q 3373 2938 3373 3290 
Q 3373 3603 3161 3888 
Q 2950 4173 2528 4173 
L 1734 4173 
Q 1517 4173 1469 4128 
Q 1421 4083 1421 3917 
L 1421 2342 
z
" transform="scale(0.015625)"/>
      <path id="CMUSerif-Roman-64" d="M 218 1376 
Q 218 1984 643 2406 
Q 1069 2829 1645 2829 
Q 2131 2829 2451 2432 
L 2451 3814 
Q 2451 4051 2368 4112 
Q 2285 4173 1952 4173 
L 1952 4371 
L 2874 4442 
L 2874 557 
Q 2874 320 2957 259 
Q 3040 198 3373 198 
L 3373 0 
L 2432 -70 
L 2432 352 
Q 2099 -70 1574 -70 
Q 1024 -70 621 352 
Q 218 774 218 1376 
z
M 749 1370 
Q 749 774 934 480 
Q 1190 70 1606 70 
Q 2080 70 2362 518 
Q 2432 627 2432 755 
L 2432 2067 
Q 2432 2195 2362 2304 
Q 2099 2688 1670 2688 
Q 1222 2688 947 2278 
Q 749 1971 749 1370 
z
" transform="scale(0.015625)"/>
      <path id="CMUSerif-Roman-79" d="M 122 -794 
Q 122 -659 202 -588 
Q 282 -518 390 -518 
Q 506 -518 582 -592 
Q 659 -666 659 -787 
Q 659 -1024 410 -1056 
Q 531 -1171 710 -1171 
Q 902 -1171 1056 -1030 
Q 1210 -890 1277 -755 
Q 1344 -621 1440 -378 
Q 1530 -186 1600 0 
L 640 2336 
Q 576 2490 480 2525 
Q 384 2560 122 2560 
L 122 2758 
Q 410 2739 742 2739 
Q 941 2739 1440 2758 
L 1440 2560 
Q 1082 2560 1082 2394 
Q 1082 2374 1120 2278 
L 1830 557 
L 2477 2131 
Q 2515 2221 2515 2285 
Q 2515 2547 2214 2560 
L 2214 2758 
Q 2637 2739 2771 2739 
Q 3034 2739 3251 2758 
L 3251 2560 
Q 2822 2560 2656 2150 
L 1530 -582 
Q 1222 -1312 710 -1312 
Q 467 -1312 294 -1161 
Q 122 -1011 122 -794 
z
" transform="scale(0.015625)"/>
      <path id="CMUSerif-Roman-31" d="M 570 3654 
L 570 3853 
Q 1338 3853 1734 4262 
Q 1843 4262 1862 4236 
Q 1882 4211 1882 4096 
L 1882 506 
Q 1882 314 1974 256 
Q 2067 198 2477 198 
L 2682 198 
L 2682 0 
Q 2458 19 1645 19 
Q 832 19 608 0 
L 608 198 
L 813 198 
Q 1216 198 1312 256 
Q 1408 314 1408 506 
L 1408 3821 
Q 1075 3654 570 3654 
z
" transform="scale(0.015625)"/>
      <path id="CMUSerif-Roman-2c" d="M 640 102 
Q 550 205 550 339 
Q 550 474 640 576 
Q 730 678 890 678 
Q 1082 678 1190 496 
Q 1299 314 1299 6 
Q 1299 -326 1164 -633 
Q 1030 -941 899 -1088 
Q 768 -1235 717 -1235 
Q 653 -1235 653 -1165 
Q 653 -1139 698 -1094 
Q 1158 -602 1158 6 
Q 1158 102 1146 102 
L 1133 90 
Q 1024 0 890 0 
Q 730 0 640 102 
z
" transform="scale(0.015625)"/>
      <path id="CMUSerif-Roman-33" d="M 269 864 
Q 269 1056 377 1145 
Q 486 1235 627 1235 
Q 774 1235 880 1139 
Q 986 1043 986 877 
Q 986 698 861 598 
Q 736 499 563 525 
Q 717 269 998 153 
Q 1280 38 1542 38 
Q 1818 38 2042 275 
Q 2266 512 2266 1094 
Q 2266 1587 2074 1872 
Q 1882 2157 1504 2157 
L 1222 2157 
Q 1126 2157 1097 2166 
Q 1069 2176 1069 2227 
Q 1069 2291 1165 2304 
Q 1261 2304 1414 2323 
Q 1786 2336 1984 2656 
Q 2163 2957 2163 3386 
Q 2163 3776 1977 3939 
Q 1792 4102 1549 4102 
Q 1325 4102 1078 4009 
Q 832 3917 698 3706 
Q 1094 3706 1094 3386 
Q 1094 3245 1004 3152 
Q 915 3059 768 3059 
Q 627 3059 534 3148 
Q 442 3238 442 3392 
Q 442 3757 768 4009 
Q 1094 4262 1574 4262 
Q 2048 4262 2400 4012 
Q 2752 3763 2752 3379 
Q 2752 3002 2502 2691 
Q 2253 2381 1856 2253 
Q 2342 2157 2633 1827 
Q 2925 1498 2925 1094 
Q 2925 595 2531 227 
Q 2138 -141 1562 -141 
Q 1030 -141 649 147 
Q 269 435 269 864 
z
" transform="scale(0.015625)"/>
     </defs>
     <use xlink:href="#CMUSerif-Roman-46"/>
     <use xlink:href="#CMUSerif-Roman-69" x="65.199997"/>
     <use xlink:href="#CMUSerif-Roman-67" x="92.899994"/>
     <use xlink:href="#CMUSerif-Roman-75" x="142.899979"/>
     <use xlink:href="#CMUSerif-Roman-72" x="198.399963"/>
     <use xlink:href="#CMUSerif-Roman-65" x="237.499954"/>
     <use xlink:href="#CMUSerif-Roman-20" x="281.899948"/>
     <use xlink:href="#CMUSerif-Roman-32" x="315.199936"/>
     <use xlink:href="#CMUSerif-Roman-62" x="365.199921"/>
     <use xlink:href="#CMUSerif-Roman-3a" x="420.699905"/>
     <use xlink:href="#CMUSerif-Roman-20" x="448.399902"/>
     <use xlink:href="#CMUSerif-Roman-54" x="481.69989"/>
     <use xlink:href="#CMUSerif-Roman-68" x="553.899872"/>
     <use xlink:href="#CMUSerif-Roman-65" x="609.399857"/>
     <use xlink:href="#CMUSerif-Roman-20" x="653.79985"/>
     <use xlink:href="#CMUSerif-Roman-59" x="687.099838"/>
     <use xlink:href="#CMUSerif-Roman-20" x="762.099823"/>
     <use xlink:href="#CMUSerif-Roman-4d" x="795.399811"/>
     <use xlink:href="#CMUSerif-Roman-6f" x="886.999802"/>
     <use xlink:href="#CMUSerif-Roman-6d" x="936.999786"/>
     <use xlink:href="#CMUSerif-Roman-65" x="1020.299774"/>
     <use xlink:href="#CMUSerif-Roman-6e" x="1064.699768"/>
     <use xlink:href="#CMUSerif-Roman-74" x="1120.199753"/>
     <use xlink:href="#CMUSerif-Roman-61" x="1158.999741"/>
     <use xlink:href="#CMUSerif-Roman-20" x="1208.999725"/>
     <use xlink:href="#CMUSerif-Roman-6f" x="1242.299713"/>
     <use xlink:href="#CMUSerif-Roman-66" x="1292.299698"/>
     <use xlink:href="#CMUSerif-Roman-20" x="1322.799683"/>
     <use xlink:href="#CMUSerif-Roman-74" x="1356.09967"/>
     <use xlink:href="#CMUSerif-Roman-68" x="1394.899658"/>
     <use xlink:href="#CMUSerif-Roman-65" x="1450.399643"/>
     <use xlink:href="#CMUSerif-Roman-20" x="1494.799637"/>
     <use xlink:href="#CMUSerif-Roman-42" x="1528.099625"/>
     <use xlink:href="#CMUSerif-Roman-6f" x="1598.899612"/>
     <use xlink:href="#CMUSerif-Roman-64" x="1648.899597"/>
     <use xlink:href="#CMUSerif-Roman-79" x="1704.399582"/>
     <use xlink:href="#CMUSerif-Roman-20" x="1757.099579"/>
     <use xlink:href="#CMUSerif-Roman-31" x="1790.399567"/>
     <use xlink:href="#CMUSerif-Roman-2c" x="1840.399551"/>
     <use xlink:href="#CMUSerif-Roman-20" x="1868.099548"/>
     <use xlink:href="#CMUSerif-Roman-42" x="1901.399536"/>
     <use xlink:href="#CMUSerif-Roman-6f" x="1972.199524"/>
     <use xlink:href="#CMUSerif-Roman-64" x="2022.199509"/>
     <use xlink:href="#CMUSerif-Roman-79" x="2077.699493"/>
     <use xlink:href="#CMUSerif-Roman-20" x="2130.39949"/>
     <use xlink:href="#CMUSerif-Roman-31" x="2163.699478"/>
     <use xlink:href="#CMUSerif-Roman-2c" x="2213.699463"/>
     <use xlink:href="#CMUSerif-Roman-20" x="2241.39946"/>
     <use xlink:href="#CMUSerif-Roman-61" x="2274.699448"/>
     <use xlink:href="#CMUSerif-Roman-6e" x="2324.699432"/>
     <use xlink:href="#CMUSerif-Roman-64" x="2380.199417"/>
     <use xlink:href="#CMUSerif-Roman-20" x="2435.699402"/>
     <use xlink:href="#CMUSerif-Roman-42" x="2468.99939"/>
     <use xlink:href="#CMUSerif-Roman-6f" x="2539.799377"/>
     <use xlink:href="#CMUSerif-Roman-64" x="2589.799362"/>
     <use xlink:href="#CMUSerif-Roman-79" x="2645.299347"/>
     <use xlink:href="#CMUSerif-Roman-20" x="2697.999344"/>
     <use xlink:href="#CMUSerif-Roman-33" x="2731.299332"/>
    </g>
   </g>
   <g id="legend_1">
    <g id="patch_7">
     <path d="M 64.6 108.1845 
L 242.679688 108.1845 
Q 244.679688 108.1845 244.679688 106.1845 
L 244.679688 48.472 
Q 244.679688 46.472 242.679688 46.472 
L 64.6 46.472 
Q 62.6 46.472 62.6 48.472 
L 62.6 106.1845 
Q 62.6 108.1845 64.6 108.1845 
z
" style="fill: #ffffff; opacity: 0.8; stroke: #cccccc; stroke-linejoin: miter"/>
    </g>
    <g id="line2d_18">
     <path d="M 66.6 54.570438 
L 76.6 54.570438 
L 86.6 54.570438 
" style="fill: none; stroke: #1f77b4; stroke-width: 1.5; stroke-linecap: square"/>
    </g>
    <g id="text_17">
     <!-- Y Momentum of the Body 1 -->
     <g transform="translate(94.6 58.070438) scale(0.1 -0.1)">
      <defs>
       <path id="DejaVuSans-59" d="M -13 4666 
L 666 4666 
L 1959 2747 
L 3244 4666 
L 3922 4666 
L 2272 2222 
L 2272 0 
L 1638 0 
L 1638 2222 
L -13 4666 
z
" transform="scale(0.015625)"/>
       <path id="DejaVuSans-20" transform="scale(0.015625)"/>
       <path id="DejaVuSans-4d" d="M 628 4666 
L 1569 4666 
L 2759 1491 
L 3956 4666 
L 4897 4666 
L 4897 0 
L 4281 0 
L 4281 4097 
L 3078 897 
L 2444 897 
L 1241 4097 
L 1241 0 
L 628 0 
L 628 4666 
z
" transform="scale(0.015625)"/>
       <path id="DejaVuSans-6f" d="M 1959 3097 
Q 1497 3097 1228 2736 
Q 959 2375 959 1747 
Q 959 1119 1226 758 
Q 1494 397 1959 397 
Q 2419 397 2687 759 
Q 2956 1122 2956 1747 
Q 2956 2369 2687 2733 
Q 2419 3097 1959 3097 
z
M 1959 3584 
Q 2709 3584 3137 3096 
Q 3566 2609 3566 1747 
Q 3566 888 3137 398 
Q 2709 -91 1959 -91 
Q 1206 -91 779 398 
Q 353 888 353 1747 
Q 353 2609 779 3096 
Q 1206 3584 1959 3584 
z
" transform="scale(0.015625)"/>
       <path id="DejaVuSans-6d" d="M 3328 2828 
Q 3544 3216 3844 3400 
Q 4144 3584 4550 3584 
Q 5097 3584 5394 3201 
Q 5691 2819 5691 2113 
L 5691 0 
L 5113 0 
L 5113 2094 
Q 5113 2597 4934 2840 
Q 4756 3084 4391 3084 
Q 3944 3084 3684 2787 
Q 3425 2491 3425 1978 
L 3425 0 
L 2847 0 
L 2847 2094 
Q 2847 2600 2669 2842 
Q 2491 3084 2119 3084 
Q 1678 3084 1418 2786 
Q 1159 2488 1159 1978 
L 1159 0 
L 581 0 
L 581 3500 
L 1159 3500 
L 1159 2956 
Q 1356 3278 1631 3431 
Q 1906 3584 2284 3584 
Q 2666 3584 2933 3390 
Q 3200 3197 3328 2828 
z
" transform="scale(0.015625)"/>
       <path id="DejaVuSans-65" d="M 3597 1894 
L 3597 1613 
L 953 1613 
Q 991 1019 1311 708 
Q 1631 397 2203 397 
Q 2534 397 2845 478 
Q 3156 559 3463 722 
L 3463 178 
Q 3153 47 2828 -22 
Q 2503 -91 2169 -91 
Q 1331 -91 842 396 
Q 353 884 353 1716 
Q 353 2575 817 3079 
Q 1281 3584 2069 3584 
Q 2775 3584 3186 3129 
Q 3597 2675 3597 1894 
z
M 3022 2063 
Q 3016 2534 2758 2815 
Q 2500 3097 2075 3097 
Q 1594 3097 1305 2825 
Q 1016 2553 972 2059 
L 3022 2063 
z
" transform="scale(0.015625)"/>
       <path id="DejaVuSans-6e" d="M 3513 2113 
L 3513 0 
L 2938 0 
L 2938 2094 
Q 2938 2591 2744 2837 
Q 2550 3084 2163 3084 
Q 1697 3084 1428 2787 
Q 1159 2491 1159 1978 
L 1159 0 
L 581 0 
L 581 3500 
L 1159 3500 
L 1159 2956 
Q 1366 3272 1645 3428 
Q 1925 3584 2291 3584 
Q 2894 3584 3203 3211 
Q 3513 2838 3513 2113 
z
" transform="scale(0.015625)"/>
       <path id="DejaVuSans-74" d="M 1172 4494 
L 1172 3500 
L 2356 3500 
L 2356 3053 
L 1172 3053 
L 1172 1153 
Q 1172 725 1289 603 
Q 1406 481 1766 481 
L 2356 481 
L 2356 0 
L 1766 0 
Q 1100 0 847 248 
Q 594 497 594 1153 
L 594 3053 
L 172 3053 
L 172 3500 
L 594 3500 
L 594 4494 
L 1172 4494 
z
" transform="scale(0.015625)"/>
       <path id="DejaVuSans-75" d="M 544 1381 
L 544 3500 
L 1119 3500 
L 1119 1403 
Q 1119 906 1312 657 
Q 1506 409 1894 409 
Q 2359 409 2629 706 
Q 2900 1003 2900 1516 
L 2900 3500 
L 3475 3500 
L 3475 0 
L 2900 0 
L 2900 538 
Q 2691 219 2414 64 
Q 2138 -91 1772 -91 
Q 1169 -91 856 284 
Q 544 659 544 1381 
z
M 1991 3584 
L 1991 3584 
z
" transform="scale(0.015625)"/>
       <path id="DejaVuSans-66" d="M 2375 4863 
L 2375 4384 
L 1825 4384 
Q 1516 4384 1395 4259 
Q 1275 4134 1275 3809 
L 1275 3500 
L 2222 3500 
L 2222 3053 
L 1275 3053 
L 1275 0 
L 697 0 
L 697 3053 
L 147 3053 
L 147 3500 
L 697 3500 
L 697 3744 
Q 697 4328 969 4595 
Q 1241 4863 1831 4863 
L 2375 4863 
z
" transform="scale(0.015625)"/>
       <path id="DejaVuSans-68" d="M 3513 2113 
L 3513 0 
L 2938 0 
L 2938 2094 
Q 2938 2591 2744 2837 
Q 2550 3084 2163 3084 
Q 1697 3084 1428 2787 
Q 1159 2491 1159 1978 
L 1159 0 
L 581 0 
L 581 4863 
L 1159 4863 
L 1159 2956 
Q 1366 3272 1645 3428 
Q 1925 3584 2291 3584 
Q 2894 3584 3203 3211 
Q 3513 2838 3513 2113 
z
" transform="scale(0.015625)"/>
       <path id="DejaVuSans-42" d="M 1259 2228 
L 1259 519 
L 2272 519 
Q 2781 519 3026 730 
Q 3272 941 3272 1375 
Q 3272 1813 3026 2020 
Q 2781 2228 2272 2228 
L 1259 2228 
z
M 1259 4147 
L 1259 2741 
L 2194 2741 
Q 2656 2741 2882 2914 
Q 3109 3088 3109 3444 
Q 3109 3797 2882 3972 
Q 2656 4147 2194 4147 
L 1259 4147 
z
M 628 4666 
L 2241 4666 
Q 2963 4666 3353 4366 
Q 3744 4066 3744 3513 
Q 3744 3084 3544 2831 
Q 3344 2578 2956 2516 
Q 3422 2416 3680 2098 
Q 3938 1781 3938 1306 
Q 3938 681 3513 340 
Q 3088 0 2303 0 
L 628 0 
L 628 4666 
z
" transform="scale(0.015625)"/>
       <path id="DejaVuSans-64" d="M 2906 2969 
L 2906 4863 
L 3481 4863 
L 3481 0 
L 2906 0 
L 2906 525 
Q 2725 213 2448 61 
Q 2172 -91 1784 -91 
Q 1150 -91 751 415 
Q 353 922 353 1747 
Q 353 2572 751 3078 
Q 1150 3584 1784 3584 
Q 2172 3584 2448 3432 
Q 2725 3281 2906 2969 
z
M 947 1747 
Q 947 1113 1208 752 
Q 1469 391 1925 391 
Q 2381 391 2643 752 
Q 2906 1113 2906 1747 
Q 2906 2381 2643 2742 
Q 2381 3103 1925 3103 
Q 1469 3103 1208 2742 
Q 947 2381 947 1747 
z
" transform="scale(0.015625)"/>
       <path id="DejaVuSans-79" d="M 2059 -325 
Q 1816 -950 1584 -1140 
Q 1353 -1331 966 -1331 
L 506 -1331 
L 506 -850 
L 844 -850 
Q 1081 -850 1212 -737 
Q 1344 -625 1503 -206 
L 1606 56 
L 191 3500 
L 800 3500 
L 1894 763 
L 2988 3500 
L 3597 3500 
L 2059 -325 
z
" transform="scale(0.015625)"/>
      </defs>
      <use xlink:href="#DejaVuSans-59"/>
      <use xlink:href="#DejaVuSans-20" x="61.083984"/>
      <use xlink:href="#DejaVuSans-4d" x="92.871094"/>
      <use xlink:href="#DejaVuSans-6f" x="179.150391"/>
      <use xlink:href="#DejaVuSans-6d" x="240.332031"/>
      <use xlink:href="#DejaVuSans-65" x="337.744141"/>
      <use xlink:href="#DejaVuSans-6e" x="399.267578"/>
      <use xlink:href="#DejaVuSans-74" x="462.646484"/>
      <use xlink:href="#DejaVuSans-75" x="501.855469"/>
      <use xlink:href="#DejaVuSans-6d" x="565.234375"/>
      <use xlink:href="#DejaVuSans-20" x="662.646484"/>
      <use xlink:href="#DejaVuSans-6f" x="694.433594"/>
      <use xlink:href="#DejaVuSans-66" x="755.615234"/>
      <use xlink:href="#DejaVuSans-20" x="790.820312"/>
      <use xlink:href="#DejaVuSans-74" x="822.607422"/>
      <use xlink:href="#DejaVuSans-68" x="861.816406"/>
      <use xlink:href="#DejaVuSans-65" x="925.195312"/>
      <use xlink:href="#DejaVuSans-20" x="986.71875"/>
      <use xlink:href="#DejaVuSans-42" x="1018.505859"/>
      <use xlink:href="#DejaVuSans-6f" x="1087.109375"/>
      <use xlink:href="#DejaVuSans-64" x="1148.291016"/>
      <use xlink:href="#DejaVuSans-79" x="1211.767578"/>
      <use xlink:href="#DejaVuSans-20" x="1270.947266"/>
      <use xlink:href="#DejaVuSans-31" x="1302.734375"/>
     </g>
    </g>
    <g id="line2d_19">
     <path d="M 66.6 69.248563 
L 76.6 69.248563 
L 86.6 69.248563 
" style="fill: none; stroke: #ff7f0e; stroke-width: 1.5; stroke-linecap: square"/>
    </g>
    <g id="text_18">
     <!-- Y Momentum of the Body 2 -->
     <g transform="translate(94.6 72.748563) scale(0.1 -0.1)">
      <use xlink:href="#DejaVuSans-59"/>
      <use xlink:href="#DejaVuSans-20" x="61.083984"/>
      <use xlink:href="#DejaVuSans-4d" x="92.871094"/>
      <use xlink:href="#DejaVuSans-6f" x="179.150391"/>
      <use xlink:href="#DejaVuSans-6d" x="240.332031"/>
      <use xlink:href="#DejaVuSans-65" x="337.744141"/>
      <use xlink:href="#DejaVuSans-6e" x="399.267578"/>
      <use xlink:href="#DejaVuSans-74" x="462.646484"/>
      <use xlink:href="#DejaVuSans-75" x="501.855469"/>
      <use xlink:href="#DejaVuSans-6d" x="565.234375"/>
      <use xlink:href="#DejaVuSans-20" x="662.646484"/>
      <use xlink:href="#DejaVuSans-6f" x="694.433594"/>
      <use xlink:href="#DejaVuSans-66" x="755.615234"/>
      <use xlink:href="#DejaVuSans-20" x="790.820312"/>
      <use xlink:href="#DejaVuSans-74" x="822.607422"/>
      <use xlink:href="#DejaVuSans-68" x="861.816406"/>
      <use xlink:href="#DejaVuSans-65" x="925.195312"/>
      <use xlink:href="#DejaVuSans-20" x="986.71875"/>
      <use xlink:href="#DejaVuSans-42" x="1018.505859"/>
      <use xlink:href="#DejaVuSans-6f" x="1087.109375"/>
      <use xlink:href="#DejaVuSans-64" x="1148.291016"/>
      <use xlink:href="#DejaVuSans-79" x="1211.767578"/>
      <use xlink:href="#DejaVuSans-20" x="1270.947266"/>
      <use xlink:href="#DejaVuSans-32" x="1302.734375"/>
     </g>
    </g>
    <g id="line2d_20">
     <path d="M 66.6 83.926688 
L 76.6 83.926688 
L 86.6 83.926688 
" style="fill: none; stroke: #2ca02c; stroke-width: 1.5; stroke-linecap: square"/>
    </g>
    <g id="text_19">
     <!-- Y Momentum of the Body 3 -->
     <g transform="translate(94.6 87.426688) scale(0.1 -0.1)">
      <defs>
       <path id="DejaVuSans-33" d="M 2597 2516 
Q 3050 2419 3304 2112 
Q 3559 1806 3559 1356 
Q 3559 666 3084 287 
Q 2609 -91 1734 -91 
Q 1441 -91 1130 -33 
Q 819 25 488 141 
L 488 750 
Q 750 597 1062 519 
Q 1375 441 1716 441 
Q 2309 441 2620 675 
Q 2931 909 2931 1356 
Q 2931 1769 2642 2001 
Q 2353 2234 1838 2234 
L 1294 2234 
L 1294 2753 
L 1863 2753 
Q 2328 2753 2575 2939 
Q 2822 3125 2822 3475 
Q 2822 3834 2567 4026 
Q 2313 4219 1838 4219 
Q 1578 4219 1281 4162 
Q 984 4106 628 3988 
L 628 4550 
Q 988 4650 1302 4700 
Q 1616 4750 1894 4750 
Q 2613 4750 3031 4423 
Q 3450 4097 3450 3541 
Q 3450 3153 3228 2886 
Q 3006 2619 2597 2516 
z
" transform="scale(0.015625)"/>
      </defs>
      <use xlink:href="#DejaVuSans-59"/>
      <use xlink:href="#DejaVuSans-20" x="61.083984"/>
      <use xlink:href="#DejaVuSans-4d" x="92.871094"/>
      <use xlink:href="#DejaVuSans-6f" x="179.150391"/>
      <use xlink:href="#DejaVuSans-6d" x="240.332031"/>
      <use xlink:href="#DejaVuSans-65" x="337.744141"/>
      <use xlink:href="#DejaVuSans-6e" x="399.267578"/>
      <use xlink:href="#DejaVuSans-74" x="462.646484"/>
      <use xlink:href="#DejaVuSans-75" x="501.855469"/>
      <use xlink:href="#DejaVuSans-6d" x="565.234375"/>
      <use xlink:href="#DejaVuSans-20" x="662.646484"/>
      <use xlink:href="#DejaVuSans-6f" x="694.433594"/>
      <use xlink:href="#DejaVuSans-66" x="755.615234"/>
      <use xlink:href="#DejaVuSans-20" x="790.820312"/>
      <use xlink:href="#DejaVuSans-74" x="822.607422"/>
      <use xlink:href="#DejaVuSans-68" x="861.816406"/>
      <use xlink:href="#DejaVuSans-65" x="925.195312"/>
      <use xlink:href="#DejaVuSans-20" x="986.71875"/>
      <use xlink:href="#DejaVuSans-42" x="1018.505859"/>
      <use xlink:href="#DejaVuSans-6f" x="1087.109375"/>
      <use xlink:href="#DejaVuSans-64" x="1148.291016"/>
      <use xlink:href="#DejaVuSans-79" x="1211.767578"/>
      <use xlink:href="#DejaVuSans-20" x="1270.947266"/>
      <use xlink:href="#DejaVuSans-33" x="1302.734375"/>
     </g>
    </g>
    <g id="line2d_21">
     <path d="M 66.6 98.604813 
L 76.6 98.604813 
L 86.6 98.604813 
" style="fill: none; stroke: #d62728; stroke-width: 1.5; stroke-linecap: square"/>
    </g>
    <g id="text_20">
     <!-- Total Y Momentum of System -->
     <g transform="translate(94.6 102.104813) scale(0.1 -0.1)">
      <defs>
       <path id="DejaVuSans-54" d="M -19 4666 
L 3928 4666 
L 3928 4134 
L 2272 4134 
L 2272 0 
L 1638 0 
L 1638 4134 
L -19 4134 
L -19 4666 
z
" transform="scale(0.015625)"/>
       <path id="DejaVuSans-61" d="M 2194 1759 
Q 1497 1759 1228 1600 
Q 959 1441 959 1056 
Q 959 750 1161 570 
Q 1363 391 1709 391 
Q 2188 391 2477 730 
Q 2766 1069 2766 1631 
L 2766 1759 
L 2194 1759 
z
M 3341 1997 
L 3341 0 
L 2766 0 
L 2766 531 
Q 2569 213 2275 61 
Q 1981 -91 1556 -91 
Q 1019 -91 701 211 
Q 384 513 384 1019 
Q 384 1609 779 1909 
Q 1175 2209 1959 2209 
L 2766 2209 
L 2766 2266 
Q 2766 2663 2505 2880 
Q 2244 3097 1772 3097 
Q 1472 3097 1187 3025 
Q 903 2953 641 2809 
L 641 3341 
Q 956 3463 1253 3523 
Q 1550 3584 1831 3584 
Q 2591 3584 2966 3190 
Q 3341 2797 3341 1997 
z
" transform="scale(0.015625)"/>
       <path id="DejaVuSans-6c" d="M 603 4863 
L 1178 4863 
L 1178 0 
L 603 0 
L 603 4863 
z
" transform="scale(0.015625)"/>
       <path id="DejaVuSans-53" d="M 3425 4513 
L 3425 3897 
Q 3066 4069 2747 4153 
Q 2428 4238 2131 4238 
Q 1616 4238 1336 4038 
Q 1056 3838 1056 3469 
Q 1056 3159 1242 3001 
Q 1428 2844 1947 2747 
L 2328 2669 
Q 3034 2534 3370 2195 
Q 3706 1856 3706 1288 
Q 3706 609 3251 259 
Q 2797 -91 1919 -91 
Q 1588 -91 1214 -16 
Q 841 59 441 206 
L 441 856 
Q 825 641 1194 531 
Q 1563 422 1919 422 
Q 2459 422 2753 634 
Q 3047 847 3047 1241 
Q 3047 1584 2836 1778 
Q 2625 1972 2144 2069 
L 1759 2144 
Q 1053 2284 737 2584 
Q 422 2884 422 3419 
Q 422 4038 858 4394 
Q 1294 4750 2059 4750 
Q 2388 4750 2728 4690 
Q 3069 4631 3425 4513 
z
" transform="scale(0.015625)"/>
       <path id="DejaVuSans-73" d="M 2834 3397 
L 2834 2853 
Q 2591 2978 2328 3040 
Q 2066 3103 1784 3103 
Q 1356 3103 1142 2972 
Q 928 2841 928 2578 
Q 928 2378 1081 2264 
Q 1234 2150 1697 2047 
L 1894 2003 
Q 2506 1872 2764 1633 
Q 3022 1394 3022 966 
Q 3022 478 2636 193 
Q 2250 -91 1575 -91 
Q 1294 -91 989 -36 
Q 684 19 347 128 
L 347 722 
Q 666 556 975 473 
Q 1284 391 1588 391 
Q 1994 391 2212 530 
Q 2431 669 2431 922 
Q 2431 1156 2273 1281 
Q 2116 1406 1581 1522 
L 1381 1569 
Q 847 1681 609 1914 
Q 372 2147 372 2553 
Q 372 3047 722 3315 
Q 1072 3584 1716 3584 
Q 2034 3584 2315 3537 
Q 2597 3491 2834 3397 
z
" transform="scale(0.015625)"/>
      </defs>
      <use xlink:href="#DejaVuSans-54"/>
      <use xlink:href="#DejaVuSans-6f" x="44.083984"/>
      <use xlink:href="#DejaVuSans-74" x="105.265625"/>
      <use xlink:href="#DejaVuSans-61" x="144.474609"/>
      <use xlink:href="#DejaVuSans-6c" x="205.753906"/>
      <use xlink:href="#DejaVuSans-20" x="233.537109"/>
      <use xlink:href="#DejaVuSans-59" x="265.324219"/>
      <use xlink:href="#DejaVuSans-20" x="326.408203"/>
      <use xlink:href="#DejaVuSans-4d" x="358.195312"/>
      <use xlink:href="#DejaVuSans-6f" x="444.474609"/>
      <use xlink:href="#DejaVuSans-6d" x="505.65625"/>
      <use xlink:href="#DejaVuSans-65" x="603.068359"/>
      <use xlink:href="#DejaVuSans-6e" x="664.591797"/>
      <use xlink:href="#DejaVuSans-74" x="727.970703"/>
      <use xlink:href="#DejaVuSans-75" x="767.179688"/>
      <use xlink:href="#DejaVuSans-6d" x="830.558594"/>
      <use xlink:href="#DejaVuSans-20" x="927.970703"/>
      <use xlink:href="#DejaVuSans-6f" x="959.757812"/>
      <use xlink:href="#DejaVuSans-66" x="1020.939453"/>
      <use xlink:href="#DejaVuSans-20" x="1056.144531"/>
      <use xlink:href="#DejaVuSans-53" x="1087.931641"/>
      <use xlink:href="#DejaVuSans-79" x="1151.408203"/>
      <use xlink:href="#DejaVuSans-73" x="1210.587891"/>
      <use xlink:href="#DejaVuSans-74" x="1262.6875"/>
      <use xlink:href="#DejaVuSans-65" x="1301.896484"/>
      <use xlink:href="#DejaVuSans-6d" x="1363.419922"/>
     </g>
    </g>
   </g>
  </g>
 </g>
 <defs>
  <clipPath id="p274a294fdd">
   <rect x="57.6" y="41.472" width="357.12" height="266.112"/>
  </clipPath>
 </defs>
</svg>
