<?xml version="1.0" encoding="utf-8" standalone="no"?>
<!DOCTYPE svg PUBLIC "-//W3C//DTD SVG 1.1//EN"
  "http://www.w3.org/Graphics/SVG/1.1/DTD/svg11.dtd">
<svg xmlns:xlink="http://www.w3.org/1999/xlink" width="460.8pt" height="345.6pt" viewBox="0 0 460.8 345.6" xmlns="http://www.w3.org/2000/svg" version="1.1">
 <metadata>
  <rdf:RDF xmlns:dc="http://purl.org/dc/elements/1.1/" xmlns:cc="http://creativecommons.org/ns#" xmlns:rdf="http://www.w3.org/1999/02/22-rdf-syntax-ns#">
   <cc:Work>
    <dc:type rdf:resource="http://purl.org/dc/dcmitype/StillImage"/>
    <dc:date>2024-11-29T09:38:41.249846</dc:date>
    <dc:format>image/svg+xml</dc:format>
    <dc:creator>
     <cc:Agent>
      <dc:title>Matplotlib v3.8.4, https://matplotlib.org/</dc:title>
     </cc:Agent>
    </dc:creator>
   </cc:Work>
  </rdf:RDF>
 </metadata>
 <defs>
  <style type="text/css">*{stroke-linejoin: round; stroke-linecap: butt}</style>
 </defs>
 <g id="figure_1">
  <g id="patch_1">
   <path d="M 0 345.6 
L 460.8 345.6 
L 460.8 0 
L 0 0 
z
" style="fill: #ffffff"/>
  </g>
  <g id="axes_1">
   <g id="patch_2">
    <path d="M 57.6 307.584 
L 414.72 307.584 
L 414.72 41.472 
L 57.6 41.472 
z
" style="fill: #ffffff"/>
   </g>
   <g id="matplotlib.axis_1">
    <g id="xtick_1">
     <g id="line2d_1">
      <defs>
       <path id="m6b71828128" d="M 0 0 
L 0 3.5 
" style="stroke: #000000; stroke-width: 0.8"/>
      </defs>
      <g>
       <use xlink:href="#m6b71828128" x="73.832727" y="307.584" style="stroke: #000000; stroke-width: 0.8"/>
      </g>
     </g>
     <g id="text_1">
      <!-- 0.0 -->
      <g transform="translate(65.881165 322.182437) scale(0.1 -0.1)">
       <defs>
        <path id="DejaVuSans-30" d="M 2034 4250 
Q 1547 4250 1301 3770 
Q 1056 3291 1056 2328 
Q 1056 1369 1301 889 
Q 1547 409 2034 409 
Q 2525 409 2770 889 
Q 3016 1369 3016 2328 
Q 3016 3291 2770 3770 
Q 2525 4250 2034 4250 
z
M 2034 4750 
Q 2819 4750 3233 4129 
Q 3647 3509 3647 2328 
Q 3647 1150 3233 529 
Q 2819 -91 2034 -91 
Q 1250 -91 836 529 
Q 422 1150 422 2328 
Q 422 3509 836 4129 
Q 1250 4750 2034 4750 
z
" transform="scale(0.015625)"/>
        <path id="DejaVuSans-2e" d="M 684 794 
L 1344 794 
L 1344 0 
L 684 0 
L 684 794 
z
" transform="scale(0.015625)"/>
       </defs>
       <use xlink:href="#DejaVuSans-30"/>
       <use xlink:href="#DejaVuSans-2e" x="63.623047"/>
       <use xlink:href="#DejaVuSans-30" x="95.410156"/>
      </g>
     </g>
    </g>
    <g id="xtick_2">
     <g id="line2d_2">
      <g>
       <use xlink:href="#m6b71828128" x="120.748124" y="307.584" style="stroke: #000000; stroke-width: 0.8"/>
      </g>
     </g>
     <g id="text_2">
      <!-- 2.5 -->
      <g transform="translate(112.796562 322.182437) scale(0.1 -0.1)">
       <defs>
        <path id="DejaVuSans-32" d="M 1228 531 
L 3431 531 
L 3431 0 
L 469 0 
L 469 531 
Q 828 903 1448 1529 
Q 2069 2156 2228 2338 
Q 2531 2678 2651 2914 
Q 2772 3150 2772 3378 
Q 2772 3750 2511 3984 
Q 2250 4219 1831 4219 
Q 1534 4219 1204 4116 
Q 875 4013 500 3803 
L 500 4441 
Q 881 4594 1212 4672 
Q 1544 4750 1819 4750 
Q 2544 4750 2975 4387 
Q 3406 4025 3406 3419 
Q 3406 3131 3298 2873 
Q 3191 2616 2906 2266 
Q 2828 2175 2409 1742 
Q 1991 1309 1228 531 
z
" transform="scale(0.015625)"/>
        <path id="DejaVuSans-35" d="M 691 4666 
L 3169 4666 
L 3169 4134 
L 1269 4134 
L 1269 2991 
Q 1406 3038 1543 3061 
Q 1681 3084 1819 3084 
Q 2600 3084 3056 2656 
Q 3513 2228 3513 1497 
Q 3513 744 3044 326 
Q 2575 -91 1722 -91 
Q 1428 -91 1123 -41 
Q 819 9 494 109 
L 494 744 
Q 775 591 1075 516 
Q 1375 441 1709 441 
Q 2250 441 2565 725 
Q 2881 1009 2881 1497 
Q 2881 1984 2565 2268 
Q 2250 2553 1709 2553 
Q 1456 2553 1204 2497 
Q 953 2441 691 2322 
L 691 4666 
z
" transform="scale(0.015625)"/>
       </defs>
       <use xlink:href="#DejaVuSans-32"/>
       <use xlink:href="#DejaVuSans-2e" x="63.623047"/>
       <use xlink:href="#DejaVuSans-35" x="95.410156"/>
      </g>
     </g>
    </g>
    <g id="xtick_3">
     <g id="line2d_3">
      <g>
       <use xlink:href="#m6b71828128" x="167.663521" y="307.584" style="stroke: #000000; stroke-width: 0.8"/>
      </g>
     </g>
     <g id="text_3">
      <!-- 5.0 -->
      <g transform="translate(159.711958 322.182437) scale(0.1 -0.1)">
       <use xlink:href="#DejaVuSans-35"/>
       <use xlink:href="#DejaVuSans-2e" x="63.623047"/>
       <use xlink:href="#DejaVuSans-30" x="95.410156"/>
      </g>
     </g>
    </g>
    <g id="xtick_4">
     <g id="line2d_4">
      <g>
       <use xlink:href="#m6b71828128" x="214.578917" y="307.584" style="stroke: #000000; stroke-width: 0.8"/>
      </g>
     </g>
     <g id="text_4">
      <!-- 7.5 -->
      <g transform="translate(206.627355 322.182437) scale(0.1 -0.1)">
       <defs>
        <path id="DejaVuSans-37" d="M 525 4666 
L 3525 4666 
L 3525 4397 
L 1831 0 
L 1172 0 
L 2766 4134 
L 525 4134 
L 525 4666 
z
" transform="scale(0.015625)"/>
       </defs>
       <use xlink:href="#DejaVuSans-37"/>
       <use xlink:href="#DejaVuSans-2e" x="63.623047"/>
       <use xlink:href="#DejaVuSans-35" x="95.410156"/>
      </g>
     </g>
    </g>
    <g id="xtick_5">
     <g id="line2d_5">
      <g>
       <use xlink:href="#m6b71828128" x="261.494314" y="307.584" style="stroke: #000000; stroke-width: 0.8"/>
      </g>
     </g>
     <g id="text_5">
      <!-- 10.0 -->
      <g transform="translate(250.361502 322.182437) scale(0.1 -0.1)">
       <defs>
        <path id="DejaVuSans-31" d="M 794 531 
L 1825 531 
L 1825 4091 
L 703 3866 
L 703 4441 
L 1819 4666 
L 2450 4666 
L 2450 531 
L 3481 531 
L 3481 0 
L 794 0 
L 794 531 
z
" transform="scale(0.015625)"/>
       </defs>
       <use xlink:href="#DejaVuSans-31"/>
       <use xlink:href="#DejaVuSans-30" x="63.623047"/>
       <use xlink:href="#DejaVuSans-2e" x="127.246094"/>
       <use xlink:href="#DejaVuSans-30" x="159.033203"/>
      </g>
     </g>
    </g>
    <g id="xtick_6">
     <g id="line2d_6">
      <g>
       <use xlink:href="#m6b71828128" x="308.409711" y="307.584" style="stroke: #000000; stroke-width: 0.8"/>
      </g>
     </g>
     <g id="text_6">
      <!-- 12.5 -->
      <g transform="translate(297.276898 322.182437) scale(0.1 -0.1)">
       <use xlink:href="#DejaVuSans-31"/>
       <use xlink:href="#DejaVuSans-32" x="63.623047"/>
       <use xlink:href="#DejaVuSans-2e" x="127.246094"/>
       <use xlink:href="#DejaVuSans-35" x="159.033203"/>
      </g>
     </g>
    </g>
    <g id="xtick_7">
     <g id="line2d_7">
      <g>
       <use xlink:href="#m6b71828128" x="355.325108" y="307.584" style="stroke: #000000; stroke-width: 0.8"/>
      </g>
     </g>
     <g id="text_7">
      <!-- 15.0 -->
      <g transform="translate(344.192295 322.182437) scale(0.1 -0.1)">
       <use xlink:href="#DejaVuSans-31"/>
       <use xlink:href="#DejaVuSans-35" x="63.623047"/>
       <use xlink:href="#DejaVuSans-2e" x="127.246094"/>
       <use xlink:href="#DejaVuSans-30" x="159.033203"/>
      </g>
     </g>
    </g>
    <g id="xtick_8">
     <g id="line2d_8">
      <g>
       <use xlink:href="#m6b71828128" x="402.240504" y="307.584" style="stroke: #000000; stroke-width: 0.8"/>
      </g>
     </g>
     <g id="text_8">
      <!-- 17.5 -->
      <g transform="translate(391.107692 322.182437) scale(0.1 -0.1)">
       <use xlink:href="#DejaVuSans-31"/>
       <use xlink:href="#DejaVuSans-37" x="63.623047"/>
       <use xlink:href="#DejaVuSans-2e" x="127.246094"/>
       <use xlink:href="#DejaVuSans-35" x="159.033203"/>
      </g>
     </g>
    </g>
    <g id="text_9">
     <!-- Time (s) -->
     <g transform="translate(217.264688 335.762125) scale(0.1 -0.1)">
      <defs>
       <path id="CMUSerif-Roman-54" d="M 230 2893 
L 352 4333 
L 4262 4333 
L 4384 2893 
L 4224 2893 
Q 4198 3181 4176 3347 
Q 4154 3514 4099 3670 
Q 4045 3827 3977 3904 
Q 3910 3981 3782 4041 
Q 3654 4102 3488 4118 
Q 3322 4134 3072 4134 
Q 2778 4134 2707 4122 
Q 2630 4102 2611 4048 
Q 2592 3994 2592 3878 
L 2592 506 
Q 2592 378 2617 326 
Q 2643 275 2790 236 
Q 2938 198 3264 198 
L 3520 198 
L 3520 0 
Q 3258 19 2304 19 
Q 1357 19 1094 0 
L 1094 198 
L 1350 198 
Q 1677 198 1824 236 
Q 1971 275 1996 326 
Q 2022 378 2022 506 
L 2022 3878 
Q 2022 3968 2016 4006 
Q 2010 4045 1981 4077 
Q 1952 4109 1888 4121 
Q 1824 4134 1542 4134 
Q 1293 4134 1126 4118 
Q 960 4102 832 4041 
Q 704 3981 637 3904 
Q 570 3827 515 3670 
Q 461 3514 438 3347 
Q 416 3181 390 2893 
L 230 2893 
z
" transform="scale(0.015625)"/>
       <path id="CMUSerif-Roman-69" d="M 211 0 
L 211 198 
Q 550 198 630 240 
Q 710 282 710 486 
L 710 2208 
Q 710 2445 630 2502 
Q 550 2560 237 2560 
L 237 2758 
L 1133 2829 
L 1133 480 
Q 1133 288 1200 243 
Q 1267 198 1581 198 
L 1581 0 
Q 928 19 915 19 
Q 826 19 211 0 
z
M 480 3942 
Q 480 4070 579 4176 
Q 678 4282 819 4282 
Q 960 4282 1059 4186 
Q 1158 4090 1158 3942 
Q 1158 3795 1059 3699 
Q 960 3603 819 3603 
Q 672 3603 576 3705 
Q 480 3808 480 3942 
z
" transform="scale(0.015625)"/>
       <path id="CMUSerif-Roman-6d" d="M 205 0 
L 205 198 
Q 544 198 624 240 
Q 704 282 704 486 
L 704 2202 
Q 704 2438 621 2499 
Q 538 2560 205 2560 
L 205 2758 
L 1107 2829 
L 1107 2157 
Q 1408 2829 2054 2829 
Q 2803 2829 2906 2202 
Q 3014 2445 3244 2637 
Q 3475 2829 3834 2829 
Q 4314 2829 4506 2592 
Q 4646 2432 4675 2253 
Q 4704 2074 4704 1613 
L 4704 390 
Q 4710 256 4812 227 
Q 4915 198 5203 198 
L 5203 0 
Q 4550 19 4486 19 
Q 4435 19 3763 0 
L 3763 198 
Q 4102 198 4182 240 
Q 4262 282 4262 486 
L 4262 1978 
Q 4262 2304 4163 2496 
Q 4064 2688 3789 2688 
Q 3456 2688 3190 2409 
Q 2925 2131 2925 1664 
L 2925 486 
Q 2925 282 3005 240 
Q 3085 198 3424 198 
L 3424 0 
Q 2771 19 2707 19 
Q 2656 19 1984 0 
L 1984 198 
Q 2323 198 2403 240 
Q 2483 282 2483 486 
L 2483 1978 
Q 2483 2304 2384 2496 
Q 2285 2688 2010 2688 
Q 1677 2688 1411 2409 
Q 1146 2131 1146 1664 
L 1146 486 
Q 1146 282 1226 240 
Q 1306 198 1645 198 
L 1645 0 
Q 992 19 928 19 
Q 877 19 205 0 
z
" transform="scale(0.015625)"/>
       <path id="CMUSerif-Roman-65" d="M 179 1408 
Q 179 2010 566 2438 
Q 954 2867 1510 2867 
Q 2074 2867 2365 2502 
Q 2656 2138 2656 1613 
Q 2656 1517 2630 1497 
Q 2605 1478 2496 1478 
L 710 1478 
Q 710 826 902 518 
Q 1171 90 1626 90 
Q 1690 90 1763 102 
Q 1837 115 1990 169 
Q 2144 224 2278 371 
Q 2413 518 2490 749 
Q 2509 838 2573 838 
Q 2656 838 2656 762 
Q 2656 704 2595 579 
Q 2534 454 2419 304 
Q 2304 154 2080 42 
Q 1856 -70 1587 -70 
Q 1024 -70 601 355 
Q 179 781 179 1408 
z
M 717 1613 
L 2234 1613 
Q 2234 1747 2211 1897 
Q 2189 2048 2121 2256 
Q 2054 2464 1897 2595 
Q 1741 2726 1510 2726 
Q 1408 2726 1296 2681 
Q 1184 2637 1049 2531 
Q 915 2426 822 2186 
Q 730 1946 717 1613 
z
" transform="scale(0.015625)"/>
       <path id="CMUSerif-Roman-20" transform="scale(0.015625)"/>
       <path id="CMUSerif-Roman-28" d="M 634 1600 
Q 634 2682 1037 3552 
Q 1210 3917 1450 4224 
Q 1690 4531 1850 4665 
Q 2010 4800 2054 4800 
Q 2118 4800 2118 4736 
Q 2118 4704 2035 4627 
Q 1005 3578 1005 1600 
Q 1005 -384 2010 -1395 
Q 2118 -1504 2118 -1536 
Q 2118 -1600 2054 -1600 
Q 2010 -1600 1856 -1472 
Q 1702 -1344 1465 -1049 
Q 1229 -755 1056 -397 
Q 634 474 634 1600 
z
" transform="scale(0.015625)"/>
       <path id="CMUSerif-Roman-73" d="M 211 83 
L 211 928 
Q 211 998 214 1024 
Q 218 1050 237 1069 
Q 256 1088 294 1088 
Q 339 1088 355 1069 
Q 371 1050 384 979 
Q 480 538 688 304 
Q 896 70 1274 70 
Q 1632 70 1814 230 
Q 1997 390 1997 653 
Q 1997 1120 1331 1242 
Q 947 1318 787 1369 
Q 627 1421 486 1536 
Q 211 1760 211 2080 
Q 211 2400 454 2633 
Q 698 2867 1235 2867 
Q 1594 2867 1837 2688 
Q 1907 2746 1946 2790 
Q 2029 2867 2074 2867 
Q 2125 2867 2134 2835 
Q 2144 2803 2144 2714 
L 2144 2067 
Q 2144 1997 2141 1971 
Q 2138 1946 2118 1930 
Q 2099 1914 2061 1914 
Q 1990 1914 1984 1971 
Q 1933 2746 1235 2746 
Q 858 2746 688 2602 
Q 518 2458 518 2259 
Q 518 2150 569 2067 
Q 621 1984 688 1936 
Q 755 1888 880 1843 
Q 1005 1798 1081 1782 
Q 1158 1766 1306 1734 
Q 1818 1638 2035 1427 
Q 2304 1158 2304 819 
Q 2304 442 2048 186 
Q 1792 -70 1274 -70 
Q 858 -70 570 205 
Q 531 166 502 134 
Q 474 102 464 89 
Q 454 77 451 70 
Q 448 64 442 58 
Q 314 -70 282 -70 
Q 230 -70 220 -38 
Q 211 -6 211 83 
z
" transform="scale(0.015625)"/>
       <path id="CMUSerif-Roman-29" d="M 365 -1536 
Q 365 -1504 448 -1427 
Q 1478 -378 1478 1600 
Q 1478 3584 486 4589 
Q 365 4704 365 4736 
Q 365 4800 429 4800 
Q 474 4800 627 4672 
Q 781 4544 1017 4249 
Q 1254 3955 1427 3597 
Q 1850 2726 1850 1600 
Q 1850 518 1446 -352 
Q 1274 -717 1034 -1024 
Q 794 -1331 634 -1465 
Q 474 -1600 429 -1600 
Q 365 -1600 365 -1536 
z
" transform="scale(0.015625)"/>
      </defs>
      <use xlink:href="#CMUSerif-Roman-54"/>
      <use xlink:href="#CMUSerif-Roman-69" x="72.199982"/>
      <use xlink:href="#CMUSerif-Roman-6d" x="99.899979"/>
      <use xlink:href="#CMUSerif-Roman-65" x="183.199966"/>
      <use xlink:href="#CMUSerif-Roman-20" x="227.59996"/>
      <use xlink:href="#CMUSerif-Roman-28" x="260.899948"/>
      <use xlink:href="#CMUSerif-Roman-73" x="299.699936"/>
      <use xlink:href="#CMUSerif-Roman-29" x="339.09993"/>
     </g>
    </g>
   </g>
   <g id="matplotlib.axis_2">
    <g id="ytick_1">
     <g id="line2d_9">
      <defs>
       <path id="m76413cccae" d="M 0 0 
L -3.5 0 
" style="stroke: #000000; stroke-width: 0.8"/>
      </defs>
      <g>
       <use xlink:href="#m76413cccae" x="57.6" y="307.246604" style="stroke: #000000; stroke-width: 0.8"/>
      </g>
     </g>
     <g id="text_10">
      <!-- −10.0 -->
      <g transform="translate(19.954687 311.045823) scale(0.1 -0.1)">
       <defs>
        <path id="DejaVuSans-2212" d="M 678 2272 
L 4684 2272 
L 4684 1741 
L 678 1741 
L 678 2272 
z
" transform="scale(0.015625)"/>
       </defs>
       <use xlink:href="#DejaVuSans-2212"/>
       <use xlink:href="#DejaVuSans-31" x="83.789062"/>
       <use xlink:href="#DejaVuSans-30" x="147.412109"/>
       <use xlink:href="#DejaVuSans-2e" x="211.035156"/>
       <use xlink:href="#DejaVuSans-30" x="242.822266"/>
      </g>
     </g>
    </g>
    <g id="ytick_2">
     <g id="line2d_10">
      <g>
       <use xlink:href="#m76413cccae" x="57.6" y="273.440047" style="stroke: #000000; stroke-width: 0.8"/>
      </g>
     </g>
     <g id="text_11">
      <!-- −7.5 -->
      <g transform="translate(26.317187 277.239265) scale(0.1 -0.1)">
       <use xlink:href="#DejaVuSans-2212"/>
       <use xlink:href="#DejaVuSans-37" x="83.789062"/>
       <use xlink:href="#DejaVuSans-2e" x="147.412109"/>
       <use xlink:href="#DejaVuSans-35" x="179.199219"/>
      </g>
     </g>
    </g>
    <g id="ytick_3">
     <g id="line2d_11">
      <g>
       <use xlink:href="#m76413cccae" x="57.6" y="239.633489" style="stroke: #000000; stroke-width: 0.8"/>
      </g>
     </g>
     <g id="text_12">
      <!-- −5.0 -->
      <g transform="translate(26.317187 243.432708) scale(0.1 -0.1)">
       <use xlink:href="#DejaVuSans-2212"/>
       <use xlink:href="#DejaVuSans-35" x="83.789062"/>
       <use xlink:href="#DejaVuSans-2e" x="147.412109"/>
       <use xlink:href="#DejaVuSans-30" x="179.199219"/>
      </g>
     </g>
    </g>
    <g id="ytick_4">
     <g id="line2d_12">
      <g>
       <use xlink:href="#m76413cccae" x="57.6" y="205.826931" style="stroke: #000000; stroke-width: 0.8"/>
      </g>
     </g>
     <g id="text_13">
      <!-- −2.5 -->
      <g transform="translate(26.317187 209.62615) scale(0.1 -0.1)">
       <use xlink:href="#DejaVuSans-2212"/>
       <use xlink:href="#DejaVuSans-32" x="83.789062"/>
       <use xlink:href="#DejaVuSans-2e" x="147.412109"/>
       <use xlink:href="#DejaVuSans-35" x="179.199219"/>
      </g>
     </g>
    </g>
    <g id="ytick_5">
     <g id="line2d_13">
      <g>
       <use xlink:href="#m76413cccae" x="57.6" y="172.020374" style="stroke: #000000; stroke-width: 0.8"/>
      </g>
     </g>
     <g id="text_14">
      <!-- 0.0 -->
      <g transform="translate(34.696875 175.819593) scale(0.1 -0.1)">
       <use xlink:href="#DejaVuSans-30"/>
       <use xlink:href="#DejaVuSans-2e" x="63.623047"/>
       <use xlink:href="#DejaVuSans-30" x="95.410156"/>
      </g>
     </g>
    </g>
    <g id="ytick_6">
     <g id="line2d_14">
      <g>
       <use xlink:href="#m76413cccae" x="57.6" y="138.213816" style="stroke: #000000; stroke-width: 0.8"/>
      </g>
     </g>
     <g id="text_15">
      <!-- 2.5 -->
      <g transform="translate(34.696875 142.013035) scale(0.1 -0.1)">
       <use xlink:href="#DejaVuSans-32"/>
       <use xlink:href="#DejaVuSans-2e" x="63.623047"/>
       <use xlink:href="#DejaVuSans-35" x="95.410156"/>
      </g>
     </g>
    </g>
    <g id="ytick_7">
     <g id="line2d_15">
      <g>
       <use xlink:href="#m76413cccae" x="57.6" y="104.407259" style="stroke: #000000; stroke-width: 0.8"/>
      </g>
     </g>
     <g id="text_16">
      <!-- 5.0 -->
      <g transform="translate(34.696875 108.206478) scale(0.1 -0.1)">
       <use xlink:href="#DejaVuSans-35"/>
       <use xlink:href="#DejaVuSans-2e" x="63.623047"/>
       <use xlink:href="#DejaVuSans-30" x="95.410156"/>
      </g>
     </g>
    </g>
    <g id="ytick_8">
     <g id="line2d_16">
      <g>
       <use xlink:href="#m76413cccae" x="57.6" y="70.600701" style="stroke: #000000; stroke-width: 0.8"/>
      </g>
     </g>
     <g id="text_17">
      <!-- 7.5 -->
      <g transform="translate(34.696875 74.39992) scale(0.1 -0.1)">
       <use xlink:href="#DejaVuSans-37"/>
       <use xlink:href="#DejaVuSans-2e" x="63.623047"/>
       <use xlink:href="#DejaVuSans-35" x="95.410156"/>
      </g>
     </g>
    </g>
    <g id="text_18">
     <!-- Momentum (kgm/s) -->
     <g transform="translate(13.454687 218.962375) rotate(-90) scale(0.1 -0.1)">
      <defs>
       <path id="CMUSerif-Roman-4d" d="M 237 0 
L 237 198 
Q 467 198 614 243 
Q 762 288 816 374 
Q 870 461 883 518 
Q 896 576 896 672 
L 896 3872 
Q 896 4058 816 4115 
Q 736 4173 390 4173 
L 237 4173 
L 237 4371 
L 1318 4371 
Q 1434 4371 1466 4352 
Q 1498 4333 1542 4230 
L 2931 646 
L 4333 4250 
Q 4365 4339 4393 4355 
Q 4422 4371 4544 4371 
L 5626 4371 
L 5626 4173 
L 5472 4173 
Q 5126 4173 5046 4115 
Q 4966 4058 4966 3872 
L 4966 499 
Q 4966 314 5046 256 
Q 5126 198 5472 198 
L 5626 198 
L 5626 0 
Q 5389 19 4710 19 
Q 4026 19 3789 0 
L 3789 198 
L 3942 198 
Q 4288 198 4368 256 
Q 4448 314 4448 499 
L 4448 4173 
L 4442 4173 
L 2867 122 
Q 2822 0 2752 0 
Q 2675 0 2624 141 
L 1082 4122 
L 1075 4122 
L 1075 672 
Q 1075 576 1088 518 
Q 1101 461 1155 374 
Q 1210 288 1357 243 
Q 1504 198 1734 198 
L 1734 0 
Q 1062 19 985 19 
Q 909 19 237 0 
z
" transform="scale(0.015625)"/>
       <path id="CMUSerif-Roman-6f" d="M 601 346 
Q 179 762 179 1370 
Q 179 1978 592 2422 
Q 1005 2867 1600 2867 
Q 2182 2867 2598 2425 
Q 3014 1984 3014 1370 
Q 3014 768 2595 349 
Q 2176 -70 1594 -70 
Q 1024 -70 601 346 
z
M 710 1421 
Q 710 800 870 518 
Q 1120 90 1600 90 
Q 1837 90 2035 218 
Q 2234 346 2342 563 
Q 2483 845 2483 1421 
Q 2483 2035 2317 2310 
Q 2067 2726 1594 2726 
Q 1389 2726 1187 2617 
Q 986 2509 864 2298 
Q 710 2016 710 1421 
z
" transform="scale(0.015625)"/>
       <path id="CMUSerif-Roman-6e" d="M 205 0 
L 205 198 
Q 544 198 624 240 
Q 704 282 704 486 
L 704 2202 
Q 704 2438 621 2499 
Q 538 2560 205 2560 
L 205 2758 
L 1107 2829 
L 1107 2157 
Q 1408 2829 2054 2829 
Q 2534 2829 2726 2592 
Q 2867 2432 2896 2253 
Q 2925 2074 2925 1613 
L 2925 390 
Q 2931 256 3033 227 
Q 3136 198 3424 198 
L 3424 0 
Q 2771 19 2707 19 
Q 2656 19 1984 0 
L 1984 198 
Q 2323 198 2403 240 
Q 2483 282 2483 486 
L 2483 1978 
Q 2483 2304 2384 2496 
Q 2285 2688 2010 2688 
Q 1677 2688 1411 2409 
Q 1146 2131 1146 1664 
L 1146 486 
Q 1146 282 1226 240 
Q 1306 198 1645 198 
L 1645 0 
Q 992 19 928 19 
Q 877 19 205 0 
z
" transform="scale(0.015625)"/>
       <path id="CMUSerif-Roman-74" d="M 122 2560 
L 122 2701 
Q 416 2714 611 2922 
Q 806 3130 873 3386 
Q 941 3642 947 3936 
L 1107 3936 
L 1107 2758 
L 2022 2758 
L 2022 2560 
L 1107 2560 
L 1107 781 
Q 1107 90 1536 90 
Q 1722 90 1843 278 
Q 1965 467 1965 806 
L 1965 1158 
L 2125 1158 
L 2125 794 
Q 2125 448 1965 189 
Q 1805 -70 1491 -70 
Q 1376 -70 1261 -41 
Q 1146 -13 998 64 
Q 851 141 758 329 
Q 666 518 666 794 
L 666 2560 
L 122 2560 
z
" transform="scale(0.015625)"/>
       <path id="CMUSerif-Roman-75" d="M 205 2560 
L 205 2758 
L 1146 2829 
L 1146 704 
Q 1146 550 1158 460 
Q 1171 371 1222 268 
Q 1274 166 1395 118 
Q 1517 70 1709 70 
Q 2054 70 2268 355 
Q 2483 640 2483 1062 
L 2483 2202 
Q 2483 2438 2400 2499 
Q 2317 2560 1984 2560 
L 1984 2758 
L 2925 2829 
L 2925 557 
Q 2925 320 3008 259 
Q 3091 198 3424 198 
L 3424 0 
L 2502 -70 
L 2502 506 
Q 2234 -70 1677 -70 
Q 1395 -70 1203 0 
Q 1011 70 915 160 
Q 819 250 768 422 
Q 717 595 710 700 
Q 704 806 704 1011 
L 704 1971 
Q 704 2406 640 2483 
Q 576 2560 205 2560 
z
" transform="scale(0.015625)"/>
       <path id="CMUSerif-Roman-6b" d="M 179 0 
L 179 198 
Q 518 198 598 240 
Q 678 282 678 486 
L 678 3814 
Q 678 4051 595 4112 
Q 512 4173 179 4173 
L 179 4371 
L 1101 4442 
L 1101 1370 
L 2003 2150 
Q 2144 2272 2144 2400 
Q 2144 2547 1958 2560 
L 1958 2758 
Q 2227 2739 2675 2739 
Q 2938 2739 3123 2758 
L 3123 2560 
Q 2720 2541 2317 2214 
Q 2227 2144 2012 1958 
Q 1798 1773 1798 1754 
Q 1798 1747 1804 1731 
Q 1811 1715 1824 1702 
Q 1837 1690 1837 1683 
L 2650 538 
Q 2816 307 2937 252 
Q 3059 198 3270 198 
L 3270 0 
Q 2995 19 2714 19 
Q 2560 19 2022 0 
L 2022 198 
Q 2253 198 2253 346 
Q 2253 448 1734 1165 
Q 1696 1216 1613 1325 
Q 1536 1440 1491 1498 
L 1082 1146 
L 1082 486 
Q 1082 282 1162 240 
Q 1242 198 1581 198 
L 1581 0 
Q 1197 19 877 19 
Q 813 19 179 0 
z
" transform="scale(0.015625)"/>
       <path id="CMUSerif-Roman-67" d="M 179 -506 
Q 179 -301 336 -121 
Q 493 58 768 134 
Q 486 314 486 704 
Q 486 1005 685 1235 
Q 384 1485 384 1894 
Q 384 2272 685 2550 
Q 986 2829 1421 2829 
Q 1805 2829 2099 2598 
Q 2406 2899 2778 2899 
Q 2944 2899 3024 2796 
Q 3104 2694 3104 2586 
Q 3104 2490 3043 2442 
Q 2982 2394 2918 2394 
Q 2842 2394 2787 2445 
Q 2733 2496 2733 2579 
Q 2733 2714 2835 2752 
Q 2816 2758 2771 2758 
Q 2458 2758 2195 2509 
Q 2458 2266 2458 1888 
Q 2458 1510 2157 1232 
Q 1856 954 1421 954 
Q 1062 954 787 1152 
Q 678 1024 678 851 
Q 678 691 774 566 
Q 870 442 1018 422 
Q 1062 416 1498 416 
Q 1754 416 1894 409 
Q 2035 403 2236 361 
Q 2438 320 2598 237 
Q 3014 6 3014 -493 
Q 3014 -858 2595 -1088 
Q 2176 -1318 1594 -1318 
Q 1005 -1318 592 -1084 
Q 179 -851 179 -506 
z
M 512 -506 
Q 512 -768 822 -969 
Q 1133 -1171 1600 -1171 
Q 2061 -1171 2371 -972 
Q 2682 -774 2682 -506 
Q 2682 -314 2573 -192 
Q 2464 -70 2240 -22 
Q 2016 26 1859 35 
Q 1702 45 1414 45 
L 1037 45 
Q 819 32 665 -128 
Q 512 -288 512 -506 
z
M 864 1888 
Q 864 1101 1421 1101 
Q 1702 1101 1875 1357 
Q 1978 1530 1978 1894 
Q 1978 2682 1421 2682 
Q 1139 2682 966 2426 
Q 864 2253 864 1888 
z
" transform="scale(0.015625)"/>
       <path id="CMUSerif-Roman-2f" d="M 365 -1510 
Q 365 -1478 390 -1408 
L 2650 4627 
Q 2650 4634 2666 4669 
Q 2682 4704 2691 4726 
Q 2701 4749 2720 4768 
Q 2739 4787 2765 4787 
Q 2829 4787 2829 4710 
Q 2829 4704 2810 4627 
L 544 -1414 
Q 506 -1523 483 -1555 
Q 461 -1587 422 -1587 
Q 365 -1587 365 -1510 
z
" transform="scale(0.015625)"/>
      </defs>
      <use xlink:href="#CMUSerif-Roman-4d"/>
      <use xlink:href="#CMUSerif-Roman-6f" x="91.599991"/>
      <use xlink:href="#CMUSerif-Roman-6d" x="141.599976"/>
      <use xlink:href="#CMUSerif-Roman-65" x="224.899963"/>
      <use xlink:href="#CMUSerif-Roman-6e" x="269.299957"/>
      <use xlink:href="#CMUSerif-Roman-74" x="324.799942"/>
      <use xlink:href="#CMUSerif-Roman-75" x="363.59993"/>
      <use xlink:href="#CMUSerif-Roman-6d" x="419.099915"/>
      <use xlink:href="#CMUSerif-Roman-20" x="502.399902"/>
      <use xlink:href="#CMUSerif-Roman-28" x="535.69989"/>
      <use xlink:href="#CMUSerif-Roman-6b" x="574.499878"/>
      <use xlink:href="#CMUSerif-Roman-67" x="627.199875"/>
      <use xlink:href="#CMUSerif-Roman-6d" x="677.19986"/>
      <use xlink:href="#CMUSerif-Roman-2f" x="760.499847"/>
      <use xlink:href="#CMUSerif-Roman-73" x="810.499832"/>
      <use xlink:href="#CMUSerif-Roman-29" x="849.899826"/>
     </g>
    </g>
   </g>
   <g id="line2d_17">
    <path d="M 73.832727 165.701864 
L 76.816547 163.301718 
L 80.419649 160.435301 
L 82.033539 159.446678 
L 83.384702 158.873108 
L 84.660801 158.570471 
L 85.993198 158.486801 
L 87.569555 158.621434 
L 93.293234 159.32572 
L 94.756994 159.154347 
L 96.126924 158.772099 
L 97.51562 158.148917 
L 99.035678 157.209999 
L 102.863975 154.686461 
L 103.633387 154.534252 
L 104.308969 154.62244 
L 104.965785 154.935612 
L 105.678899 155.533978 
L 106.523376 156.552645 
L 107.686878 158.341289 
L 111.571472 164.569082 
L 113.129064 166.508841 
L 114.705421 168.12052 
L 116.413141 169.547437 
L 118.32729 170.853264 
L 120.560462 172.102453 
L 123.319088 173.382007 
L 127.128618 174.885402 
L 136.943319 178.654506 
L 139.570581 179.962334 
L 141.57856 181.203347 
L 143.19245 182.458916 
L 144.506081 183.75737 
L 145.613284 185.158238 
L 146.589125 186.756325 
L 147.471134 188.64475 
L 148.390676 191.183915 
L 149.066257 192.877673 
L 149.253919 192.937086 
L 149.385282 192.693864 
L 149.554178 191.835877 
L 149.779372 189.286473 
L 150.098396 182.429005 
L 150.792744 167.0478 
L 151.186833 163.234829 
L 151.562157 161.529283 
L 151.93748 160.738198 
L 152.331569 160.397529 
L 152.763191 160.317244 
L 153.363708 160.451339 
L 154.414613 160.952041 
L 163.065812 165.550631 
L 170.121888 168.803271 
L 182.263592 174.421401 
L 189.150772 177.561491 
L 193.823546 179.404437 
L 197.539245 180.961342 
L 203.732078 183.70361 
L 204.595321 183.738324 
L 205.327201 183.546976 
L 206.002783 183.135366 
L 206.697131 182.440164 
L 207.48531 181.314019 
L 208.554981 179.350594 
L 210.694323 175.367319 
L 211.651397 174.094303 
L 212.495874 173.323928 
L 213.302819 172.882786 
L 214.090997 172.70192 
L 214.916708 172.7425 
L 215.83625 173.018519 
L 216.943453 173.596911 
L 218.632408 174.76866 
L 220.959411 176.338756 
L 222.329341 176.984977 
L 223.624206 177.350529 
L 224.994136 177.502085 
L 226.589259 177.445666 
L 228.709835 177.130991 
L 233.044818 176.201023 
L 239.256416 174.955782 
L 247.701188 173.269491 
L 252.655453 172.024315 
L 257.985043 170.448803 
L 264.159109 168.385597 
L 270.295643 166.109289 
L 274.480496 164.338883 
L 278.083599 162.560293 
L 279.866384 161.783483 
L 280.729627 161.638638 
L 281.367676 161.754568 
L 281.911895 162.079088 
L 282.47488 162.691112 
L 283.112929 163.750932 
L 283.976172 165.681778 
L 285.946619 170.209202 
L 286.884927 171.7344 
L 287.804469 172.813584 
L 288.780309 173.620563 
L 289.887512 174.246338 
L 291.21991 174.73882 
L 292.965162 175.133762 
L 295.461061 175.451624 
L 300.040004 175.771055 
L 305.369593 175.970768 
L 306.270369 175.792139 
L 306.795821 175.475143 
L 307.189911 174.976205 
L 307.546468 174.124747 
L 307.884259 172.695098 
L 308.372179 169.436333 
L 308.8038 167.131163 
L 309.085293 166.581359 
L 309.329253 166.502276 
L 309.667044 166.667593 
L 312.219241 168.392766 
L 313.664235 168.911765 
L 315.634682 169.368384 
L 318.505904 169.788508 
L 323.009782 170.202092 
L 331.154295 170.694696 
L 346.223521 171.60171 
L 359.022041 172.788926 
L 363.525919 173.445877 
L 366.528504 174.096167 
L 368.574016 174.753259 
L 370.01901 175.441468 
L 371.051149 176.172874 
L 371.801795 176.967628 
L 372.383546 177.90334 
L 372.8527 179.097554 
L 373.228023 180.69317 
L 373.565814 183.223212 
L 373.753476 184.60687 
L 373.791008 184.432252 
L 373.866073 182.599667 
L 374.31646 166.741872 
L 374.541654 166.072334 
L 374.748082 166.029209 
L 375.085873 166.257964 
L 380.509293 171.235067 
L 381.522665 172.540081 
L 382.310844 173.920978 
L 382.948893 175.490588 
L 383.493112 177.433706 
L 383.962266 179.964089 
L 384.375121 183.493584 
L 384.806743 188.378292 
L 384.863042 187.842108 
L 384.975638 182.456891 
L 385.257131 168.798832 
L 385.40726 167.951818 
L 385.426026 167.956347 
L 385.519857 168.184683 
L 385.726285 169.49482 
L 385.970245 172.497065 
L 386.157906 177.77192 
L 386.308036 189.872104 
L 386.439399 202.356775 
L 386.495697 200.66327 
L 386.833488 188.647315 
L 387.171279 184.434968 
L 388.24095 174.586766 
L 388.578741 166.799758 
L 388.897766 154.075165 
L 389.254323 129.428957 
L 389.441984 120.575021 
L 389.46075 120.80811 
L 389.554581 125.958378 
L 390.267695 182.245753 
L 390.530421 186.396731 
L 390.624252 186.628986 
L 390.661785 186.560219 
L 390.774382 185.811476 
L 390.962043 182.661094 
L 391.187237 174.817324 
L 391.431197 157.267321 
L 391.731456 120.522391 
L 391.80652 126.703756 
L 392.219376 205.594795 
L 392.275674 204.200683 
L 392.369505 191.756173 
L 392.482102 142.860488 
L 392.5384 103.448675 
L 392.557167 118.919129 
L 392.575933 295.488 
L 392.669764 286.463046 
L 392.707296 286.394204 
L 392.763594 286.486813 
L 392.988788 286.761994 
L 393.195216 286.562444 
L 393.833265 285.922202 
L 394.508847 285.606872 
L 395.597284 285.376901 
L 397.661562 285.204755 
L 398.487273 285.169064 
L 398.487273 285.169064 
" clip-path="url(#pe3eb0d1c02)" style="fill: none; stroke: #1f77b4; stroke-width: 1.5; stroke-linecap: square"/>
   </g>
   <g id="line2d_18">
    <path d="M 73.832727 165.731024 
L 76.197263 167.470368 
L 78.711929 169.040132 
L 81.808345 170.698202 
L 90.422012 175.16055 
L 92.749015 176.711715 
L 94.77576 178.328261 
L 96.671142 180.127755 
L 98.622823 182.297914 
L 102.732612 187.003814 
L 103.595855 187.570898 
L 104.308969 187.782489 
L 104.947018 187.745568 
L 105.603834 187.480814 
L 106.35448 186.923566 
L 107.330321 185.894089 
L 111.965562 180.588321 
L 113.316725 179.588896 
L 114.724187 178.824692 
L 116.263012 178.245614 
L 118.045797 177.819233 
L 120.260204 177.529444 
L 123.394152 177.363121 
L 136.380334 176.888532 
L 140.865446 176.394019 
L 145.331792 175.675236 
L 151.618455 174.401118 
L 156.178632 173.299477 
L 161.65835 171.734836 
L 168.245272 169.617244 
L 176.202123 166.811326 
L 181.719374 164.941489 
L 183.971313 164.405113 
L 185.510138 164.254493 
L 186.692406 164.354233 
L 187.668246 164.658061 
L 188.512723 165.154528 
L 189.300902 165.884392 
L 190.051548 166.889177 
L 190.820961 168.301795 
L 191.665438 170.344394 
L 192.772641 173.674407 
L 194.424063 178.594307 
L 195.193476 180.192138 
L 195.850291 181.084906 
L 196.469574 181.569368 
L 197.088858 181.775603 
L 197.783205 181.76304 
L 198.646449 181.509263 
L 199.903781 180.883558 
L 203.28169 178.842945 
L 207.109986 176.696468 
L 210.581726 174.692286 
L 212.420809 173.361671 
L 214.034699 171.914681 
L 215.667355 170.140576 
L 217.750398 167.514413 
L 220.790516 163.705828 
L 222.404406 162.063985 
L 223.999529 160.759465 
L 225.876145 159.523587 
L 228.63477 157.998741 
L 230.886709 156.966363 
L 232.181574 156.60277 
L 233.157415 156.548779 
L 234.001892 156.718032 
L 234.808837 157.105577 
L 235.653314 157.765301 
L 236.610388 158.811152 
L 237.848954 160.52532 
L 242.427897 167.187363 
L 243.947956 168.834161 
L 245.486781 170.175648 
L 247.119437 171.305025 
L 248.939754 172.291589 
L 251.06033 173.180796 
L 253.631294 174.008795 
L 257.009202 174.849988 
L 262.789179 176.021163 
L 268.906947 177.330835 
L 272.266089 178.276113 
L 274.912118 179.246311 
L 277.445549 180.418454 
L 280.016513 181.58415 
L 280.842224 181.705741 
L 281.461507 181.574445 
L 282.005726 181.22711 
L 282.56871 180.585102 
L 283.20676 179.493234 
L 284.126302 177.410068 
L 285.871554 173.438661 
L 286.809862 171.891803 
L 287.729404 170.794884 
L 288.705244 169.976528 
L 289.793682 169.357349 
L 291.06978 168.893591 
L 292.608605 168.57894 
L 294.466455 168.434197 
L 296.699628 168.491316 
L 299.72098 168.809032 
L 310.098665 170.051016 
L 332.2052 172.573293 
L 335.28285 173.251671 
L 337.497257 173.957759 
L 339.148679 174.708777 
L 340.424778 175.524397 
L 341.456916 176.443853 
L 342.301394 177.489133 
L 343.033274 178.755646 
L 343.671323 180.325905 
L 344.234308 182.340539 
L 344.722228 184.935254 
L 345.172616 188.596262 
L 345.604238 194.112023 
L 346.354884 205.393641 
L 346.411182 205.276497 
L 346.542545 204.02131 
L 346.86157 197.683011 
L 347.424555 187.770624 
L 347.912475 182.893774 
L 348.437927 179.715399 
L 349.019678 177.468882 
L 349.676494 175.778356 
L 350.42714 174.448239 
L 351.290384 173.36765 
L 352.322522 172.439102 
L 353.579855 171.617767 
L 355.156212 170.862935 
L 357.239256 170.123613 
L 360.241841 169.31305 
L 368.367588 167.232308 
L 369.943945 166.54149 
L 371.013616 165.839275 
L 371.783029 165.073877 
L 372.36478 164.183977 
L 372.833934 163.041788 
L 373.209257 161.513109 
L 373.547048 159.079555 
L 373.753476 157.533595 
L 373.791008 157.710834 
L 373.866073 159.548711 
L 374.31646 175.440855 
L 374.541654 176.129342 
L 374.748082 176.190717 
L 375.085873 175.993465 
L 378.801572 173.182695 
L 380.959681 171.591167 
L 382.048118 170.512128 
L 382.81753 169.439068 
L 383.399281 168.248008 
L 383.868435 166.768218 
L 384.262524 164.728269 
L 384.619081 161.591579 
L 384.787977 160.317936 
L 384.825509 160.489516 
L 384.900574 162.305988 
L 385.463559 183.969961 
L 385.669986 184.389557 
L 385.820116 184.323416 
L 386.026543 183.9192 
L 386.401867 182.572628 
L 386.683359 181.021451 
L 386.927319 178.123589 
L 387.208811 171.816798 
L 388.015756 151.399077 
L 388.053288 151.362942 
L 388.090821 151.419959 
L 388.203418 152.105198 
L 388.409846 155.121069 
L 388.710104 163.411699 
L 389.029129 179.253872 
L 389.441984 205.263431 
L 389.498283 203.845088 
L 389.648412 190.364247 
L 390.080034 152.465952 
L 390.361526 144.268258 
L 390.530421 143.139573 
L 390.549188 143.150596 
L 390.624252 143.443457 
L 390.774382 145.173778 
L 390.999575 150.735584 
L 391.262302 163.517159 
L 391.506262 187.597724 
L 391.750222 217.834233 
L 391.787754 215.1388 
L 391.937883 177.275313 
L 392.181843 138.693515 
L 392.219376 138.207097 
L 392.256908 139.222613 
L 392.350739 150.015297 
L 392.463336 191.984746 
L 392.5384 244.990046 
L 392.557167 229.82646 
L 392.575933 53.568 
L 392.669764 64.119902 
L 392.894957 66.207408 
L 393.17645 66.981319 
L 393.533007 67.349601 
L 394.095992 67.579691 
L 395.165663 67.736183 
L 397.774159 67.843215 
L 398.487273 67.855717 
L 398.487273 67.855717 
" clip-path="url(#pe3eb0d1c02)" style="fill: none; stroke: #ff7f0e; stroke-width: 1.5; stroke-linecap: square"/>
   </g>
   <g id="line2d_19">
    <path d="M 73.832727 184.628234 
L 75.427851 184.677906 
L 77.2857 184.970406 
L 81.827111 185.797306 
L 83.178274 185.73937 
L 84.435607 185.462774 
L 85.749238 184.939748 
L 87.250531 184.090016 
L 89.25851 182.674929 
L 95.620238 178.028426 
L 98.285032 176.456134 
L 101.17502 175.015429 
L 105.153446 173.306971 
L 111.909263 170.403035 
L 123.262789 165.336254 
L 127.916797 163.602231 
L 135.348195 161.123455 
L 139.13896 159.722111 
L 141.409665 158.655239 
L 143.098619 157.6218 
L 144.431016 156.549463 
L 145.53822 155.372771 
L 146.495294 154.023621 
L 147.339771 152.443899 
L 148.203014 150.322797 
L 149.066257 148.250216 
L 149.235153 148.213442 
L 149.366516 148.44236 
L 149.535411 149.255761 
L 149.760605 151.698789 
L 150.060864 157.939562 
L 150.830276 174.941823 
L 151.224366 178.573934 
L 151.618455 180.29257 
L 152.012544 181.101847 
L 152.4254 181.477829 
L 152.91332 181.618526 
L 153.607668 181.564456 
L 154.958831 181.188953 
L 158.956023 180.034527 
L 162.296399 179.341374 
L 166.537551 178.700725 
L 172.617787 178.027852 
L 180.874896 177.100884 
L 183.427094 176.580506 
L 185.172347 176.005698 
L 186.504744 175.337272 
L 187.593181 174.545745 
L 188.550255 173.571758 
L 189.432265 172.34551 
L 190.276742 170.775811 
L 191.139985 168.678919 
L 192.115826 165.682209 
L 194.987048 156.376079 
L 195.737694 154.929411 
L 196.432042 154.04675 
L 197.12639 153.507482 
L 197.895802 153.191109 
L 198.852877 153.050557 
L 200.279105 153.091981 
L 202.380914 153.380768 
L 203.694545 153.764806 
L 204.632853 154.26889 
L 205.439798 154.959472 
L 206.209211 155.918138 
L 207.034922 157.324712 
L 208.029528 159.504337 
L 211.78276 168.251633 
L 212.908729 170.042076 
L 214.072231 171.4801 
L 215.34833 172.705152 
L 216.868389 173.84999 
L 218.9139 175.094427 
L 226.758154 179.621764 
L 231.937614 182.965798 
L 232.988519 183.307016 
L 233.851762 183.363785 
L 234.639941 183.196947 
L 235.42812 182.800797 
L 236.291363 182.108142 
L 237.342268 180.957428 
L 238.99369 178.761588 
L 241.376992 175.654881 
L 242.878285 174.073553 
L 244.285747 172.906443 
L 245.711975 172.00701 
L 247.232034 171.311951 
L 248.883456 170.803435 
L 250.741305 170.467555 
L 252.899414 170.309491 
L 255.489143 170.35082 
L 258.773221 170.63644 
L 263.671189 171.309918 
L 271.853234 172.434949 
L 275.662764 172.711908 
L 279.322165 172.750569 
L 292.477242 172.419935 
L 295.686255 172.148739 
L 299.007865 171.632223 
L 305.613553 170.536574 
L 306.382966 170.653125 
L 306.870886 170.942726 
L 307.246209 171.433753 
L 307.584 172.271977 
L 307.921791 173.751364 
L 309.04776 179.503546 
L 309.29172 179.598341 
L 309.610745 179.434727 
L 310.680416 178.453441 
L 311.806386 177.628063 
L 313.138783 176.935287 
L 314.902802 176.280533 
L 317.398701 175.607758 
L 321.283296 174.813862 
L 333.105976 172.517387 
L 335.9209 171.687508 
L 337.966411 170.862027 
L 339.505236 170.011014 
L 340.725036 169.087782 
L 341.719643 168.054389 
L 342.545354 166.869928 
L 343.239702 165.483884 
L 343.858985 163.730122 
L 344.403203 161.480346 
L 344.891123 158.443005 
L 345.322745 154.294417 
L 345.754367 147.850588 
L 346.336118 139.076076 
L 346.37365 139.062669 
L 346.392416 139.100146 
L 346.486247 139.720911 
L 346.692675 143.08404 
L 347.49962 157.511214 
L 347.98754 161.971052 
L 348.531758 164.982337 
L 349.132275 167.087262 
L 349.789091 168.616149 
L 350.539737 169.814703 
L 351.402981 170.776593 
L 352.416353 171.571787 
L 353.65492 172.253437 
L 355.193745 172.837487 
L 357.164191 173.336964 
L 359.716389 173.74396 
L 363.000467 174.033961 
L 366.997658 174.158937 
L 371.23881 174.071079 
L 375.630091 173.754917 
L 378.726508 173.318363 
L 380.546825 172.852974 
L 381.729093 172.334758 
L 382.592336 171.719476 
L 383.267918 170.963195 
L 383.849669 169.967873 
L 384.43142 168.503115 
L 385.069469 166.305797 
L 385.519857 163.706454 
L 385.913946 160.286662 
L 386.120374 156.164444 
L 386.270503 147.407973 
L 386.439399 131.28341 
L 386.495697 133.220961 
L 386.908553 150.259025 
L 387.490304 171.410706 
L 387.940692 185.625462 
L 388.24095 188.982404 
L 388.522442 189.991059 
L 388.841467 190.363443 
L 389.179258 190.460733 
L 389.385686 190.308142 
L 389.667178 189.737442 
L 390.192631 188.141116 
L 390.643018 185.877942 
L 391.412431 180.648055 
L 391.975416 175.238898 
L 392.5384 167.622401 
L 392.93249 162.933769 
L 393.138917 162.511889 
L 393.382878 162.499097 
L 395.37209 162.898421 
L 398.074417 163.026651 
L 398.487273 163.036341 
L 398.487273 163.036341 
" clip-path="url(#pe3eb0d1c02)" style="fill: none; stroke: #2ca02c; stroke-width: 1.5; stroke-linecap: square"/>
   </g>
   <g id="line2d_20">
    <path d="M 73.832727 172.020374 
L 398.487273 172.020374 
L 398.487273 172.020374 
" clip-path="url(#pe3eb0d1c02)" style="fill: none; stroke: #d62728; stroke-width: 1.5; stroke-linecap: square"/>
   </g>
   <g id="patch_3">
    <path d="M 57.6 307.584 
L 57.6 41.472 
" style="fill: none; stroke: #000000; stroke-width: 0.8; stroke-linejoin: miter; stroke-linecap: square"/>
   </g>
   <g id="patch_4">
    <path d="M 414.72 307.584 
L 414.72 41.472 
" style="fill: none; stroke: #000000; stroke-width: 0.8; stroke-linejoin: miter; stroke-linecap: square"/>
   </g>
   <g id="patch_5">
    <path d="M 57.6 307.584 
L 414.72 307.584 
" style="fill: none; stroke: #000000; stroke-width: 0.8; stroke-linejoin: miter; stroke-linecap: square"/>
   </g>
   <g id="patch_6">
    <path d="M 57.6 41.472 
L 414.72 41.472 
" style="fill: none; stroke: #000000; stroke-width: 0.8; stroke-linejoin: miter; stroke-linecap: square"/>
   </g>
   <g id="text_19">
    <!-- Figure 2b: The X Momenta of the Body 2, Body 1, and Body 3 -->
    <g transform="translate(97.095937 35.472) scale(0.1 -0.1)">
     <defs>
      <path id="CMUSerif-Roman-46" d="M 211 0 
L 211 198 
L 365 198 
Q 710 198 790 256 
Q 870 314 870 499 
L 870 3853 
Q 870 4038 790 4096 
Q 710 4154 365 4154 
L 211 4154 
L 211 4352 
L 3725 4352 
L 3904 2912 
L 3744 2912 
Q 3699 3277 3641 3485 
Q 3584 3693 3453 3859 
Q 3322 4026 3101 4090 
Q 2880 4154 2522 4154 
L 1754 4154 
Q 1536 4154 1488 4109 
Q 1440 4064 1440 3898 
L 1440 2278 
L 1990 2278 
Q 2426 2278 2547 2435 
Q 2669 2592 2669 3027 
L 2829 3027 
L 2829 1331 
L 2669 1331 
Q 2669 1773 2547 1926 
Q 2426 2080 1990 2080 
L 1440 2080 
L 1440 506 
Q 1440 371 1462 320 
Q 1485 269 1619 233 
Q 1754 198 2048 198 
L 2259 198 
L 2259 0 
Q 2029 19 1184 19 
Q 435 19 211 0 
z
" transform="scale(0.015625)"/>
      <path id="CMUSerif-Roman-72" d="M 179 0 
L 179 198 
Q 518 198 598 240 
Q 678 282 678 486 
L 678 2202 
Q 678 2438 595 2499 
Q 512 2560 179 2560 
L 179 2758 
L 1069 2829 
L 1069 2125 
Q 1158 2400 1350 2614 
Q 1542 2829 1856 2829 
Q 2061 2829 2195 2713 
Q 2330 2598 2330 2438 
Q 2330 2298 2243 2227 
Q 2157 2157 2054 2157 
Q 1939 2157 1859 2230 
Q 1779 2304 1779 2432 
Q 1779 2509 1814 2569 
Q 1850 2630 1878 2652 
Q 1907 2675 1926 2682 
Q 1914 2688 1856 2688 
Q 1504 2688 1302 2336 
Q 1101 1984 1101 1485 
L 1101 499 
Q 1101 314 1177 256 
Q 1254 198 1587 198 
L 1722 198 
L 1722 0 
Q 1466 19 909 19 
Q 832 19 710 16 
Q 589 13 429 6 
Q 269 0 179 0 
z
" transform="scale(0.015625)"/>
      <path id="CMUSerif-Roman-32" d="M 320 0 
Q 320 115 329 150 
Q 339 186 390 237 
L 1619 1606 
Q 2291 2362 2291 3021 
Q 2291 3450 2067 3757 
Q 1843 4064 1434 4064 
Q 1152 4064 915 3891 
Q 678 3718 570 3411 
Q 589 3418 653 3418 
Q 813 3418 902 3318 
Q 992 3219 992 3085 
Q 992 2912 880 2829 
Q 768 2746 659 2746 
Q 614 2746 556 2755 
Q 499 2765 409 2854 
Q 320 2944 320 3104 
Q 320 3552 659 3907 
Q 998 4262 1517 4262 
Q 2106 4262 2490 3913 
Q 2874 3565 2874 3021 
Q 2874 2829 2816 2656 
Q 2758 2483 2681 2348 
Q 2605 2214 2400 2000 
Q 2195 1786 2028 1632 
Q 1862 1478 1491 1152 
L 813 493 
L 1965 493 
Q 2528 493 2573 544 
Q 2637 634 2714 1114 
L 2874 1114 
L 2694 0 
L 320 0 
z
" transform="scale(0.015625)"/>
      <path id="CMUSerif-Roman-62" d="M 179 4173 
L 179 4371 
L 1101 4442 
L 1101 2413 
Q 1472 2829 1978 2829 
Q 2528 2829 2931 2406 
Q 3334 1984 3334 1382 
Q 3334 774 2912 352 
Q 2490 -70 1907 -70 
Q 1376 -70 1069 397 
Q 845 6 838 0 
L 678 0 
L 678 3814 
Q 678 4051 595 4112 
Q 512 4173 179 4173 
z
M 1120 730 
Q 1120 595 1210 461 
Q 1466 70 1882 70 
Q 2330 70 2605 480 
Q 2803 787 2803 1389 
Q 2803 1984 2618 2278 
Q 2362 2688 1946 2688 
Q 1478 2688 1190 2278 
Q 1120 2176 1120 2048 
L 1120 730 
z
" transform="scale(0.015625)"/>
      <path id="CMUSerif-Roman-3a" d="M 649 2179 
Q 550 2279 550 2419 
Q 550 2560 649 2659 
Q 749 2759 889 2759 
Q 1030 2759 1129 2659 
Q 1229 2560 1229 2419 
Q 1229 2279 1129 2179 
Q 1030 2080 889 2080 
Q 749 2080 649 2179 
z
M 649 99 
Q 550 199 550 339 
Q 550 480 649 579 
Q 749 679 889 679 
Q 1030 679 1129 579 
Q 1229 480 1229 339 
Q 1229 199 1129 99 
Q 1030 0 889 0 
Q 749 0 649 99 
z
" transform="scale(0.015625)"/>
      <path id="CMUSerif-Roman-68" d="M 205 0 
L 205 198 
Q 544 198 624 240 
Q 704 282 704 486 
L 704 3814 
Q 704 4051 621 4112 
Q 538 4173 205 4173 
L 205 4371 
L 1126 4442 
L 1126 2214 
L 1133 2214 
Q 1235 2445 1465 2637 
Q 1696 2829 2054 2829 
Q 2534 2829 2726 2592 
Q 2867 2432 2896 2253 
Q 2925 2074 2925 1613 
L 2925 390 
Q 2931 256 3033 227 
Q 3136 198 3424 198 
L 3424 0 
Q 2771 19 2707 19 
Q 2656 19 1984 0 
L 1984 198 
Q 2323 198 2403 240 
Q 2483 282 2483 486 
L 2483 1978 
Q 2483 2304 2384 2496 
Q 2285 2688 2010 2688 
Q 1677 2688 1411 2409 
Q 1146 2131 1146 1664 
L 1146 486 
Q 1146 282 1226 240 
Q 1306 198 1645 198 
L 1645 0 
Q 992 19 928 19 
Q 877 19 205 0 
z
" transform="scale(0.015625)"/>
      <path id="CMUSerif-Roman-58" d="M 154 0 
L 154 198 
Q 448 198 662 288 
Q 877 378 941 445 
Q 1005 512 1082 621 
L 2131 2170 
L 954 3949 
Q 864 4083 742 4128 
Q 621 4173 358 4173 
L 237 4173 
L 237 4371 
Q 589 4352 1069 4352 
Q 1779 4352 2003 4371 
L 2003 4173 
Q 1811 4166 1699 4105 
Q 1587 4045 1587 3981 
Q 1587 3955 1632 3885 
L 2458 2650 
L 3187 3731 
Q 3245 3821 3245 3878 
Q 3245 3994 3139 4080 
Q 3034 4166 2848 4173 
L 2848 4371 
Q 3104 4352 3667 4352 
Q 3738 4352 3856 4355 
Q 3974 4358 4131 4364 
Q 4288 4371 4378 4371 
L 4378 4173 
Q 3731 4166 3450 3757 
L 2573 2470 
L 3923 429 
Q 4019 288 4140 243 
Q 4262 198 4525 198 
L 4646 198 
L 4646 0 
Q 4243 19 3814 19 
Q 3104 19 2880 0 
L 2880 198 
Q 3072 205 3184 265 
Q 3296 326 3296 390 
Q 3296 397 3264 461 
L 2253 1990 
L 1344 646 
Q 1280 544 1280 493 
Q 1280 390 1382 297 
Q 1485 205 1683 198 
L 1683 0 
Q 1453 19 864 19 
Q 845 19 154 0 
z
" transform="scale(0.015625)"/>
      <path id="CMUSerif-Roman-61" d="M 269 608 
Q 269 1152 909 1440 
Q 1293 1626 2086 1670 
L 2086 1907 
Q 2086 2304 1878 2515 
Q 1670 2726 1408 2726 
Q 941 2726 717 2432 
Q 909 2426 976 2330 
Q 1043 2234 1043 2138 
Q 1043 2010 963 1926 
Q 883 1843 749 1843 
Q 621 1843 537 1923 
Q 454 2003 454 2144 
Q 454 2458 736 2662 
Q 1018 2867 1421 2867 
Q 1946 2867 2298 2515 
Q 2406 2406 2460 2265 
Q 2515 2125 2521 2032 
Q 2528 1939 2528 1760 
L 2528 480 
Q 2528 442 2541 381 
Q 2554 320 2611 240 
Q 2669 160 2765 160 
Q 2995 160 2995 570 
L 2995 928 
L 3155 928 
L 3155 570 
Q 3155 230 2976 96 
Q 2797 -38 2630 -38 
Q 2419 -38 2284 118 
Q 2150 275 2131 486 
Q 2035 243 1814 86 
Q 1594 -70 1293 -70 
Q 1062 -70 844 -12 
Q 627 45 448 205 
Q 269 365 269 608 
z
M 762 614 
Q 762 378 931 224 
Q 1101 70 1338 70 
Q 1606 70 1846 278 
Q 2086 486 2086 896 
L 2086 1536 
Q 1376 1510 1069 1228 
Q 762 947 762 614 
z
" transform="scale(0.015625)"/>
      <path id="CMUSerif-Roman-66" d="M 211 2560 
L 211 2758 
L 717 2758 
L 717 3494 
Q 717 3968 1024 4240 
Q 1331 4512 1709 4512 
Q 1958 4512 2121 4377 
Q 2285 4243 2285 4064 
Q 2285 3942 2211 3862 
Q 2138 3782 2003 3782 
Q 1875 3782 1801 3862 
Q 1728 3942 1728 4058 
Q 1728 4262 1920 4326 
Q 1824 4371 1709 4371 
Q 1478 4371 1299 4134 
Q 1120 3898 1120 3501 
L 1120 2758 
L 1869 2758 
L 1869 2560 
L 1139 2560 
L 1139 499 
Q 1139 314 1216 256 
Q 1293 198 1626 198 
L 1760 198 
L 1760 0 
Q 1504 19 947 19 
Q 870 19 748 16 
Q 627 13 467 6 
Q 307 0 218 0 
L 218 198 
Q 557 198 637 240 
Q 717 282 717 486 
L 717 2560 
L 211 2560 
z
" transform="scale(0.015625)"/>
      <path id="CMUSerif-Roman-42" d="M 230 0 
L 230 198 
L 384 198 
Q 730 198 810 256 
Q 890 314 890 499 
L 890 3872 
Q 890 4058 810 4115 
Q 730 4173 384 4173 
L 230 4173 
L 230 4371 
L 2573 4371 
Q 3181 4371 3587 4044 
Q 3994 3718 3994 3290 
Q 3994 2938 3696 2656 
Q 3398 2374 2931 2285 
Q 3462 2227 3814 1907 
Q 4166 1587 4166 1171 
Q 4166 704 3763 352 
Q 3360 0 2739 0 
L 230 0 
z
M 1421 454 
Q 1421 288 1469 243 
Q 1517 198 1734 198 
L 2534 198 
Q 2995 198 3260 499 
Q 3526 800 3526 1177 
Q 3526 1555 3292 1878 
Q 3059 2202 2624 2202 
L 1421 2202 
L 1421 454 
z
M 1421 2342 
L 2349 2342 
Q 2842 2342 3107 2640 
Q 3373 2938 3373 3290 
Q 3373 3603 3161 3888 
Q 2950 4173 2528 4173 
L 1734 4173 
Q 1517 4173 1469 4128 
Q 1421 4083 1421 3917 
L 1421 2342 
z
" transform="scale(0.015625)"/>
      <path id="CMUSerif-Roman-64" d="M 218 1376 
Q 218 1984 643 2406 
Q 1069 2829 1645 2829 
Q 2131 2829 2451 2432 
L 2451 3814 
Q 2451 4051 2368 4112 
Q 2285 4173 1952 4173 
L 1952 4371 
L 2874 4442 
L 2874 557 
Q 2874 320 2957 259 
Q 3040 198 3373 198 
L 3373 0 
L 2432 -70 
L 2432 352 
Q 2099 -70 1574 -70 
Q 1024 -70 621 352 
Q 218 774 218 1376 
z
M 749 1370 
Q 749 774 934 480 
Q 1190 70 1606 70 
Q 2080 70 2362 518 
Q 2432 627 2432 755 
L 2432 2067 
Q 2432 2195 2362 2304 
Q 2099 2688 1670 2688 
Q 1222 2688 947 2278 
Q 749 1971 749 1370 
z
" transform="scale(0.015625)"/>
      <path id="CMUSerif-Roman-79" d="M 122 -794 
Q 122 -659 202 -588 
Q 282 -518 390 -518 
Q 506 -518 582 -592 
Q 659 -666 659 -787 
Q 659 -1024 410 -1056 
Q 531 -1171 710 -1171 
Q 902 -1171 1056 -1030 
Q 1210 -890 1277 -755 
Q 1344 -621 1440 -378 
Q 1530 -186 1600 0 
L 640 2336 
Q 576 2490 480 2525 
Q 384 2560 122 2560 
L 122 2758 
Q 410 2739 742 2739 
Q 941 2739 1440 2758 
L 1440 2560 
Q 1082 2560 1082 2394 
Q 1082 2374 1120 2278 
L 1830 557 
L 2477 2131 
Q 2515 2221 2515 2285 
Q 2515 2547 2214 2560 
L 2214 2758 
Q 2637 2739 2771 2739 
Q 3034 2739 3251 2758 
L 3251 2560 
Q 2822 2560 2656 2150 
L 1530 -582 
Q 1222 -1312 710 -1312 
Q 467 -1312 294 -1161 
Q 122 -1011 122 -794 
z
" transform="scale(0.015625)"/>
      <path id="CMUSerif-Roman-2c" d="M 640 102 
Q 550 205 550 339 
Q 550 474 640 576 
Q 730 678 890 678 
Q 1082 678 1190 496 
Q 1299 314 1299 6 
Q 1299 -326 1164 -633 
Q 1030 -941 899 -1088 
Q 768 -1235 717 -1235 
Q 653 -1235 653 -1165 
Q 653 -1139 698 -1094 
Q 1158 -602 1158 6 
Q 1158 102 1146 102 
L 1133 90 
Q 1024 0 890 0 
Q 730 0 640 102 
z
" transform="scale(0.015625)"/>
      <path id="CMUSerif-Roman-31" d="M 570 3654 
L 570 3853 
Q 1338 3853 1734 4262 
Q 1843 4262 1862 4236 
Q 1882 4211 1882 4096 
L 1882 506 
Q 1882 314 1974 256 
Q 2067 198 2477 198 
L 2682 198 
L 2682 0 
Q 2458 19 1645 19 
Q 832 19 608 0 
L 608 198 
L 813 198 
Q 1216 198 1312 256 
Q 1408 314 1408 506 
L 1408 3821 
Q 1075 3654 570 3654 
z
" transform="scale(0.015625)"/>
      <path id="CMUSerif-Roman-33" d="M 269 864 
Q 269 1056 377 1145 
Q 486 1235 627 1235 
Q 774 1235 880 1139 
Q 986 1043 986 877 
Q 986 698 861 598 
Q 736 499 563 525 
Q 717 269 998 153 
Q 1280 38 1542 38 
Q 1818 38 2042 275 
Q 2266 512 2266 1094 
Q 2266 1587 2074 1872 
Q 1882 2157 1504 2157 
L 1222 2157 
Q 1126 2157 1097 2166 
Q 1069 2176 1069 2227 
Q 1069 2291 1165 2304 
Q 1261 2304 1414 2323 
Q 1786 2336 1984 2656 
Q 2163 2957 2163 3386 
Q 2163 3776 1977 3939 
Q 1792 4102 1549 4102 
Q 1325 4102 1078 4009 
Q 832 3917 698 3706 
Q 1094 3706 1094 3386 
Q 1094 3245 1004 3152 
Q 915 3059 768 3059 
Q 627 3059 534 3148 
Q 442 3238 442 3392 
Q 442 3757 768 4009 
Q 1094 4262 1574 4262 
Q 2048 4262 2400 4012 
Q 2752 3763 2752 3379 
Q 2752 3002 2502 2691 
Q 2253 2381 1856 2253 
Q 2342 2157 2633 1827 
Q 2925 1498 2925 1094 
Q 2925 595 2531 227 
Q 2138 -141 1562 -141 
Q 1030 -141 649 147 
Q 269 435 269 864 
z
" transform="scale(0.015625)"/>
     </defs>
     <use xlink:href="#CMUSerif-Roman-46"/>
     <use xlink:href="#CMUSerif-Roman-69" x="65.199997"/>
     <use xlink:href="#CMUSerif-Roman-67" x="92.899994"/>
     <use xlink:href="#CMUSerif-Roman-75" x="142.899979"/>
     <use xlink:href="#CMUSerif-Roman-72" x="198.399963"/>
     <use xlink:href="#CMUSerif-Roman-65" x="237.499954"/>
     <use xlink:href="#CMUSerif-Roman-20" x="281.899948"/>
     <use xlink:href="#CMUSerif-Roman-32" x="315.199936"/>
     <use xlink:href="#CMUSerif-Roman-62" x="365.199921"/>
     <use xlink:href="#CMUSerif-Roman-3a" x="420.699905"/>
     <use xlink:href="#CMUSerif-Roman-20" x="448.399902"/>
     <use xlink:href="#CMUSerif-Roman-54" x="481.69989"/>
     <use xlink:href="#CMUSerif-Roman-68" x="553.899872"/>
     <use xlink:href="#CMUSerif-Roman-65" x="609.399857"/>
     <use xlink:href="#CMUSerif-Roman-20" x="653.79985"/>
     <use xlink:href="#CMUSerif-Roman-58" x="687.099838"/>
     <use xlink:href="#CMUSerif-Roman-20" x="762.099823"/>
     <use xlink:href="#CMUSerif-Roman-4d" x="795.399811"/>
     <use xlink:href="#CMUSerif-Roman-6f" x="886.999802"/>
     <use xlink:href="#CMUSerif-Roman-6d" x="936.999786"/>
     <use xlink:href="#CMUSerif-Roman-65" x="1020.299774"/>
     <use xlink:href="#CMUSerif-Roman-6e" x="1064.699768"/>
     <use xlink:href="#CMUSerif-Roman-74" x="1120.199753"/>
     <use xlink:href="#CMUSerif-Roman-61" x="1158.999741"/>
     <use xlink:href="#CMUSerif-Roman-20" x="1208.999725"/>
     <use xlink:href="#CMUSerif-Roman-6f" x="1242.299713"/>
     <use xlink:href="#CMUSerif-Roman-66" x="1292.299698"/>
     <use xlink:href="#CMUSerif-Roman-20" x="1322.799683"/>
     <use xlink:href="#CMUSerif-Roman-74" x="1356.09967"/>
     <use xlink:href="#CMUSerif-Roman-68" x="1394.899658"/>
     <use xlink:href="#CMUSerif-Roman-65" x="1450.399643"/>
     <use xlink:href="#CMUSerif-Roman-20" x="1494.799637"/>
     <use xlink:href="#CMUSerif-Roman-42" x="1528.099625"/>
     <use xlink:href="#CMUSerif-Roman-6f" x="1598.899612"/>
     <use xlink:href="#CMUSerif-Roman-64" x="1648.899597"/>
     <use xlink:href="#CMUSerif-Roman-79" x="1704.399582"/>
     <use xlink:href="#CMUSerif-Roman-20" x="1757.099579"/>
     <use xlink:href="#CMUSerif-Roman-32" x="1790.399567"/>
     <use xlink:href="#CMUSerif-Roman-2c" x="1840.399551"/>
     <use xlink:href="#CMUSerif-Roman-20" x="1868.099548"/>
     <use xlink:href="#CMUSerif-Roman-42" x="1901.399536"/>
     <use xlink:href="#CMUSerif-Roman-6f" x="1972.199524"/>
     <use xlink:href="#CMUSerif-Roman-64" x="2022.199509"/>
     <use xlink:href="#CMUSerif-Roman-79" x="2077.699493"/>
     <use xlink:href="#CMUSerif-Roman-20" x="2130.39949"/>
     <use xlink:href="#CMUSerif-Roman-31" x="2163.699478"/>
     <use xlink:href="#CMUSerif-Roman-2c" x="2213.699463"/>
     <use xlink:href="#CMUSerif-Roman-20" x="2241.39946"/>
     <use xlink:href="#CMUSerif-Roman-61" x="2274.699448"/>
     <use xlink:href="#CMUSerif-Roman-6e" x="2324.699432"/>
     <use xlink:href="#CMUSerif-Roman-64" x="2380.199417"/>
     <use xlink:href="#CMUSerif-Roman-20" x="2435.699402"/>
     <use xlink:href="#CMUSerif-Roman-42" x="2468.99939"/>
     <use xlink:href="#CMUSerif-Roman-6f" x="2539.799377"/>
     <use xlink:href="#CMUSerif-Roman-64" x="2589.799362"/>
     <use xlink:href="#CMUSerif-Roman-79" x="2645.299347"/>
     <use xlink:href="#CMUSerif-Roman-20" x="2697.999344"/>
     <use xlink:href="#CMUSerif-Roman-33" x="2731.299332"/>
    </g>
   </g>
   <g id="legend_1">
    <g id="patch_7">
     <path d="M 64.6 108.1845 
L 243.421875 108.1845 
Q 245.421875 108.1845 245.421875 106.1845 
L 245.421875 48.472 
Q 245.421875 46.472 243.421875 46.472 
L 64.6 46.472 
Q 62.6 46.472 62.6 48.472 
L 62.6 106.1845 
Q 62.6 108.1845 64.6 108.1845 
z
" style="fill: #ffffff; opacity: 0.8; stroke: #cccccc; stroke-linejoin: miter"/>
    </g>
    <g id="line2d_21">
     <path d="M 66.6 54.570438 
L 76.6 54.570438 
L 86.6 54.570438 
" style="fill: none; stroke: #1f77b4; stroke-width: 1.5; stroke-linecap: square"/>
    </g>
    <g id="text_20">
     <!-- X Momentum of the Body 1 -->
     <g transform="translate(94.6 58.070438) scale(0.1 -0.1)">
      <defs>
       <path id="DejaVuSans-58" d="M 403 4666 
L 1081 4666 
L 2241 2931 
L 3406 4666 
L 4084 4666 
L 2584 2425 
L 4184 0 
L 3506 0 
L 2194 1984 
L 872 0 
L 191 0 
L 1856 2491 
L 403 4666 
z
" transform="scale(0.015625)"/>
       <path id="DejaVuSans-20" transform="scale(0.015625)"/>
       <path id="DejaVuSans-4d" d="M 628 4666 
L 1569 4666 
L 2759 1491 
L 3956 4666 
L 4897 4666 
L 4897 0 
L 4281 0 
L 4281 4097 
L 3078 897 
L 2444 897 
L 1241 4097 
L 1241 0 
L 628 0 
L 628 4666 
z
" transform="scale(0.015625)"/>
       <path id="DejaVuSans-6f" d="M 1959 3097 
Q 1497 3097 1228 2736 
Q 959 2375 959 1747 
Q 959 1119 1226 758 
Q 1494 397 1959 397 
Q 2419 397 2687 759 
Q 2956 1122 2956 1747 
Q 2956 2369 2687 2733 
Q 2419 3097 1959 3097 
z
M 1959 3584 
Q 2709 3584 3137 3096 
Q 3566 2609 3566 1747 
Q 3566 888 3137 398 
Q 2709 -91 1959 -91 
Q 1206 -91 779 398 
Q 353 888 353 1747 
Q 353 2609 779 3096 
Q 1206 3584 1959 3584 
z
" transform="scale(0.015625)"/>
       <path id="DejaVuSans-6d" d="M 3328 2828 
Q 3544 3216 3844 3400 
Q 4144 3584 4550 3584 
Q 5097 3584 5394 3201 
Q 5691 2819 5691 2113 
L 5691 0 
L 5113 0 
L 5113 2094 
Q 5113 2597 4934 2840 
Q 4756 3084 4391 3084 
Q 3944 3084 3684 2787 
Q 3425 2491 3425 1978 
L 3425 0 
L 2847 0 
L 2847 2094 
Q 2847 2600 2669 2842 
Q 2491 3084 2119 3084 
Q 1678 3084 1418 2786 
Q 1159 2488 1159 1978 
L 1159 0 
L 581 0 
L 581 3500 
L 1159 3500 
L 1159 2956 
Q 1356 3278 1631 3431 
Q 1906 3584 2284 3584 
Q 2666 3584 2933 3390 
Q 3200 3197 3328 2828 
z
" transform="scale(0.015625)"/>
       <path id="DejaVuSans-65" d="M 3597 1894 
L 3597 1613 
L 953 1613 
Q 991 1019 1311 708 
Q 1631 397 2203 397 
Q 2534 397 2845 478 
Q 3156 559 3463 722 
L 3463 178 
Q 3153 47 2828 -22 
Q 2503 -91 2169 -91 
Q 1331 -91 842 396 
Q 353 884 353 1716 
Q 353 2575 817 3079 
Q 1281 3584 2069 3584 
Q 2775 3584 3186 3129 
Q 3597 2675 3597 1894 
z
M 3022 2063 
Q 3016 2534 2758 2815 
Q 2500 3097 2075 3097 
Q 1594 3097 1305 2825 
Q 1016 2553 972 2059 
L 3022 2063 
z
" transform="scale(0.015625)"/>
       <path id="DejaVuSans-6e" d="M 3513 2113 
L 3513 0 
L 2938 0 
L 2938 2094 
Q 2938 2591 2744 2837 
Q 2550 3084 2163 3084 
Q 1697 3084 1428 2787 
Q 1159 2491 1159 1978 
L 1159 0 
L 581 0 
L 581 3500 
L 1159 3500 
L 1159 2956 
Q 1366 3272 1645 3428 
Q 1925 3584 2291 3584 
Q 2894 3584 3203 3211 
Q 3513 2838 3513 2113 
z
" transform="scale(0.015625)"/>
       <path id="DejaVuSans-74" d="M 1172 4494 
L 1172 3500 
L 2356 3500 
L 2356 3053 
L 1172 3053 
L 1172 1153 
Q 1172 725 1289 603 
Q 1406 481 1766 481 
L 2356 481 
L 2356 0 
L 1766 0 
Q 1100 0 847 248 
Q 594 497 594 1153 
L 594 3053 
L 172 3053 
L 172 3500 
L 594 3500 
L 594 4494 
L 1172 4494 
z
" transform="scale(0.015625)"/>
       <path id="DejaVuSans-75" d="M 544 1381 
L 544 3500 
L 1119 3500 
L 1119 1403 
Q 1119 906 1312 657 
Q 1506 409 1894 409 
Q 2359 409 2629 706 
Q 2900 1003 2900 1516 
L 2900 3500 
L 3475 3500 
L 3475 0 
L 2900 0 
L 2900 538 
Q 2691 219 2414 64 
Q 2138 -91 1772 -91 
Q 1169 -91 856 284 
Q 544 659 544 1381 
z
M 1991 3584 
L 1991 3584 
z
" transform="scale(0.015625)"/>
       <path id="DejaVuSans-66" d="M 2375 4863 
L 2375 4384 
L 1825 4384 
Q 1516 4384 1395 4259 
Q 1275 4134 1275 3809 
L 1275 3500 
L 2222 3500 
L 2222 3053 
L 1275 3053 
L 1275 0 
L 697 0 
L 697 3053 
L 147 3053 
L 147 3500 
L 697 3500 
L 697 3744 
Q 697 4328 969 4595 
Q 1241 4863 1831 4863 
L 2375 4863 
z
" transform="scale(0.015625)"/>
       <path id="DejaVuSans-68" d="M 3513 2113 
L 3513 0 
L 2938 0 
L 2938 2094 
Q 2938 2591 2744 2837 
Q 2550 3084 2163 3084 
Q 1697 3084 1428 2787 
Q 1159 2491 1159 1978 
L 1159 0 
L 581 0 
L 581 4863 
L 1159 4863 
L 1159 2956 
Q 1366 3272 1645 3428 
Q 1925 3584 2291 3584 
Q 2894 3584 3203 3211 
Q 3513 2838 3513 2113 
z
" transform="scale(0.015625)"/>
       <path id="DejaVuSans-42" d="M 1259 2228 
L 1259 519 
L 2272 519 
Q 2781 519 3026 730 
Q 3272 941 3272 1375 
Q 3272 1813 3026 2020 
Q 2781 2228 2272 2228 
L 1259 2228 
z
M 1259 4147 
L 1259 2741 
L 2194 2741 
Q 2656 2741 2882 2914 
Q 3109 3088 3109 3444 
Q 3109 3797 2882 3972 
Q 2656 4147 2194 4147 
L 1259 4147 
z
M 628 4666 
L 2241 4666 
Q 2963 4666 3353 4366 
Q 3744 4066 3744 3513 
Q 3744 3084 3544 2831 
Q 3344 2578 2956 2516 
Q 3422 2416 3680 2098 
Q 3938 1781 3938 1306 
Q 3938 681 3513 340 
Q 3088 0 2303 0 
L 628 0 
L 628 4666 
z
" transform="scale(0.015625)"/>
       <path id="DejaVuSans-64" d="M 2906 2969 
L 2906 4863 
L 3481 4863 
L 3481 0 
L 2906 0 
L 2906 525 
Q 2725 213 2448 61 
Q 2172 -91 1784 -91 
Q 1150 -91 751 415 
Q 353 922 353 1747 
Q 353 2572 751 3078 
Q 1150 3584 1784 3584 
Q 2172 3584 2448 3432 
Q 2725 3281 2906 2969 
z
M 947 1747 
Q 947 1113 1208 752 
Q 1469 391 1925 391 
Q 2381 391 2643 752 
Q 2906 1113 2906 1747 
Q 2906 2381 2643 2742 
Q 2381 3103 1925 3103 
Q 1469 3103 1208 2742 
Q 947 2381 947 1747 
z
" transform="scale(0.015625)"/>
       <path id="DejaVuSans-79" d="M 2059 -325 
Q 1816 -950 1584 -1140 
Q 1353 -1331 966 -1331 
L 506 -1331 
L 506 -850 
L 844 -850 
Q 1081 -850 1212 -737 
Q 1344 -625 1503 -206 
L 1606 56 
L 191 3500 
L 800 3500 
L 1894 763 
L 2988 3500 
L 3597 3500 
L 2059 -325 
z
" transform="scale(0.015625)"/>
      </defs>
      <use xlink:href="#DejaVuSans-58"/>
      <use xlink:href="#DejaVuSans-20" x="68.505859"/>
      <use xlink:href="#DejaVuSans-4d" x="100.292969"/>
      <use xlink:href="#DejaVuSans-6f" x="186.572266"/>
      <use xlink:href="#DejaVuSans-6d" x="247.753906"/>
      <use xlink:href="#DejaVuSans-65" x="345.166016"/>
      <use xlink:href="#DejaVuSans-6e" x="406.689453"/>
      <use xlink:href="#DejaVuSans-74" x="470.068359"/>
      <use xlink:href="#DejaVuSans-75" x="509.277344"/>
      <use xlink:href="#DejaVuSans-6d" x="572.65625"/>
      <use xlink:href="#DejaVuSans-20" x="670.068359"/>
      <use xlink:href="#DejaVuSans-6f" x="701.855469"/>
      <use xlink:href="#DejaVuSans-66" x="763.037109"/>
      <use xlink:href="#DejaVuSans-20" x="798.242188"/>
      <use xlink:href="#DejaVuSans-74" x="830.029297"/>
      <use xlink:href="#DejaVuSans-68" x="869.238281"/>
      <use xlink:href="#DejaVuSans-65" x="932.617188"/>
      <use xlink:href="#DejaVuSans-20" x="994.140625"/>
      <use xlink:href="#DejaVuSans-42" x="1025.927734"/>
      <use xlink:href="#DejaVuSans-6f" x="1094.53125"/>
      <use xlink:href="#DejaVuSans-64" x="1155.712891"/>
      <use xlink:href="#DejaVuSans-79" x="1219.189453"/>
      <use xlink:href="#DejaVuSans-20" x="1278.369141"/>
      <use xlink:href="#DejaVuSans-31" x="1310.15625"/>
     </g>
    </g>
    <g id="line2d_22">
     <path d="M 66.6 69.248563 
L 76.6 69.248563 
L 86.6 69.248563 
" style="fill: none; stroke: #ff7f0e; stroke-width: 1.5; stroke-linecap: square"/>
    </g>
    <g id="text_21">
     <!-- X Momentum of the Body 2 -->
     <g transform="translate(94.6 72.748563) scale(0.1 -0.1)">
      <use xlink:href="#DejaVuSans-58"/>
      <use xlink:href="#DejaVuSans-20" x="68.505859"/>
      <use xlink:href="#DejaVuSans-4d" x="100.292969"/>
      <use xlink:href="#DejaVuSans-6f" x="186.572266"/>
      <use xlink:href="#DejaVuSans-6d" x="247.753906"/>
      <use xlink:href="#DejaVuSans-65" x="345.166016"/>
      <use xlink:href="#DejaVuSans-6e" x="406.689453"/>
      <use xlink:href="#DejaVuSans-74" x="470.068359"/>
      <use xlink:href="#DejaVuSans-75" x="509.277344"/>
      <use xlink:href="#DejaVuSans-6d" x="572.65625"/>
      <use xlink:href="#DejaVuSans-20" x="670.068359"/>
      <use xlink:href="#DejaVuSans-6f" x="701.855469"/>
      <use xlink:href="#DejaVuSans-66" x="763.037109"/>
      <use xlink:href="#DejaVuSans-20" x="798.242188"/>
      <use xlink:href="#DejaVuSans-74" x="830.029297"/>
      <use xlink:href="#DejaVuSans-68" x="869.238281"/>
      <use xlink:href="#DejaVuSans-65" x="932.617188"/>
      <use xlink:href="#DejaVuSans-20" x="994.140625"/>
      <use xlink:href="#DejaVuSans-42" x="1025.927734"/>
      <use xlink:href="#DejaVuSans-6f" x="1094.53125"/>
      <use xlink:href="#DejaVuSans-64" x="1155.712891"/>
      <use xlink:href="#DejaVuSans-79" x="1219.189453"/>
      <use xlink:href="#DejaVuSans-20" x="1278.369141"/>
      <use xlink:href="#DejaVuSans-32" x="1310.15625"/>
     </g>
    </g>
    <g id="line2d_23">
     <path d="M 66.6 83.926688 
L 76.6 83.926688 
L 86.6 83.926688 
" style="fill: none; stroke: #2ca02c; stroke-width: 1.5; stroke-linecap: square"/>
    </g>
    <g id="text_22">
     <!-- X Momentum of the Body 3 -->
     <g transform="translate(94.6 87.426688) scale(0.1 -0.1)">
      <defs>
       <path id="DejaVuSans-33" d="M 2597 2516 
Q 3050 2419 3304 2112 
Q 3559 1806 3559 1356 
Q 3559 666 3084 287 
Q 2609 -91 1734 -91 
Q 1441 -91 1130 -33 
Q 819 25 488 141 
L 488 750 
Q 750 597 1062 519 
Q 1375 441 1716 441 
Q 2309 441 2620 675 
Q 2931 909 2931 1356 
Q 2931 1769 2642 2001 
Q 2353 2234 1838 2234 
L 1294 2234 
L 1294 2753 
L 1863 2753 
Q 2328 2753 2575 2939 
Q 2822 3125 2822 3475 
Q 2822 3834 2567 4026 
Q 2313 4219 1838 4219 
Q 1578 4219 1281 4162 
Q 984 4106 628 3988 
L 628 4550 
Q 988 4650 1302 4700 
Q 1616 4750 1894 4750 
Q 2613 4750 3031 4423 
Q 3450 4097 3450 3541 
Q 3450 3153 3228 2886 
Q 3006 2619 2597 2516 
z
" transform="scale(0.015625)"/>
      </defs>
      <use xlink:href="#DejaVuSans-58"/>
      <use xlink:href="#DejaVuSans-20" x="68.505859"/>
      <use xlink:href="#DejaVuSans-4d" x="100.292969"/>
      <use xlink:href="#DejaVuSans-6f" x="186.572266"/>
      <use xlink:href="#DejaVuSans-6d" x="247.753906"/>
      <use xlink:href="#DejaVuSans-65" x="345.166016"/>
      <use xlink:href="#DejaVuSans-6e" x="406.689453"/>
      <use xlink:href="#DejaVuSans-74" x="470.068359"/>
      <use xlink:href="#DejaVuSans-75" x="509.277344"/>
      <use xlink:href="#DejaVuSans-6d" x="572.65625"/>
      <use xlink:href="#DejaVuSans-20" x="670.068359"/>
      <use xlink:href="#DejaVuSans-6f" x="701.855469"/>
      <use xlink:href="#DejaVuSans-66" x="763.037109"/>
      <use xlink:href="#DejaVuSans-20" x="798.242188"/>
      <use xlink:href="#DejaVuSans-74" x="830.029297"/>
      <use xlink:href="#DejaVuSans-68" x="869.238281"/>
      <use xlink:href="#DejaVuSans-65" x="932.617188"/>
      <use xlink:href="#DejaVuSans-20" x="994.140625"/>
      <use xlink:href="#DejaVuSans-42" x="1025.927734"/>
      <use xlink:href="#DejaVuSans-6f" x="1094.53125"/>
      <use xlink:href="#DejaVuSans-64" x="1155.712891"/>
      <use xlink:href="#DejaVuSans-79" x="1219.189453"/>
      <use xlink:href="#DejaVuSans-20" x="1278.369141"/>
      <use xlink:href="#DejaVuSans-33" x="1310.15625"/>
     </g>
    </g>
    <g id="line2d_24">
     <path d="M 66.6 98.604813 
L 76.6 98.604813 
L 86.6 98.604813 
" style="fill: none; stroke: #d62728; stroke-width: 1.5; stroke-linecap: square"/>
    </g>
    <g id="text_23">
     <!-- Total X Momentum of System -->
     <g transform="translate(94.6 102.104813) scale(0.1 -0.1)">
      <defs>
       <path id="DejaVuSans-54" d="M -19 4666 
L 3928 4666 
L 3928 4134 
L 2272 4134 
L 2272 0 
L 1638 0 
L 1638 4134 
L -19 4134 
L -19 4666 
z
" transform="scale(0.015625)"/>
       <path id="DejaVuSans-61" d="M 2194 1759 
Q 1497 1759 1228 1600 
Q 959 1441 959 1056 
Q 959 750 1161 570 
Q 1363 391 1709 391 
Q 2188 391 2477 730 
Q 2766 1069 2766 1631 
L 2766 1759 
L 2194 1759 
z
M 3341 1997 
L 3341 0 
L 2766 0 
L 2766 531 
Q 2569 213 2275 61 
Q 1981 -91 1556 -91 
Q 1019 -91 701 211 
Q 384 513 384 1019 
Q 384 1609 779 1909 
Q 1175 2209 1959 2209 
L 2766 2209 
L 2766 2266 
Q 2766 2663 2505 2880 
Q 2244 3097 1772 3097 
Q 1472 3097 1187 3025 
Q 903 2953 641 2809 
L 641 3341 
Q 956 3463 1253 3523 
Q 1550 3584 1831 3584 
Q 2591 3584 2966 3190 
Q 3341 2797 3341 1997 
z
" transform="scale(0.015625)"/>
       <path id="DejaVuSans-6c" d="M 603 4863 
L 1178 4863 
L 1178 0 
L 603 0 
L 603 4863 
z
" transform="scale(0.015625)"/>
       <path id="DejaVuSans-53" d="M 3425 4513 
L 3425 3897 
Q 3066 4069 2747 4153 
Q 2428 4238 2131 4238 
Q 1616 4238 1336 4038 
Q 1056 3838 1056 3469 
Q 1056 3159 1242 3001 
Q 1428 2844 1947 2747 
L 2328 2669 
Q 3034 2534 3370 2195 
Q 3706 1856 3706 1288 
Q 3706 609 3251 259 
Q 2797 -91 1919 -91 
Q 1588 -91 1214 -16 
Q 841 59 441 206 
L 441 856 
Q 825 641 1194 531 
Q 1563 422 1919 422 
Q 2459 422 2753 634 
Q 3047 847 3047 1241 
Q 3047 1584 2836 1778 
Q 2625 1972 2144 2069 
L 1759 2144 
Q 1053 2284 737 2584 
Q 422 2884 422 3419 
Q 422 4038 858 4394 
Q 1294 4750 2059 4750 
Q 2388 4750 2728 4690 
Q 3069 4631 3425 4513 
z
" transform="scale(0.015625)"/>
       <path id="DejaVuSans-73" d="M 2834 3397 
L 2834 2853 
Q 2591 2978 2328 3040 
Q 2066 3103 1784 3103 
Q 1356 3103 1142 2972 
Q 928 2841 928 2578 
Q 928 2378 1081 2264 
Q 1234 2150 1697 2047 
L 1894 2003 
Q 2506 1872 2764 1633 
Q 3022 1394 3022 966 
Q 3022 478 2636 193 
Q 2250 -91 1575 -91 
Q 1294 -91 989 -36 
Q 684 19 347 128 
L 347 722 
Q 666 556 975 473 
Q 1284 391 1588 391 
Q 1994 391 2212 530 
Q 2431 669 2431 922 
Q 2431 1156 2273 1281 
Q 2116 1406 1581 1522 
L 1381 1569 
Q 847 1681 609 1914 
Q 372 2147 372 2553 
Q 372 3047 722 3315 
Q 1072 3584 1716 3584 
Q 2034 3584 2315 3537 
Q 2597 3491 2834 3397 
z
" transform="scale(0.015625)"/>
      </defs>
      <use xlink:href="#DejaVuSans-54"/>
      <use xlink:href="#DejaVuSans-6f" x="44.083984"/>
      <use xlink:href="#DejaVuSans-74" x="105.265625"/>
      <use xlink:href="#DejaVuSans-61" x="144.474609"/>
      <use xlink:href="#DejaVuSans-6c" x="205.753906"/>
      <use xlink:href="#DejaVuSans-20" x="233.537109"/>
      <use xlink:href="#DejaVuSans-58" x="265.324219"/>
      <use xlink:href="#DejaVuSans-20" x="333.830078"/>
      <use xlink:href="#DejaVuSans-4d" x="365.617188"/>
      <use xlink:href="#DejaVuSans-6f" x="451.896484"/>
      <use xlink:href="#DejaVuSans-6d" x="513.078125"/>
      <use xlink:href="#DejaVuSans-65" x="610.490234"/>
      <use xlink:href="#DejaVuSans-6e" x="672.013672"/>
      <use xlink:href="#DejaVuSans-74" x="735.392578"/>
      <use xlink:href="#DejaVuSans-75" x="774.601562"/>
      <use xlink:href="#DejaVuSans-6d" x="837.980469"/>
      <use xlink:href="#DejaVuSans-20" x="935.392578"/>
      <use xlink:href="#DejaVuSans-6f" x="967.179688"/>
      <use xlink:href="#DejaVuSans-66" x="1028.361328"/>
      <use xlink:href="#DejaVuSans-20" x="1063.566406"/>
      <use xlink:href="#DejaVuSans-53" x="1095.353516"/>
      <use xlink:href="#DejaVuSans-79" x="1158.830078"/>
      <use xlink:href="#DejaVuSans-73" x="1218.009766"/>
      <use xlink:href="#DejaVuSans-74" x="1270.109375"/>
      <use xlink:href="#DejaVuSans-65" x="1309.318359"/>
      <use xlink:href="#DejaVuSans-6d" x="1370.841797"/>
     </g>
    </g>
   </g>
  </g>
 </g>
 <defs>
  <clipPath id="pe3eb0d1c02">
   <rect x="57.6" y="41.472" width="357.12" height="266.112"/>
  </clipPath>
 </defs>
</svg>
