<?xml version="1.0" encoding="utf-8" standalone="no"?>
<!DOCTYPE svg PUBLIC "-//W3C//DTD SVG 1.1//EN"
  "http://www.w3.org/Graphics/SVG/1.1/DTD/svg11.dtd">
<svg xmlns:xlink="http://www.w3.org/1999/xlink" width="460.8pt" height="345.6pt" viewBox="0 0 460.8 345.6" xmlns="http://www.w3.org/2000/svg" version="1.1">
 <metadata>
  <rdf:RDF xmlns:dc="http://purl.org/dc/elements/1.1/" xmlns:cc="http://creativecommons.org/ns#" xmlns:rdf="http://www.w3.org/1999/02/22-rdf-syntax-ns#">
   <cc:Work>
    <dc:type rdf:resource="http://purl.org/dc/dcmitype/StillImage"/>
    <dc:date>2024-11-29T10:54:24.581644</dc:date>
    <dc:format>image/svg+xml</dc:format>
    <dc:creator>
     <cc:Agent>
      <dc:title>Matplotlib v3.8.4, https://matplotlib.org/</dc:title>
     </cc:Agent>
    </dc:creator>
   </cc:Work>
  </rdf:RDF>
 </metadata>
 <defs>
  <style type="text/css">*{stroke-linejoin: round; stroke-linecap: butt}</style>
 </defs>
 <g id="figure_1">
  <g id="patch_1">
   <path d="M 0 345.6 
L 460.8 345.6 
L 460.8 0 
L 0 0 
z
" style="fill: #ffffff"/>
  </g>
  <g id="axes_1">
   <g id="patch_2">
    <path d="M 57.6 307.584 
L 414.72 307.584 
L 414.72 41.472 
L 57.6 41.472 
z
" style="fill: #ffffff"/>
   </g>
   <g id="matplotlib.axis_1">
    <g id="xtick_1">
     <g id="line2d_1">
      <defs>
       <path id="m1b12e8aab7" d="M 0 0 
L 0 3.5 
" style="stroke: #000000; stroke-width: 0.8"/>
      </defs>
      <g>
       <use xlink:href="#m1b12e8aab7" x="73.832727" y="307.584" style="stroke: #000000; stroke-width: 0.8"/>
      </g>
     </g>
     <g id="text_1">
      <!-- 0 -->
      <g transform="translate(70.651477 322.182437) scale(0.1 -0.1)">
       <defs>
        <path id="DejaVuSans-30" d="M 2034 4250 
Q 1547 4250 1301 3770 
Q 1056 3291 1056 2328 
Q 1056 1369 1301 889 
Q 1547 409 2034 409 
Q 2525 409 2770 889 
Q 3016 1369 3016 2328 
Q 3016 3291 2770 3770 
Q 2525 4250 2034 4250 
z
M 2034 4750 
Q 2819 4750 3233 4129 
Q 3647 3509 3647 2328 
Q 3647 1150 3233 529 
Q 2819 -91 2034 -91 
Q 1250 -91 836 529 
Q 422 1150 422 2328 
Q 422 3509 836 4129 
Q 1250 4750 2034 4750 
z
" transform="scale(0.015625)"/>
       </defs>
       <use xlink:href="#DejaVuSans-30"/>
      </g>
     </g>
    </g>
    <g id="xtick_2">
     <g id="line2d_2">
      <g>
       <use xlink:href="#m1b12e8aab7" x="126.196364" y="307.584" style="stroke: #000000; stroke-width: 0.8"/>
      </g>
     </g>
     <g id="text_2">
      <!-- 1 -->
      <g transform="translate(123.015114 322.182437) scale(0.1 -0.1)">
       <defs>
        <path id="DejaVuSans-31" d="M 794 531 
L 1825 531 
L 1825 4091 
L 703 3866 
L 703 4441 
L 1819 4666 
L 2450 4666 
L 2450 531 
L 3481 531 
L 3481 0 
L 794 0 
L 794 531 
z
" transform="scale(0.015625)"/>
       </defs>
       <use xlink:href="#DejaVuSans-31"/>
      </g>
     </g>
    </g>
    <g id="xtick_3">
     <g id="line2d_3">
      <g>
       <use xlink:href="#m1b12e8aab7" x="178.56" y="307.584" style="stroke: #000000; stroke-width: 0.8"/>
      </g>
     </g>
     <g id="text_3">
      <!-- 2 -->
      <g transform="translate(175.37875 322.182437) scale(0.1 -0.1)">
       <defs>
        <path id="DejaVuSans-32" d="M 1228 531 
L 3431 531 
L 3431 0 
L 469 0 
L 469 531 
Q 828 903 1448 1529 
Q 2069 2156 2228 2338 
Q 2531 2678 2651 2914 
Q 2772 3150 2772 3378 
Q 2772 3750 2511 3984 
Q 2250 4219 1831 4219 
Q 1534 4219 1204 4116 
Q 875 4013 500 3803 
L 500 4441 
Q 881 4594 1212 4672 
Q 1544 4750 1819 4750 
Q 2544 4750 2975 4387 
Q 3406 4025 3406 3419 
Q 3406 3131 3298 2873 
Q 3191 2616 2906 2266 
Q 2828 2175 2409 1742 
Q 1991 1309 1228 531 
z
" transform="scale(0.015625)"/>
       </defs>
       <use xlink:href="#DejaVuSans-32"/>
      </g>
     </g>
    </g>
    <g id="xtick_4">
     <g id="line2d_4">
      <g>
       <use xlink:href="#m1b12e8aab7" x="230.923636" y="307.584" style="stroke: #000000; stroke-width: 0.8"/>
      </g>
     </g>
     <g id="text_4">
      <!-- 3 -->
      <g transform="translate(227.742386 322.182437) scale(0.1 -0.1)">
       <defs>
        <path id="DejaVuSans-33" d="M 2597 2516 
Q 3050 2419 3304 2112 
Q 3559 1806 3559 1356 
Q 3559 666 3084 287 
Q 2609 -91 1734 -91 
Q 1441 -91 1130 -33 
Q 819 25 488 141 
L 488 750 
Q 750 597 1062 519 
Q 1375 441 1716 441 
Q 2309 441 2620 675 
Q 2931 909 2931 1356 
Q 2931 1769 2642 2001 
Q 2353 2234 1838 2234 
L 1294 2234 
L 1294 2753 
L 1863 2753 
Q 2328 2753 2575 2939 
Q 2822 3125 2822 3475 
Q 2822 3834 2567 4026 
Q 2313 4219 1838 4219 
Q 1578 4219 1281 4162 
Q 984 4106 628 3988 
L 628 4550 
Q 988 4650 1302 4700 
Q 1616 4750 1894 4750 
Q 2613 4750 3031 4423 
Q 3450 4097 3450 3541 
Q 3450 3153 3228 2886 
Q 3006 2619 2597 2516 
z
" transform="scale(0.015625)"/>
       </defs>
       <use xlink:href="#DejaVuSans-33"/>
      </g>
     </g>
    </g>
    <g id="xtick_5">
     <g id="line2d_5">
      <g>
       <use xlink:href="#m1b12e8aab7" x="283.287273" y="307.584" style="stroke: #000000; stroke-width: 0.8"/>
      </g>
     </g>
     <g id="text_5">
      <!-- 4 -->
      <g transform="translate(280.106023 322.182437) scale(0.1 -0.1)">
       <defs>
        <path id="DejaVuSans-34" d="M 2419 4116 
L 825 1625 
L 2419 1625 
L 2419 4116 
z
M 2253 4666 
L 3047 4666 
L 3047 1625 
L 3713 1625 
L 3713 1100 
L 3047 1100 
L 3047 0 
L 2419 0 
L 2419 1100 
L 313 1100 
L 313 1709 
L 2253 4666 
z
" transform="scale(0.015625)"/>
       </defs>
       <use xlink:href="#DejaVuSans-34"/>
      </g>
     </g>
    </g>
    <g id="xtick_6">
     <g id="line2d_6">
      <g>
       <use xlink:href="#m1b12e8aab7" x="335.650909" y="307.584" style="stroke: #000000; stroke-width: 0.8"/>
      </g>
     </g>
     <g id="text_6">
      <!-- 5 -->
      <g transform="translate(332.469659 322.182437) scale(0.1 -0.1)">
       <defs>
        <path id="DejaVuSans-35" d="M 691 4666 
L 3169 4666 
L 3169 4134 
L 1269 4134 
L 1269 2991 
Q 1406 3038 1543 3061 
Q 1681 3084 1819 3084 
Q 2600 3084 3056 2656 
Q 3513 2228 3513 1497 
Q 3513 744 3044 326 
Q 2575 -91 1722 -91 
Q 1428 -91 1123 -41 
Q 819 9 494 109 
L 494 744 
Q 775 591 1075 516 
Q 1375 441 1709 441 
Q 2250 441 2565 725 
Q 2881 1009 2881 1497 
Q 2881 1984 2565 2268 
Q 2250 2553 1709 2553 
Q 1456 2553 1204 2497 
Q 953 2441 691 2322 
L 691 4666 
z
" transform="scale(0.015625)"/>
       </defs>
       <use xlink:href="#DejaVuSans-35"/>
      </g>
     </g>
    </g>
    <g id="xtick_7">
     <g id="line2d_7">
      <g>
       <use xlink:href="#m1b12e8aab7" x="388.014545" y="307.584" style="stroke: #000000; stroke-width: 0.8"/>
      </g>
     </g>
     <g id="text_7">
      <!-- 6 -->
      <g transform="translate(384.833295 322.182437) scale(0.1 -0.1)">
       <defs>
        <path id="DejaVuSans-36" d="M 2113 2584 
Q 1688 2584 1439 2293 
Q 1191 2003 1191 1497 
Q 1191 994 1439 701 
Q 1688 409 2113 409 
Q 2538 409 2786 701 
Q 3034 994 3034 1497 
Q 3034 2003 2786 2293 
Q 2538 2584 2113 2584 
z
M 3366 4563 
L 3366 3988 
Q 3128 4100 2886 4159 
Q 2644 4219 2406 4219 
Q 1781 4219 1451 3797 
Q 1122 3375 1075 2522 
Q 1259 2794 1537 2939 
Q 1816 3084 2150 3084 
Q 2853 3084 3261 2657 
Q 3669 2231 3669 1497 
Q 3669 778 3244 343 
Q 2819 -91 2113 -91 
Q 1303 -91 875 529 
Q 447 1150 447 2328 
Q 447 3434 972 4092 
Q 1497 4750 2381 4750 
Q 2619 4750 2861 4703 
Q 3103 4656 3366 4563 
z
" transform="scale(0.015625)"/>
       </defs>
       <use xlink:href="#DejaVuSans-36"/>
      </g>
     </g>
    </g>
    <g id="text_8">
     <!-- Time (s) -->
     <g transform="translate(217.264688 335.762125) scale(0.1 -0.1)">
      <defs>
       <path id="CMUSerif-Roman-54" d="M 230 2893 
L 352 4333 
L 4262 4333 
L 4384 2893 
L 4224 2893 
Q 4198 3181 4176 3347 
Q 4154 3514 4099 3670 
Q 4045 3827 3977 3904 
Q 3910 3981 3782 4041 
Q 3654 4102 3488 4118 
Q 3322 4134 3072 4134 
Q 2778 4134 2707 4122 
Q 2630 4102 2611 4048 
Q 2592 3994 2592 3878 
L 2592 506 
Q 2592 378 2617 326 
Q 2643 275 2790 236 
Q 2938 198 3264 198 
L 3520 198 
L 3520 0 
Q 3258 19 2304 19 
Q 1357 19 1094 0 
L 1094 198 
L 1350 198 
Q 1677 198 1824 236 
Q 1971 275 1996 326 
Q 2022 378 2022 506 
L 2022 3878 
Q 2022 3968 2016 4006 
Q 2010 4045 1981 4077 
Q 1952 4109 1888 4121 
Q 1824 4134 1542 4134 
Q 1293 4134 1126 4118 
Q 960 4102 832 4041 
Q 704 3981 637 3904 
Q 570 3827 515 3670 
Q 461 3514 438 3347 
Q 416 3181 390 2893 
L 230 2893 
z
" transform="scale(0.015625)"/>
       <path id="CMUSerif-Roman-69" d="M 211 0 
L 211 198 
Q 550 198 630 240 
Q 710 282 710 486 
L 710 2208 
Q 710 2445 630 2502 
Q 550 2560 237 2560 
L 237 2758 
L 1133 2829 
L 1133 480 
Q 1133 288 1200 243 
Q 1267 198 1581 198 
L 1581 0 
Q 928 19 915 19 
Q 826 19 211 0 
z
M 480 3942 
Q 480 4070 579 4176 
Q 678 4282 819 4282 
Q 960 4282 1059 4186 
Q 1158 4090 1158 3942 
Q 1158 3795 1059 3699 
Q 960 3603 819 3603 
Q 672 3603 576 3705 
Q 480 3808 480 3942 
z
" transform="scale(0.015625)"/>
       <path id="CMUSerif-Roman-6d" d="M 205 0 
L 205 198 
Q 544 198 624 240 
Q 704 282 704 486 
L 704 2202 
Q 704 2438 621 2499 
Q 538 2560 205 2560 
L 205 2758 
L 1107 2829 
L 1107 2157 
Q 1408 2829 2054 2829 
Q 2803 2829 2906 2202 
Q 3014 2445 3244 2637 
Q 3475 2829 3834 2829 
Q 4314 2829 4506 2592 
Q 4646 2432 4675 2253 
Q 4704 2074 4704 1613 
L 4704 390 
Q 4710 256 4812 227 
Q 4915 198 5203 198 
L 5203 0 
Q 4550 19 4486 19 
Q 4435 19 3763 0 
L 3763 198 
Q 4102 198 4182 240 
Q 4262 282 4262 486 
L 4262 1978 
Q 4262 2304 4163 2496 
Q 4064 2688 3789 2688 
Q 3456 2688 3190 2409 
Q 2925 2131 2925 1664 
L 2925 486 
Q 2925 282 3005 240 
Q 3085 198 3424 198 
L 3424 0 
Q 2771 19 2707 19 
Q 2656 19 1984 0 
L 1984 198 
Q 2323 198 2403 240 
Q 2483 282 2483 486 
L 2483 1978 
Q 2483 2304 2384 2496 
Q 2285 2688 2010 2688 
Q 1677 2688 1411 2409 
Q 1146 2131 1146 1664 
L 1146 486 
Q 1146 282 1226 240 
Q 1306 198 1645 198 
L 1645 0 
Q 992 19 928 19 
Q 877 19 205 0 
z
" transform="scale(0.015625)"/>
       <path id="CMUSerif-Roman-65" d="M 179 1408 
Q 179 2010 566 2438 
Q 954 2867 1510 2867 
Q 2074 2867 2365 2502 
Q 2656 2138 2656 1613 
Q 2656 1517 2630 1497 
Q 2605 1478 2496 1478 
L 710 1478 
Q 710 826 902 518 
Q 1171 90 1626 90 
Q 1690 90 1763 102 
Q 1837 115 1990 169 
Q 2144 224 2278 371 
Q 2413 518 2490 749 
Q 2509 838 2573 838 
Q 2656 838 2656 762 
Q 2656 704 2595 579 
Q 2534 454 2419 304 
Q 2304 154 2080 42 
Q 1856 -70 1587 -70 
Q 1024 -70 601 355 
Q 179 781 179 1408 
z
M 717 1613 
L 2234 1613 
Q 2234 1747 2211 1897 
Q 2189 2048 2121 2256 
Q 2054 2464 1897 2595 
Q 1741 2726 1510 2726 
Q 1408 2726 1296 2681 
Q 1184 2637 1049 2531 
Q 915 2426 822 2186 
Q 730 1946 717 1613 
z
" transform="scale(0.015625)"/>
       <path id="CMUSerif-Roman-20" transform="scale(0.015625)"/>
       <path id="CMUSerif-Roman-28" d="M 634 1600 
Q 634 2682 1037 3552 
Q 1210 3917 1450 4224 
Q 1690 4531 1850 4665 
Q 2010 4800 2054 4800 
Q 2118 4800 2118 4736 
Q 2118 4704 2035 4627 
Q 1005 3578 1005 1600 
Q 1005 -384 2010 -1395 
Q 2118 -1504 2118 -1536 
Q 2118 -1600 2054 -1600 
Q 2010 -1600 1856 -1472 
Q 1702 -1344 1465 -1049 
Q 1229 -755 1056 -397 
Q 634 474 634 1600 
z
" transform="scale(0.015625)"/>
       <path id="CMUSerif-Roman-73" d="M 211 83 
L 211 928 
Q 211 998 214 1024 
Q 218 1050 237 1069 
Q 256 1088 294 1088 
Q 339 1088 355 1069 
Q 371 1050 384 979 
Q 480 538 688 304 
Q 896 70 1274 70 
Q 1632 70 1814 230 
Q 1997 390 1997 653 
Q 1997 1120 1331 1242 
Q 947 1318 787 1369 
Q 627 1421 486 1536 
Q 211 1760 211 2080 
Q 211 2400 454 2633 
Q 698 2867 1235 2867 
Q 1594 2867 1837 2688 
Q 1907 2746 1946 2790 
Q 2029 2867 2074 2867 
Q 2125 2867 2134 2835 
Q 2144 2803 2144 2714 
L 2144 2067 
Q 2144 1997 2141 1971 
Q 2138 1946 2118 1930 
Q 2099 1914 2061 1914 
Q 1990 1914 1984 1971 
Q 1933 2746 1235 2746 
Q 858 2746 688 2602 
Q 518 2458 518 2259 
Q 518 2150 569 2067 
Q 621 1984 688 1936 
Q 755 1888 880 1843 
Q 1005 1798 1081 1782 
Q 1158 1766 1306 1734 
Q 1818 1638 2035 1427 
Q 2304 1158 2304 819 
Q 2304 442 2048 186 
Q 1792 -70 1274 -70 
Q 858 -70 570 205 
Q 531 166 502 134 
Q 474 102 464 89 
Q 454 77 451 70 
Q 448 64 442 58 
Q 314 -70 282 -70 
Q 230 -70 220 -38 
Q 211 -6 211 83 
z
" transform="scale(0.015625)"/>
       <path id="CMUSerif-Roman-29" d="M 365 -1536 
Q 365 -1504 448 -1427 
Q 1478 -378 1478 1600 
Q 1478 3584 486 4589 
Q 365 4704 365 4736 
Q 365 4800 429 4800 
Q 474 4800 627 4672 
Q 781 4544 1017 4249 
Q 1254 3955 1427 3597 
Q 1850 2726 1850 1600 
Q 1850 518 1446 -352 
Q 1274 -717 1034 -1024 
Q 794 -1331 634 -1465 
Q 474 -1600 429 -1600 
Q 365 -1600 365 -1536 
z
" transform="scale(0.015625)"/>
      </defs>
      <use xlink:href="#CMUSerif-Roman-54"/>
      <use xlink:href="#CMUSerif-Roman-69" x="72.199982"/>
      <use xlink:href="#CMUSerif-Roman-6d" x="99.899979"/>
      <use xlink:href="#CMUSerif-Roman-65" x="183.199966"/>
      <use xlink:href="#CMUSerif-Roman-20" x="227.59996"/>
      <use xlink:href="#CMUSerif-Roman-28" x="260.899948"/>
      <use xlink:href="#CMUSerif-Roman-73" x="299.699936"/>
      <use xlink:href="#CMUSerif-Roman-29" x="339.09993"/>
     </g>
    </g>
    <g id="text_9">
     <!-- 1e7 -->
     <g transform="translate(395.841875 334.860562) scale(0.1 -0.1)">
      <defs>
       <path id="DejaVuSans-65" d="M 3597 1894 
L 3597 1613 
L 953 1613 
Q 991 1019 1311 708 
Q 1631 397 2203 397 
Q 2534 397 2845 478 
Q 3156 559 3463 722 
L 3463 178 
Q 3153 47 2828 -22 
Q 2503 -91 2169 -91 
Q 1331 -91 842 396 
Q 353 884 353 1716 
Q 353 2575 817 3079 
Q 1281 3584 2069 3584 
Q 2775 3584 3186 3129 
Q 3597 2675 3597 1894 
z
M 3022 2063 
Q 3016 2534 2758 2815 
Q 2500 3097 2075 3097 
Q 1594 3097 1305 2825 
Q 1016 2553 972 2059 
L 3022 2063 
z
" transform="scale(0.015625)"/>
       <path id="DejaVuSans-37" d="M 525 4666 
L 3525 4666 
L 3525 4397 
L 1831 0 
L 1172 0 
L 2766 4134 
L 525 4134 
L 525 4666 
z
" transform="scale(0.015625)"/>
      </defs>
      <use xlink:href="#DejaVuSans-31"/>
      <use xlink:href="#DejaVuSans-65" x="63.623047"/>
      <use xlink:href="#DejaVuSans-37" x="125.146484"/>
     </g>
    </g>
   </g>
   <g id="matplotlib.axis_2">
    <g id="ytick_1">
     <g id="line2d_8">
      <defs>
       <path id="ma06a3ee075" d="M 0 0 
L -3.5 0 
" style="stroke: #000000; stroke-width: 0.8"/>
      </defs>
      <g>
       <use xlink:href="#ma06a3ee075" x="57.6" y="275.077327" style="stroke: #000000; stroke-width: 0.8"/>
      </g>
     </g>
     <g id="text_10">
      <!-- 2.681 -->
      <g transform="translate(21.971875 278.876546) scale(0.1 -0.1)">
       <defs>
        <path id="DejaVuSans-2e" d="M 684 794 
L 1344 794 
L 1344 0 
L 684 0 
L 684 794 
z
" transform="scale(0.015625)"/>
        <path id="DejaVuSans-38" d="M 2034 2216 
Q 1584 2216 1326 1975 
Q 1069 1734 1069 1313 
Q 1069 891 1326 650 
Q 1584 409 2034 409 
Q 2484 409 2743 651 
Q 3003 894 3003 1313 
Q 3003 1734 2745 1975 
Q 2488 2216 2034 2216 
z
M 1403 2484 
Q 997 2584 770 2862 
Q 544 3141 544 3541 
Q 544 4100 942 4425 
Q 1341 4750 2034 4750 
Q 2731 4750 3128 4425 
Q 3525 4100 3525 3541 
Q 3525 3141 3298 2862 
Q 3072 2584 2669 2484 
Q 3125 2378 3379 2068 
Q 3634 1759 3634 1313 
Q 3634 634 3220 271 
Q 2806 -91 2034 -91 
Q 1263 -91 848 271 
Q 434 634 434 1313 
Q 434 1759 690 2068 
Q 947 2378 1403 2484 
z
M 1172 3481 
Q 1172 3119 1398 2916 
Q 1625 2713 2034 2713 
Q 2441 2713 2670 2916 
Q 2900 3119 2900 3481 
Q 2900 3844 2670 4047 
Q 2441 4250 2034 4250 
Q 1625 4250 1398 4047 
Q 1172 3844 1172 3481 
z
" transform="scale(0.015625)"/>
       </defs>
       <use xlink:href="#DejaVuSans-32"/>
       <use xlink:href="#DejaVuSans-2e" x="63.623047"/>
       <use xlink:href="#DejaVuSans-36" x="95.410156"/>
       <use xlink:href="#DejaVuSans-38" x="159.033203"/>
       <use xlink:href="#DejaVuSans-31" x="222.65625"/>
      </g>
     </g>
    </g>
    <g id="ytick_2">
     <g id="line2d_9">
      <g>
       <use xlink:href="#ma06a3ee075" x="57.6" y="221.486512" style="stroke: #000000; stroke-width: 0.8"/>
      </g>
     </g>
     <g id="text_11">
      <!-- 2.682 -->
      <g transform="translate(21.971875 225.285731) scale(0.1 -0.1)">
       <use xlink:href="#DejaVuSans-32"/>
       <use xlink:href="#DejaVuSans-2e" x="63.623047"/>
       <use xlink:href="#DejaVuSans-36" x="95.410156"/>
       <use xlink:href="#DejaVuSans-38" x="159.033203"/>
       <use xlink:href="#DejaVuSans-32" x="222.65625"/>
      </g>
     </g>
    </g>
    <g id="ytick_3">
     <g id="line2d_10">
      <g>
       <use xlink:href="#ma06a3ee075" x="57.6" y="167.895697" style="stroke: #000000; stroke-width: 0.8"/>
      </g>
     </g>
     <g id="text_12">
      <!-- 2.683 -->
      <g transform="translate(21.971875 171.694916) scale(0.1 -0.1)">
       <use xlink:href="#DejaVuSans-32"/>
       <use xlink:href="#DejaVuSans-2e" x="63.623047"/>
       <use xlink:href="#DejaVuSans-36" x="95.410156"/>
       <use xlink:href="#DejaVuSans-38" x="159.033203"/>
       <use xlink:href="#DejaVuSans-33" x="222.65625"/>
      </g>
     </g>
    </g>
    <g id="ytick_4">
     <g id="line2d_11">
      <g>
       <use xlink:href="#ma06a3ee075" x="57.6" y="114.304882" style="stroke: #000000; stroke-width: 0.8"/>
      </g>
     </g>
     <g id="text_13">
      <!-- 2.684 -->
      <g transform="translate(21.971875 118.104101) scale(0.1 -0.1)">
       <use xlink:href="#DejaVuSans-32"/>
       <use xlink:href="#DejaVuSans-2e" x="63.623047"/>
       <use xlink:href="#DejaVuSans-36" x="95.410156"/>
       <use xlink:href="#DejaVuSans-38" x="159.033203"/>
       <use xlink:href="#DejaVuSans-34" x="222.65625"/>
      </g>
     </g>
    </g>
    <g id="ytick_5">
     <g id="line2d_12">
      <g>
       <use xlink:href="#ma06a3ee075" x="57.6" y="60.714067" style="stroke: #000000; stroke-width: 0.8"/>
      </g>
     </g>
     <g id="text_14">
      <!-- 2.685 -->
      <g transform="translate(21.971875 64.513286) scale(0.1 -0.1)">
       <use xlink:href="#DejaVuSans-32"/>
       <use xlink:href="#DejaVuSans-2e" x="63.623047"/>
       <use xlink:href="#DejaVuSans-36" x="95.410156"/>
       <use xlink:href="#DejaVuSans-38" x="159.033203"/>
       <use xlink:href="#DejaVuSans-35" x="222.65625"/>
      </g>
     </g>
    </g>
    <g id="text_15">
     <!-- Total Energy of the System (J) -->
     <g transform="translate(15.471875 243.382687) rotate(-90) scale(0.1 -0.1)">
      <defs>
       <path id="CMUSerif-Roman-6f" d="M 601 346 
Q 179 762 179 1370 
Q 179 1978 592 2422 
Q 1005 2867 1600 2867 
Q 2182 2867 2598 2425 
Q 3014 1984 3014 1370 
Q 3014 768 2595 349 
Q 2176 -70 1594 -70 
Q 1024 -70 601 346 
z
M 710 1421 
Q 710 800 870 518 
Q 1120 90 1600 90 
Q 1837 90 2035 218 
Q 2234 346 2342 563 
Q 2483 845 2483 1421 
Q 2483 2035 2317 2310 
Q 2067 2726 1594 2726 
Q 1389 2726 1187 2617 
Q 986 2509 864 2298 
Q 710 2016 710 1421 
z
" transform="scale(0.015625)"/>
       <path id="CMUSerif-Roman-74" d="M 122 2560 
L 122 2701 
Q 416 2714 611 2922 
Q 806 3130 873 3386 
Q 941 3642 947 3936 
L 1107 3936 
L 1107 2758 
L 2022 2758 
L 2022 2560 
L 1107 2560 
L 1107 781 
Q 1107 90 1536 90 
Q 1722 90 1843 278 
Q 1965 467 1965 806 
L 1965 1158 
L 2125 1158 
L 2125 794 
Q 2125 448 1965 189 
Q 1805 -70 1491 -70 
Q 1376 -70 1261 -41 
Q 1146 -13 998 64 
Q 851 141 758 329 
Q 666 518 666 794 
L 666 2560 
L 122 2560 
z
" transform="scale(0.015625)"/>
       <path id="CMUSerif-Roman-61" d="M 269 608 
Q 269 1152 909 1440 
Q 1293 1626 2086 1670 
L 2086 1907 
Q 2086 2304 1878 2515 
Q 1670 2726 1408 2726 
Q 941 2726 717 2432 
Q 909 2426 976 2330 
Q 1043 2234 1043 2138 
Q 1043 2010 963 1926 
Q 883 1843 749 1843 
Q 621 1843 537 1923 
Q 454 2003 454 2144 
Q 454 2458 736 2662 
Q 1018 2867 1421 2867 
Q 1946 2867 2298 2515 
Q 2406 2406 2460 2265 
Q 2515 2125 2521 2032 
Q 2528 1939 2528 1760 
L 2528 480 
Q 2528 442 2541 381 
Q 2554 320 2611 240 
Q 2669 160 2765 160 
Q 2995 160 2995 570 
L 2995 928 
L 3155 928 
L 3155 570 
Q 3155 230 2976 96 
Q 2797 -38 2630 -38 
Q 2419 -38 2284 118 
Q 2150 275 2131 486 
Q 2035 243 1814 86 
Q 1594 -70 1293 -70 
Q 1062 -70 844 -12 
Q 627 45 448 205 
Q 269 365 269 608 
z
M 762 614 
Q 762 378 931 224 
Q 1101 70 1338 70 
Q 1606 70 1846 278 
Q 2086 486 2086 896 
L 2086 1536 
Q 1376 1510 1069 1228 
Q 762 947 762 614 
z
" transform="scale(0.015625)"/>
       <path id="CMUSerif-Roman-6c" d="M 211 0 
L 211 198 
Q 550 198 630 240 
Q 710 282 710 486 
L 710 3814 
Q 710 4051 627 4112 
Q 544 4173 211 4173 
L 211 4371 
L 1133 4442 
L 1133 486 
Q 1133 282 1213 240 
Q 1293 198 1632 198 
L 1632 0 
Q 1555 0 1392 6 
Q 1229 13 1110 16 
Q 992 19 922 19 
Q 845 19 211 0 
z
" transform="scale(0.015625)"/>
       <path id="CMUSerif-Roman-45" d="M 211 0 
L 211 198 
L 365 198 
Q 710 198 790 256 
Q 870 314 870 499 
L 870 3853 
Q 870 4038 790 4096 
Q 710 4154 365 4154 
L 211 4154 
L 211 4352 
L 3814 4352 
L 3994 2912 
L 3834 2912 
Q 3789 3277 3731 3488 
Q 3674 3699 3536 3862 
Q 3398 4026 3171 4090 
Q 2944 4154 2579 4154 
L 1754 4154 
Q 1536 4154 1488 4109 
Q 1440 4064 1440 3898 
L 1440 2362 
L 2016 2362 
Q 2458 2362 2582 2515 
Q 2707 2669 2707 3110 
L 2867 3110 
L 2867 1414 
L 2707 1414 
Q 2707 1850 2582 2006 
Q 2458 2163 2016 2163 
L 1440 2163 
L 1440 454 
Q 1440 288 1488 243 
Q 1536 198 1754 198 
L 2605 198 
Q 2880 198 3081 233 
Q 3283 269 3424 358 
Q 3565 448 3661 550 
Q 3757 653 3824 838 
Q 3891 1024 3929 1197 
Q 3968 1370 4013 1651 
L 4173 1651 
L 3904 0 
L 211 0 
z
" transform="scale(0.015625)"/>
       <path id="CMUSerif-Roman-6e" d="M 205 0 
L 205 198 
Q 544 198 624 240 
Q 704 282 704 486 
L 704 2202 
Q 704 2438 621 2499 
Q 538 2560 205 2560 
L 205 2758 
L 1107 2829 
L 1107 2157 
Q 1408 2829 2054 2829 
Q 2534 2829 2726 2592 
Q 2867 2432 2896 2253 
Q 2925 2074 2925 1613 
L 2925 390 
Q 2931 256 3033 227 
Q 3136 198 3424 198 
L 3424 0 
Q 2771 19 2707 19 
Q 2656 19 1984 0 
L 1984 198 
Q 2323 198 2403 240 
Q 2483 282 2483 486 
L 2483 1978 
Q 2483 2304 2384 2496 
Q 2285 2688 2010 2688 
Q 1677 2688 1411 2409 
Q 1146 2131 1146 1664 
L 1146 486 
Q 1146 282 1226 240 
Q 1306 198 1645 198 
L 1645 0 
Q 992 19 928 19 
Q 877 19 205 0 
z
" transform="scale(0.015625)"/>
       <path id="CMUSerif-Roman-72" d="M 179 0 
L 179 198 
Q 518 198 598 240 
Q 678 282 678 486 
L 678 2202 
Q 678 2438 595 2499 
Q 512 2560 179 2560 
L 179 2758 
L 1069 2829 
L 1069 2125 
Q 1158 2400 1350 2614 
Q 1542 2829 1856 2829 
Q 2061 2829 2195 2713 
Q 2330 2598 2330 2438 
Q 2330 2298 2243 2227 
Q 2157 2157 2054 2157 
Q 1939 2157 1859 2230 
Q 1779 2304 1779 2432 
Q 1779 2509 1814 2569 
Q 1850 2630 1878 2652 
Q 1907 2675 1926 2682 
Q 1914 2688 1856 2688 
Q 1504 2688 1302 2336 
Q 1101 1984 1101 1485 
L 1101 499 
Q 1101 314 1177 256 
Q 1254 198 1587 198 
L 1722 198 
L 1722 0 
Q 1466 19 909 19 
Q 832 19 710 16 
Q 589 13 429 6 
Q 269 0 179 0 
z
" transform="scale(0.015625)"/>
       <path id="CMUSerif-Roman-67" d="M 179 -506 
Q 179 -301 336 -121 
Q 493 58 768 134 
Q 486 314 486 704 
Q 486 1005 685 1235 
Q 384 1485 384 1894 
Q 384 2272 685 2550 
Q 986 2829 1421 2829 
Q 1805 2829 2099 2598 
Q 2406 2899 2778 2899 
Q 2944 2899 3024 2796 
Q 3104 2694 3104 2586 
Q 3104 2490 3043 2442 
Q 2982 2394 2918 2394 
Q 2842 2394 2787 2445 
Q 2733 2496 2733 2579 
Q 2733 2714 2835 2752 
Q 2816 2758 2771 2758 
Q 2458 2758 2195 2509 
Q 2458 2266 2458 1888 
Q 2458 1510 2157 1232 
Q 1856 954 1421 954 
Q 1062 954 787 1152 
Q 678 1024 678 851 
Q 678 691 774 566 
Q 870 442 1018 422 
Q 1062 416 1498 416 
Q 1754 416 1894 409 
Q 2035 403 2236 361 
Q 2438 320 2598 237 
Q 3014 6 3014 -493 
Q 3014 -858 2595 -1088 
Q 2176 -1318 1594 -1318 
Q 1005 -1318 592 -1084 
Q 179 -851 179 -506 
z
M 512 -506 
Q 512 -768 822 -969 
Q 1133 -1171 1600 -1171 
Q 2061 -1171 2371 -972 
Q 2682 -774 2682 -506 
Q 2682 -314 2573 -192 
Q 2464 -70 2240 -22 
Q 2016 26 1859 35 
Q 1702 45 1414 45 
L 1037 45 
Q 819 32 665 -128 
Q 512 -288 512 -506 
z
M 864 1888 
Q 864 1101 1421 1101 
Q 1702 1101 1875 1357 
Q 1978 1530 1978 1894 
Q 1978 2682 1421 2682 
Q 1139 2682 966 2426 
Q 864 2253 864 1888 
z
" transform="scale(0.015625)"/>
       <path id="CMUSerif-Roman-79" d="M 122 -794 
Q 122 -659 202 -588 
Q 282 -518 390 -518 
Q 506 -518 582 -592 
Q 659 -666 659 -787 
Q 659 -1024 410 -1056 
Q 531 -1171 710 -1171 
Q 902 -1171 1056 -1030 
Q 1210 -890 1277 -755 
Q 1344 -621 1440 -378 
Q 1530 -186 1600 0 
L 640 2336 
Q 576 2490 480 2525 
Q 384 2560 122 2560 
L 122 2758 
Q 410 2739 742 2739 
Q 941 2739 1440 2758 
L 1440 2560 
Q 1082 2560 1082 2394 
Q 1082 2374 1120 2278 
L 1830 557 
L 2477 2131 
Q 2515 2221 2515 2285 
Q 2515 2547 2214 2560 
L 2214 2758 
Q 2637 2739 2771 2739 
Q 3034 2739 3251 2758 
L 3251 2560 
Q 2822 2560 2656 2150 
L 1530 -582 
Q 1222 -1312 710 -1312 
Q 467 -1312 294 -1161 
Q 122 -1011 122 -794 
z
" transform="scale(0.015625)"/>
       <path id="CMUSerif-Roman-66" d="M 211 2560 
L 211 2758 
L 717 2758 
L 717 3494 
Q 717 3968 1024 4240 
Q 1331 4512 1709 4512 
Q 1958 4512 2121 4377 
Q 2285 4243 2285 4064 
Q 2285 3942 2211 3862 
Q 2138 3782 2003 3782 
Q 1875 3782 1801 3862 
Q 1728 3942 1728 4058 
Q 1728 4262 1920 4326 
Q 1824 4371 1709 4371 
Q 1478 4371 1299 4134 
Q 1120 3898 1120 3501 
L 1120 2758 
L 1869 2758 
L 1869 2560 
L 1139 2560 
L 1139 499 
Q 1139 314 1216 256 
Q 1293 198 1626 198 
L 1760 198 
L 1760 0 
Q 1504 19 947 19 
Q 870 19 748 16 
Q 627 13 467 6 
Q 307 0 218 0 
L 218 198 
Q 557 198 637 240 
Q 717 282 717 486 
L 717 2560 
L 211 2560 
z
" transform="scale(0.015625)"/>
       <path id="CMUSerif-Roman-68" d="M 205 0 
L 205 198 
Q 544 198 624 240 
Q 704 282 704 486 
L 704 3814 
Q 704 4051 621 4112 
Q 538 4173 205 4173 
L 205 4371 
L 1126 4442 
L 1126 2214 
L 1133 2214 
Q 1235 2445 1465 2637 
Q 1696 2829 2054 2829 
Q 2534 2829 2726 2592 
Q 2867 2432 2896 2253 
Q 2925 2074 2925 1613 
L 2925 390 
Q 2931 256 3033 227 
Q 3136 198 3424 198 
L 3424 0 
Q 2771 19 2707 19 
Q 2656 19 1984 0 
L 1984 198 
Q 2323 198 2403 240 
Q 2483 282 2483 486 
L 2483 1978 
Q 2483 2304 2384 2496 
Q 2285 2688 2010 2688 
Q 1677 2688 1411 2409 
Q 1146 2131 1146 1664 
L 1146 486 
Q 1146 282 1226 240 
Q 1306 198 1645 198 
L 1645 0 
Q 992 19 928 19 
Q 877 19 205 0 
z
" transform="scale(0.015625)"/>
       <path id="CMUSerif-Roman-53" d="M 358 13 
L 358 1293 
Q 358 1363 361 1388 
Q 365 1414 384 1433 
Q 403 1453 442 1453 
Q 512 1453 518 1389 
Q 538 755 915 403 
Q 1286 58 1926 58 
Q 2310 58 2547 333 
Q 2784 608 2784 973 
Q 2784 1318 2586 1562 
Q 2502 1670 2396 1740 
Q 2291 1811 2227 1833 
Q 2163 1856 2042 1888 
Q 1248 2080 1197 2099 
Q 819 2227 588 2550 
Q 358 2874 358 3270 
Q 358 3782 720 4147 
Q 1082 4512 1606 4512 
Q 1869 4512 2089 4429 
Q 2310 4346 2400 4272 
Q 2490 4198 2630 4064 
L 2854 4429 
Q 2906 4512 2950 4512 
Q 3002 4512 3011 4483 
Q 3021 4454 3021 4358 
L 3021 3072 
Q 3021 3002 3017 2976 
Q 3014 2950 2995 2934 
Q 2976 2918 2938 2918 
Q 2874 2918 2861 2995 
Q 2682 4333 1613 4333 
Q 1248 4333 1008 4086 
Q 768 3840 768 3494 
Q 768 3213 944 2982 
Q 1120 2752 1414 2682 
L 2234 2483 
Q 2643 2387 2918 2025 
Q 3194 1664 3194 1190 
Q 3194 646 2838 252 
Q 2483 -141 1933 -141 
Q 1536 -141 1229 -9 
Q 922 122 755 307 
Q 627 96 544 -26 
L 525 -58 
Q 474 -141 429 -141 
Q 378 -141 368 -109 
Q 358 -77 358 13 
z
" transform="scale(0.015625)"/>
       <path id="CMUSerif-Roman-4a" d="M 262 717 
Q 262 909 374 998 
Q 486 1088 621 1088 
Q 762 1088 870 992 
Q 979 896 979 730 
Q 979 371 570 371 
Q 800 0 1274 0 
Q 1542 0 1737 262 
Q 1933 525 1933 947 
L 1933 3866 
Q 1933 4000 1907 4051 
Q 1882 4102 1747 4137 
Q 1613 4173 1306 4173 
L 1075 4173 
L 1075 4371 
Q 1318 4352 2150 4352 
Q 2554 4352 2976 4371 
L 2976 4173 
Q 2650 4173 2566 4134 
Q 2483 4096 2483 3910 
L 2483 1069 
Q 2483 838 2477 787 
Q 2419 410 2089 134 
Q 1760 -141 1286 -141 
Q 858 -141 560 108 
Q 262 358 262 717 
z
" transform="scale(0.015625)"/>
      </defs>
      <use xlink:href="#CMUSerif-Roman-54"/>
      <use xlink:href="#CMUSerif-Roman-6f" x="72.199982"/>
      <use xlink:href="#CMUSerif-Roman-74" x="122.199966"/>
      <use xlink:href="#CMUSerif-Roman-61" x="160.999954"/>
      <use xlink:href="#CMUSerif-Roman-6c" x="210.999939"/>
      <use xlink:href="#CMUSerif-Roman-20" x="238.699936"/>
      <use xlink:href="#CMUSerif-Roman-45" x="271.999924"/>
      <use xlink:href="#CMUSerif-Roman-6e" x="339.999908"/>
      <use xlink:href="#CMUSerif-Roman-65" x="395.499893"/>
      <use xlink:href="#CMUSerif-Roman-72" x="439.899887"/>
      <use xlink:href="#CMUSerif-Roman-67" x="478.999878"/>
      <use xlink:href="#CMUSerif-Roman-79" x="528.999863"/>
      <use xlink:href="#CMUSerif-Roman-20" x="581.69986"/>
      <use xlink:href="#CMUSerif-Roman-6f" x="614.999847"/>
      <use xlink:href="#CMUSerif-Roman-66" x="664.999832"/>
      <use xlink:href="#CMUSerif-Roman-20" x="695.499817"/>
      <use xlink:href="#CMUSerif-Roman-74" x="728.799805"/>
      <use xlink:href="#CMUSerif-Roman-68" x="767.599792"/>
      <use xlink:href="#CMUSerif-Roman-65" x="823.099777"/>
      <use xlink:href="#CMUSerif-Roman-20" x="867.499771"/>
      <use xlink:href="#CMUSerif-Roman-53" x="900.799759"/>
      <use xlink:href="#CMUSerif-Roman-79" x="956.299744"/>
      <use xlink:href="#CMUSerif-Roman-73" x="1008.999741"/>
      <use xlink:href="#CMUSerif-Roman-74" x="1048.399734"/>
      <use xlink:href="#CMUSerif-Roman-65" x="1087.199722"/>
      <use xlink:href="#CMUSerif-Roman-6d" x="1131.599716"/>
      <use xlink:href="#CMUSerif-Roman-20" x="1214.899704"/>
      <use xlink:href="#CMUSerif-Roman-28" x="1248.199692"/>
      <use xlink:href="#CMUSerif-Roman-4a" x="1286.99968"/>
      <use xlink:href="#CMUSerif-Roman-29" x="1338.299667"/>
     </g>
    </g>
    <g id="text_16">
     <!-- 1e33 -->
     <g transform="translate(57.6 38.472) scale(0.1 -0.1)">
      <use xlink:href="#DejaVuSans-31"/>
      <use xlink:href="#DejaVuSans-65" x="63.623047"/>
      <use xlink:href="#DejaVuSans-33" x="125.146484"/>
      <use xlink:href="#DejaVuSans-33" x="188.769531"/>
     </g>
    </g>
   </g>
   <g id="line2d_13">
    <path d="M 73.832727 167.761244 
L 75.337501 167.64984 
L 76.803316 167.303073 
L 77.627939 167.211119 
L 78.153879 167.379953 
L 78.715532 167.813062 
L 79.648913 168.872762 
L 81.389062 170.798958 
L 83.018828 172.241034 
L 84.583663 173.34568 
L 85.997533 174.357858 
L 86.632233 175.14708 
L 87.411404 176.516539 
L 90.461533 182.217685 
L 92.273105 184.962846 
L 94.532701 188.329876 
L 95.367063 190.184679 
L 99.381417 199.814859 
L 101.608547 204.120076 
L 102.710749 206.510507 
L 103.761007 209.397486 
L 106.471872 217.057314 
L 108.125987 220.926653 
L 110.752442 226.936781 
L 112.091642 230.921057 
L 114.120733 236.835534 
L 115.596288 240.428204 
L 118.977565 248.268319 
L 122.353972 257.524871 
L 123.655837 260.24442 
L 126.334237 265.555591 
L 130.056401 274.348405 
L 131.168343 276.179524 
L 132.562735 277.995723 
L 133.491247 279.389581 
L 134.535011 281.433988 
L 136.370932 284.996693 
L 137.492614 286.681342 
L 138.438982 287.724372 
L 139.322042 288.374084 
L 140.976157 289.478627 
L 141.735849 290.423221 
L 143.688646 292.962511 
L 144.628521 293.769098 
L 145.45152 294.197813 
L 146.185239 294.338 
L 146.936815 294.249445 
L 148.365295 294.017817 
L 148.930193 294.23369 
L 151.373219 295.468265 
L 152.134534 295.450143 
L 152.881239 295.208939 
L 153.629568 294.72731 
L 154.480163 293.89461 
L 155.80313 292.588969 
L 156.389132 292.361233 
L 158.494516 291.827211 
L 159.28992 291.215265 
L 160.159994 290.254156 
L 161.077143 288.897102 
L 162.265379 286.685592 
L 163.21824 285.097082 
L 163.93735 284.340615 
L 165.443747 282.878387 
L 166.34304 281.589592 
L 167.368948 279.711273 
L 168.482513 277.19174 
L 170.867101 271.563721 
L 173.30688 267.277932 
L 174.45778 264.466735 
L 175.762892 260.667858 
L 177.791983 254.677517 
L 181.072617 246.75383 
L 182.476748 242.176019 
L 184.874321 234.215988 
L 187.874129 225.964381 
L 189.36754 220.681674 
L 191.563828 212.878233 
L 193.260148 208.238745 
L 194.56039 204.214103 
L 196.076527 198.734374 
L 198.133213 191.328837 
L 199.423715 187.77578 
L 200.920372 183.463627 
L 202.329373 178.654294 
L 204.741556 170.293378 
L 206.017449 167.037625 
L 207.553065 162.953131 
L 208.923107 158.612602 
L 211.043101 151.824512 
L 212.069009 149.495743 
L 214.00882 145.178992 
L 215.286336 141.687184 
L 217.383604 135.842402 
L 218.242316 134.29452 
L 220.425617 130.590464 
L 221.587881 128.043253 
L 223.664047 123.349876 
L 224.353937 122.499076 
L 226.801833 119.858658 
L 227.821248 118.248663 
L 229.869818 114.852506 
L 230.408745 114.522092 
L 231.324271 114.286803 
L 232.303104 113.930385 
L 233.179671 113.366171 
L 234.048122 112.534943 
L 235.935988 110.584361 
L 236.371025 110.568278 
L 236.966767 110.801717 
L 238.273501 111.333299 
L 239.094877 111.402909 
L 239.865932 111.247544 
L 240.684061 110.84293 
L 241.641792 110.39625 
L 242.050857 110.463737 
L 242.490764 110.783097 
L 243.30727 111.726052 
L 244.389993 112.851407 
L 245.274676 113.454531 
L 246.07008 113.740025 
L 246.979113 113.809029 
L 247.600826 113.946467 
L 248.027747 114.287032 
L 248.540701 115.018853 
L 251.017815 118.9896 
L 251.928471 119.871376 
L 252.980352 120.552876 
L 253.567977 121.069951 
L 254.059828 121.83297 
L 254.780561 123.43991 
L 256.254493 126.707305 
L 257.283648 128.422337 
L 258.273844 129.654203 
L 259.337088 130.975373 
L 259.893871 132.130734 
L 260.849978 134.768795 
L 262.077172 137.904364 
L 263.1323 139.997285 
L 264.289693 141.784755 
L 265.060748 143.122989 
L 265.685708 144.7244 
L 268.338135 152.165125 
L 269.419235 154.238405 
L 270.638313 156.565066 
L 271.321711 158.517926 
L 273.530985 165.241738 
L 274.569879 167.497046 
L 276.238604 170.95316 
L 277.051863 173.523564 
L 278.580986 178.334338 
L 279.569559 180.674621 
L 281.894086 185.740646 
L 284.416652 193.200674 
L 285.369513 195.029246 
L 286.590214 197.335688 
L 287.31744 199.364248 
L 289.137129 204.634313 
L 289.992593 206.344128 
L 292.159663 210.227232 
L 294.531264 216.25039 
L 295.290956 217.365093 
L 296.821702 219.387175 
L 297.529449 221.03949 
L 298.92871 224.313651 
L 299.664052 225.460672 
L 300.326348 226.101481 
L 301.610356 227.188562 
L 302.163892 228.169459 
L 303.959232 231.605822 
L 304.587439 232.250451 
L 305.152337 232.526287 
L 306.444463 232.99417 
L 306.918458 233.616587 
L 308.731654 236.288126 
L 309.28032 236.608796 
L 309.773795 236.647543 
L 310.414988 236.443665 
L 310.978263 236.348285 
L 311.349993 236.523924 
L 311.832105 237.037697 
L 313.03008 238.377647 
L 313.567383 238.625275 
L 314.038132 238.605227 
L 314.523491 238.351038 
L 315.927622 237.443489 
L 316.313961 237.628436 
L 317.734324 238.507062 
L 318.205073 238.447253 
L 318.675823 238.155048 
L 319.221242 237.531676 
L 320.398115 236.096913 
L 320.766598 236.053187 
L 321.411037 236.271735 
L 321.977559 236.34018 
L 322.448308 236.16747 
L 322.938537 235.737086 
L 323.495319 234.928732 
L 325.076387 232.396078 
L 325.526033 232.300522 
L 326.288972 232.149629 
L 326.772707 231.787615 
L 327.303517 231.092061 
L 327.915491 229.894871 
L 329.404032 226.774727 
L 329.886144 226.466769 
L 330.621487 226.004998 
L 331.140934 225.364239 
L 331.728559 224.258943 
L 332.436305 222.409994 
L 333.506042 219.619448 
L 333.983284 219.036158 
L 334.989713 217.981416 
L 335.562729 216.918255 
L 336.228271 215.178987 
L 337.971665 210.288919 
L 339.44722 208.026432 
L 340.104646 206.243223 
L 340.990953 203.107303 
L 341.732788 200.784231 
L 342.271715 199.829751 
L 343.130426 198.380525 
L 343.75214 196.782283 
L 344.498845 194.196922 
L 345.777984 189.681187 
L 346.396451 188.540563 
L 347.087965 187.155543 
L 347.725911 185.310383 
L 348.519692 182.267666 
L 349.560209 178.365474 
L 350.144588 177.137679 
L 350.912396 175.498272 
L 351.553588 173.508969 
L 352.381457 170.131939 
L 353.292113 166.615824 
L 353.873245 165.318695 
L 354.649169 163.572322 
L 355.288739 161.479831 
L 356.160436 157.759563 
L 356.9461 154.733775 
L 357.530479 153.408993 
L 358.278807 151.675437 
L 358.91026 149.546635 
L 359.830656 145.520848 
L 360.518924 142.951108 
L 361.111418 141.638595 
L 361.806179 140.013344 
L 362.421399 137.915866 
L 363.401856 133.599983 
L 364.00896 131.475068 
L 364.627427 130.182654 
L 365.24914 128.721989 
L 365.846505 126.674575 
L 367.633728 120.03082 
L 368.628794 117.896981 
L 369.213172 115.861941 
L 370.755281 110.104091 
L 372.036044 107.380714 
L 372.649641 105.053199 
L 373.675549 101.138297 
L 374.151168 100.291834 
L 374.81671 99.140176 
L 375.310185 97.733853 
L 375.993583 95.004633 
L 376.667241 92.608468 
L 377.094161 91.872749 
L 377.865216 90.722524 
L 378.329472 89.461101 
L 378.985274 86.923812 
L 379.613481 84.800985 
L 380.006313 84.203526 
L 380.790353 83.238682 
L 381.218897 82.169295 
L 381.813015 79.990464 
L 382.452585 77.887119 
L 382.811328 77.406138 
L 383.64569 76.594986 
L 384.043392 75.663481 
L 384.606668 73.681853 
L 385.204032 71.827267 
L 385.528687 71.460365 
L 386.405254 70.841852 
L 386.77536 70.027219 
L 387.31591 68.200561 
L 387.861329 66.621785 
L 388.155142 66.355126 
L 389.072291 65.951818 
L 389.416425 65.23266 
L 389.947235 63.502584 
L 390.427724 62.237107 
L 390.690694 62.062066 
L 391.041321 62.152642 
L 391.382208 62.13992 
L 391.650048 61.883386 
L 391.974703 61.220816 
L 392.559081 59.377352 
L 392.93081 58.606635 
L 393.159692 58.547488 
L 393.526551 58.772838 
L 393.849583 58.837312 
L 394.094697 58.646031 
L 394.393379 58.086247 
L 394.927436 56.479506 
L 395.286179 55.767467 
L 395.492335 55.746014 
L 395.789393 56.016036 
L 396.178979 56.267631 
L 396.40786 56.161391 
L 396.670831 55.752531 
L 397.081519 54.615567 
L 397.521425 53.615957 
L 397.717841 53.592923 
L 397.961332 53.860744 
L 398.445068 54.354496 
L 398.487273 54.358819 
L 398.487273 54.358819 
" clip-path="url(#pc05d185c70)" style="fill: none; stroke: #1f77b4; stroke-width: 1.5; stroke-linecap: square"/>
   </g>
   <g id="patch_3">
    <path d="M 57.6 307.584 
L 57.6 41.472 
" style="fill: none; stroke: #000000; stroke-width: 0.8; stroke-linejoin: miter; stroke-linecap: square"/>
   </g>
   <g id="patch_4">
    <path d="M 414.72 307.584 
L 414.72 41.472 
" style="fill: none; stroke: #000000; stroke-width: 0.8; stroke-linejoin: miter; stroke-linecap: square"/>
   </g>
   <g id="patch_5">
    <path d="M 57.6 307.584 
L 414.72 307.584 
" style="fill: none; stroke: #000000; stroke-width: 0.8; stroke-linejoin: miter; stroke-linecap: square"/>
   </g>
   <g id="patch_6">
    <path d="M 57.6 41.472 
L 414.72 41.472 
" style="fill: none; stroke: #000000; stroke-width: 0.8; stroke-linejoin: miter; stroke-linecap: square"/>
   </g>
   <g id="text_17">
    <!-- Figure 1d: Total Energy of the System -->
    <g transform="translate(151.329531 35.472) scale(0.1 -0.1)">
     <defs>
      <path id="CMUSerif-Roman-46" d="M 211 0 
L 211 198 
L 365 198 
Q 710 198 790 256 
Q 870 314 870 499 
L 870 3853 
Q 870 4038 790 4096 
Q 710 4154 365 4154 
L 211 4154 
L 211 4352 
L 3725 4352 
L 3904 2912 
L 3744 2912 
Q 3699 3277 3641 3485 
Q 3584 3693 3453 3859 
Q 3322 4026 3101 4090 
Q 2880 4154 2522 4154 
L 1754 4154 
Q 1536 4154 1488 4109 
Q 1440 4064 1440 3898 
L 1440 2278 
L 1990 2278 
Q 2426 2278 2547 2435 
Q 2669 2592 2669 3027 
L 2829 3027 
L 2829 1331 
L 2669 1331 
Q 2669 1773 2547 1926 
Q 2426 2080 1990 2080 
L 1440 2080 
L 1440 506 
Q 1440 371 1462 320 
Q 1485 269 1619 233 
Q 1754 198 2048 198 
L 2259 198 
L 2259 0 
Q 2029 19 1184 19 
Q 435 19 211 0 
z
" transform="scale(0.015625)"/>
      <path id="CMUSerif-Roman-75" d="M 205 2560 
L 205 2758 
L 1146 2829 
L 1146 704 
Q 1146 550 1158 460 
Q 1171 371 1222 268 
Q 1274 166 1395 118 
Q 1517 70 1709 70 
Q 2054 70 2268 355 
Q 2483 640 2483 1062 
L 2483 2202 
Q 2483 2438 2400 2499 
Q 2317 2560 1984 2560 
L 1984 2758 
L 2925 2829 
L 2925 557 
Q 2925 320 3008 259 
Q 3091 198 3424 198 
L 3424 0 
L 2502 -70 
L 2502 506 
Q 2234 -70 1677 -70 
Q 1395 -70 1203 0 
Q 1011 70 915 160 
Q 819 250 768 422 
Q 717 595 710 700 
Q 704 806 704 1011 
L 704 1971 
Q 704 2406 640 2483 
Q 576 2560 205 2560 
z
" transform="scale(0.015625)"/>
      <path id="CMUSerif-Roman-31" d="M 570 3654 
L 570 3853 
Q 1338 3853 1734 4262 
Q 1843 4262 1862 4236 
Q 1882 4211 1882 4096 
L 1882 506 
Q 1882 314 1974 256 
Q 2067 198 2477 198 
L 2682 198 
L 2682 0 
Q 2458 19 1645 19 
Q 832 19 608 0 
L 608 198 
L 813 198 
Q 1216 198 1312 256 
Q 1408 314 1408 506 
L 1408 3821 
Q 1075 3654 570 3654 
z
" transform="scale(0.015625)"/>
      <path id="CMUSerif-Roman-64" d="M 218 1376 
Q 218 1984 643 2406 
Q 1069 2829 1645 2829 
Q 2131 2829 2451 2432 
L 2451 3814 
Q 2451 4051 2368 4112 
Q 2285 4173 1952 4173 
L 1952 4371 
L 2874 4442 
L 2874 557 
Q 2874 320 2957 259 
Q 3040 198 3373 198 
L 3373 0 
L 2432 -70 
L 2432 352 
Q 2099 -70 1574 -70 
Q 1024 -70 621 352 
Q 218 774 218 1376 
z
M 749 1370 
Q 749 774 934 480 
Q 1190 70 1606 70 
Q 2080 70 2362 518 
Q 2432 627 2432 755 
L 2432 2067 
Q 2432 2195 2362 2304 
Q 2099 2688 1670 2688 
Q 1222 2688 947 2278 
Q 749 1971 749 1370 
z
" transform="scale(0.015625)"/>
      <path id="CMUSerif-Roman-3a" d="M 649 2179 
Q 550 2279 550 2419 
Q 550 2560 649 2659 
Q 749 2759 889 2759 
Q 1030 2759 1129 2659 
Q 1229 2560 1229 2419 
Q 1229 2279 1129 2179 
Q 1030 2080 889 2080 
Q 749 2080 649 2179 
z
M 649 99 
Q 550 199 550 339 
Q 550 480 649 579 
Q 749 679 889 679 
Q 1030 679 1129 579 
Q 1229 480 1229 339 
Q 1229 199 1129 99 
Q 1030 0 889 0 
Q 749 0 649 99 
z
" transform="scale(0.015625)"/>
     </defs>
     <use xlink:href="#CMUSerif-Roman-46"/>
     <use xlink:href="#CMUSerif-Roman-69" x="65.199997"/>
     <use xlink:href="#CMUSerif-Roman-67" x="92.899994"/>
     <use xlink:href="#CMUSerif-Roman-75" x="142.899979"/>
     <use xlink:href="#CMUSerif-Roman-72" x="198.399963"/>
     <use xlink:href="#CMUSerif-Roman-65" x="237.499954"/>
     <use xlink:href="#CMUSerif-Roman-20" x="281.899948"/>
     <use xlink:href="#CMUSerif-Roman-31" x="315.199936"/>
     <use xlink:href="#CMUSerif-Roman-64" x="365.199921"/>
     <use xlink:href="#CMUSerif-Roman-3a" x="420.699905"/>
     <use xlink:href="#CMUSerif-Roman-20" x="448.399902"/>
     <use xlink:href="#CMUSerif-Roman-54" x="481.69989"/>
     <use xlink:href="#CMUSerif-Roman-6f" x="553.899872"/>
     <use xlink:href="#CMUSerif-Roman-74" x="603.899857"/>
     <use xlink:href="#CMUSerif-Roman-61" x="642.699844"/>
     <use xlink:href="#CMUSerif-Roman-6c" x="692.699829"/>
     <use xlink:href="#CMUSerif-Roman-20" x="720.399826"/>
     <use xlink:href="#CMUSerif-Roman-45" x="753.699814"/>
     <use xlink:href="#CMUSerif-Roman-6e" x="821.699799"/>
     <use xlink:href="#CMUSerif-Roman-65" x="877.199783"/>
     <use xlink:href="#CMUSerif-Roman-72" x="921.599777"/>
     <use xlink:href="#CMUSerif-Roman-67" x="960.699768"/>
     <use xlink:href="#CMUSerif-Roman-79" x="1010.699753"/>
     <use xlink:href="#CMUSerif-Roman-20" x="1063.39975"/>
     <use xlink:href="#CMUSerif-Roman-6f" x="1096.699738"/>
     <use xlink:href="#CMUSerif-Roman-66" x="1146.699722"/>
     <use xlink:href="#CMUSerif-Roman-20" x="1177.199707"/>
     <use xlink:href="#CMUSerif-Roman-74" x="1210.499695"/>
     <use xlink:href="#CMUSerif-Roman-68" x="1249.299683"/>
     <use xlink:href="#CMUSerif-Roman-65" x="1304.799667"/>
     <use xlink:href="#CMUSerif-Roman-20" x="1349.199661"/>
     <use xlink:href="#CMUSerif-Roman-53" x="1382.499649"/>
     <use xlink:href="#CMUSerif-Roman-79" x="1437.999634"/>
     <use xlink:href="#CMUSerif-Roman-73" x="1490.699631"/>
     <use xlink:href="#CMUSerif-Roman-74" x="1530.099625"/>
     <use xlink:href="#CMUSerif-Roman-65" x="1568.899612"/>
     <use xlink:href="#CMUSerif-Roman-6d" x="1613.299606"/>
    </g>
   </g>
   <g id="legend_1">
    <g id="patch_7">
     <path d="M 64.6 64.150125 
L 229.879687 64.150125 
Q 231.879687 64.150125 231.879687 62.150125 
L 231.879687 48.472 
Q 231.879687 46.472 229.879687 46.472 
L 64.6 46.472 
Q 62.6 46.472 62.6 48.472 
L 62.6 62.150125 
Q 62.6 64.150125 64.6 64.150125 
z
" style="fill: #ffffff; opacity: 0.8; stroke: #cccccc; stroke-linejoin: miter"/>
    </g>
    <g id="line2d_14">
     <path d="M 66.6 54.570438 
L 76.6 54.570438 
L 86.6 54.570438 
" style="fill: none; stroke: #1f77b4; stroke-width: 1.5; stroke-linecap: square"/>
    </g>
    <g id="text_18">
     <!-- Total Energy of the system -->
     <g transform="translate(94.6 58.070438) scale(0.1 -0.1)">
      <defs>
       <path id="DejaVuSans-54" d="M -19 4666 
L 3928 4666 
L 3928 4134 
L 2272 4134 
L 2272 0 
L 1638 0 
L 1638 4134 
L -19 4134 
L -19 4666 
z
" transform="scale(0.015625)"/>
       <path id="DejaVuSans-6f" d="M 1959 3097 
Q 1497 3097 1228 2736 
Q 959 2375 959 1747 
Q 959 1119 1226 758 
Q 1494 397 1959 397 
Q 2419 397 2687 759 
Q 2956 1122 2956 1747 
Q 2956 2369 2687 2733 
Q 2419 3097 1959 3097 
z
M 1959 3584 
Q 2709 3584 3137 3096 
Q 3566 2609 3566 1747 
Q 3566 888 3137 398 
Q 2709 -91 1959 -91 
Q 1206 -91 779 398 
Q 353 888 353 1747 
Q 353 2609 779 3096 
Q 1206 3584 1959 3584 
z
" transform="scale(0.015625)"/>
       <path id="DejaVuSans-74" d="M 1172 4494 
L 1172 3500 
L 2356 3500 
L 2356 3053 
L 1172 3053 
L 1172 1153 
Q 1172 725 1289 603 
Q 1406 481 1766 481 
L 2356 481 
L 2356 0 
L 1766 0 
Q 1100 0 847 248 
Q 594 497 594 1153 
L 594 3053 
L 172 3053 
L 172 3500 
L 594 3500 
L 594 4494 
L 1172 4494 
z
" transform="scale(0.015625)"/>
       <path id="DejaVuSans-61" d="M 2194 1759 
Q 1497 1759 1228 1600 
Q 959 1441 959 1056 
Q 959 750 1161 570 
Q 1363 391 1709 391 
Q 2188 391 2477 730 
Q 2766 1069 2766 1631 
L 2766 1759 
L 2194 1759 
z
M 3341 1997 
L 3341 0 
L 2766 0 
L 2766 531 
Q 2569 213 2275 61 
Q 1981 -91 1556 -91 
Q 1019 -91 701 211 
Q 384 513 384 1019 
Q 384 1609 779 1909 
Q 1175 2209 1959 2209 
L 2766 2209 
L 2766 2266 
Q 2766 2663 2505 2880 
Q 2244 3097 1772 3097 
Q 1472 3097 1187 3025 
Q 903 2953 641 2809 
L 641 3341 
Q 956 3463 1253 3523 
Q 1550 3584 1831 3584 
Q 2591 3584 2966 3190 
Q 3341 2797 3341 1997 
z
" transform="scale(0.015625)"/>
       <path id="DejaVuSans-6c" d="M 603 4863 
L 1178 4863 
L 1178 0 
L 603 0 
L 603 4863 
z
" transform="scale(0.015625)"/>
       <path id="DejaVuSans-20" transform="scale(0.015625)"/>
       <path id="DejaVuSans-45" d="M 628 4666 
L 3578 4666 
L 3578 4134 
L 1259 4134 
L 1259 2753 
L 3481 2753 
L 3481 2222 
L 1259 2222 
L 1259 531 
L 3634 531 
L 3634 0 
L 628 0 
L 628 4666 
z
" transform="scale(0.015625)"/>
       <path id="DejaVuSans-6e" d="M 3513 2113 
L 3513 0 
L 2938 0 
L 2938 2094 
Q 2938 2591 2744 2837 
Q 2550 3084 2163 3084 
Q 1697 3084 1428 2787 
Q 1159 2491 1159 1978 
L 1159 0 
L 581 0 
L 581 3500 
L 1159 3500 
L 1159 2956 
Q 1366 3272 1645 3428 
Q 1925 3584 2291 3584 
Q 2894 3584 3203 3211 
Q 3513 2838 3513 2113 
z
" transform="scale(0.015625)"/>
       <path id="DejaVuSans-72" d="M 2631 2963 
Q 2534 3019 2420 3045 
Q 2306 3072 2169 3072 
Q 1681 3072 1420 2755 
Q 1159 2438 1159 1844 
L 1159 0 
L 581 0 
L 581 3500 
L 1159 3500 
L 1159 2956 
Q 1341 3275 1631 3429 
Q 1922 3584 2338 3584 
Q 2397 3584 2469 3576 
Q 2541 3569 2628 3553 
L 2631 2963 
z
" transform="scale(0.015625)"/>
       <path id="DejaVuSans-67" d="M 2906 1791 
Q 2906 2416 2648 2759 
Q 2391 3103 1925 3103 
Q 1463 3103 1205 2759 
Q 947 2416 947 1791 
Q 947 1169 1205 825 
Q 1463 481 1925 481 
Q 2391 481 2648 825 
Q 2906 1169 2906 1791 
z
M 3481 434 
Q 3481 -459 3084 -895 
Q 2688 -1331 1869 -1331 
Q 1566 -1331 1297 -1286 
Q 1028 -1241 775 -1147 
L 775 -588 
Q 1028 -725 1275 -790 
Q 1522 -856 1778 -856 
Q 2344 -856 2625 -561 
Q 2906 -266 2906 331 
L 2906 616 
Q 2728 306 2450 153 
Q 2172 0 1784 0 
Q 1141 0 747 490 
Q 353 981 353 1791 
Q 353 2603 747 3093 
Q 1141 3584 1784 3584 
Q 2172 3584 2450 3431 
Q 2728 3278 2906 2969 
L 2906 3500 
L 3481 3500 
L 3481 434 
z
" transform="scale(0.015625)"/>
       <path id="DejaVuSans-79" d="M 2059 -325 
Q 1816 -950 1584 -1140 
Q 1353 -1331 966 -1331 
L 506 -1331 
L 506 -850 
L 844 -850 
Q 1081 -850 1212 -737 
Q 1344 -625 1503 -206 
L 1606 56 
L 191 3500 
L 800 3500 
L 1894 763 
L 2988 3500 
L 3597 3500 
L 2059 -325 
z
" transform="scale(0.015625)"/>
       <path id="DejaVuSans-66" d="M 2375 4863 
L 2375 4384 
L 1825 4384 
Q 1516 4384 1395 4259 
Q 1275 4134 1275 3809 
L 1275 3500 
L 2222 3500 
L 2222 3053 
L 1275 3053 
L 1275 0 
L 697 0 
L 697 3053 
L 147 3053 
L 147 3500 
L 697 3500 
L 697 3744 
Q 697 4328 969 4595 
Q 1241 4863 1831 4863 
L 2375 4863 
z
" transform="scale(0.015625)"/>
       <path id="DejaVuSans-68" d="M 3513 2113 
L 3513 0 
L 2938 0 
L 2938 2094 
Q 2938 2591 2744 2837 
Q 2550 3084 2163 3084 
Q 1697 3084 1428 2787 
Q 1159 2491 1159 1978 
L 1159 0 
L 581 0 
L 581 4863 
L 1159 4863 
L 1159 2956 
Q 1366 3272 1645 3428 
Q 1925 3584 2291 3584 
Q 2894 3584 3203 3211 
Q 3513 2838 3513 2113 
z
" transform="scale(0.015625)"/>
       <path id="DejaVuSans-73" d="M 2834 3397 
L 2834 2853 
Q 2591 2978 2328 3040 
Q 2066 3103 1784 3103 
Q 1356 3103 1142 2972 
Q 928 2841 928 2578 
Q 928 2378 1081 2264 
Q 1234 2150 1697 2047 
L 1894 2003 
Q 2506 1872 2764 1633 
Q 3022 1394 3022 966 
Q 3022 478 2636 193 
Q 2250 -91 1575 -91 
Q 1294 -91 989 -36 
Q 684 19 347 128 
L 347 722 
Q 666 556 975 473 
Q 1284 391 1588 391 
Q 1994 391 2212 530 
Q 2431 669 2431 922 
Q 2431 1156 2273 1281 
Q 2116 1406 1581 1522 
L 1381 1569 
Q 847 1681 609 1914 
Q 372 2147 372 2553 
Q 372 3047 722 3315 
Q 1072 3584 1716 3584 
Q 2034 3584 2315 3537 
Q 2597 3491 2834 3397 
z
" transform="scale(0.015625)"/>
       <path id="DejaVuSans-6d" d="M 3328 2828 
Q 3544 3216 3844 3400 
Q 4144 3584 4550 3584 
Q 5097 3584 5394 3201 
Q 5691 2819 5691 2113 
L 5691 0 
L 5113 0 
L 5113 2094 
Q 5113 2597 4934 2840 
Q 4756 3084 4391 3084 
Q 3944 3084 3684 2787 
Q 3425 2491 3425 1978 
L 3425 0 
L 2847 0 
L 2847 2094 
Q 2847 2600 2669 2842 
Q 2491 3084 2119 3084 
Q 1678 3084 1418 2786 
Q 1159 2488 1159 1978 
L 1159 0 
L 581 0 
L 581 3500 
L 1159 3500 
L 1159 2956 
Q 1356 3278 1631 3431 
Q 1906 3584 2284 3584 
Q 2666 3584 2933 3390 
Q 3200 3197 3328 2828 
z
" transform="scale(0.015625)"/>
      </defs>
      <use xlink:href="#DejaVuSans-54"/>
      <use xlink:href="#DejaVuSans-6f" x="44.083984"/>
      <use xlink:href="#DejaVuSans-74" x="105.265625"/>
      <use xlink:href="#DejaVuSans-61" x="144.474609"/>
      <use xlink:href="#DejaVuSans-6c" x="205.753906"/>
      <use xlink:href="#DejaVuSans-20" x="233.537109"/>
      <use xlink:href="#DejaVuSans-45" x="265.324219"/>
      <use xlink:href="#DejaVuSans-6e" x="328.507812"/>
      <use xlink:href="#DejaVuSans-65" x="391.886719"/>
      <use xlink:href="#DejaVuSans-72" x="453.410156"/>
      <use xlink:href="#DejaVuSans-67" x="492.773438"/>
      <use xlink:href="#DejaVuSans-79" x="556.25"/>
      <use xlink:href="#DejaVuSans-20" x="615.429688"/>
      <use xlink:href="#DejaVuSans-6f" x="647.216797"/>
      <use xlink:href="#DejaVuSans-66" x="708.398438"/>
      <use xlink:href="#DejaVuSans-20" x="743.603516"/>
      <use xlink:href="#DejaVuSans-74" x="775.390625"/>
      <use xlink:href="#DejaVuSans-68" x="814.599609"/>
      <use xlink:href="#DejaVuSans-65" x="877.978516"/>
      <use xlink:href="#DejaVuSans-20" x="939.501953"/>
      <use xlink:href="#DejaVuSans-73" x="971.289062"/>
      <use xlink:href="#DejaVuSans-79" x="1023.388672"/>
      <use xlink:href="#DejaVuSans-73" x="1082.568359"/>
      <use xlink:href="#DejaVuSans-74" x="1134.667969"/>
      <use xlink:href="#DejaVuSans-65" x="1173.876953"/>
      <use xlink:href="#DejaVuSans-6d" x="1235.400391"/>
     </g>
    </g>
   </g>
  </g>
 </g>
 <defs>
  <clipPath id="pc05d185c70">
   <rect x="57.6" y="41.472" width="357.12" height="266.112"/>
  </clipPath>
 </defs>
</svg>
