<?xml version="1.0" encoding="utf-8" standalone="no"?>
<!DOCTYPE svg PUBLIC "-//W3C//DTD SVG 1.1//EN"
  "http://www.w3.org/Graphics/SVG/1.1/DTD/svg11.dtd">
<svg xmlns:xlink="http://www.w3.org/1999/xlink" width="460.8pt" height="345.6pt" viewBox="0 0 460.8 345.6" xmlns="http://www.w3.org/2000/svg" version="1.1">
 <metadata>
  <rdf:RDF xmlns:dc="http://purl.org/dc/elements/1.1/" xmlns:cc="http://creativecommons.org/ns#" xmlns:rdf="http://www.w3.org/1999/02/22-rdf-syntax-ns#">
   <cc:Work>
    <dc:type rdf:resource="http://purl.org/dc/dcmitype/StillImage"/>
    <dc:date>2024-11-29T09:11:11.267236</dc:date>
    <dc:format>image/svg+xml</dc:format>
    <dc:creator>
     <cc:Agent>
      <dc:title>Matplotlib v3.8.4, https://matplotlib.org/</dc:title>
     </cc:Agent>
    </dc:creator>
   </cc:Work>
  </rdf:RDF>
 </metadata>
 <defs>
  <style type="text/css">*{stroke-linejoin: round; stroke-linecap: butt}</style>
 </defs>
 <g id="figure_1">
  <g id="patch_1">
   <path d="M 0 345.6 
L 460.8 345.6 
L 460.8 0 
L 0 0 
z
" style="fill: #ffffff"/>
  </g>
  <g id="axes_1">
   <g id="patch_2">
    <path d="M 57.6 307.584 
L 414.72 307.584 
L 414.72 41.472 
L 57.6 41.472 
z
" style="fill: #ffffff"/>
   </g>
   <g id="matplotlib.axis_1">
    <g id="xtick_1">
     <g id="line2d_1">
      <defs>
       <path id="m1afc521ebb" d="M 0 0 
L 0 3.5 
" style="stroke: #000000; stroke-width: 0.8"/>
      </defs>
      <g>
       <use xlink:href="#m1afc521ebb" x="73.832727" y="307.584" style="stroke: #000000; stroke-width: 0.8"/>
      </g>
     </g>
     <g id="text_1">
      <!-- 0.0 -->
      <g transform="translate(65.881165 322.182437) scale(0.1 -0.1)">
       <defs>
        <path id="DejaVuSans-30" d="M 2034 4250 
Q 1547 4250 1301 3770 
Q 1056 3291 1056 2328 
Q 1056 1369 1301 889 
Q 1547 409 2034 409 
Q 2525 409 2770 889 
Q 3016 1369 3016 2328 
Q 3016 3291 2770 3770 
Q 2525 4250 2034 4250 
z
M 2034 4750 
Q 2819 4750 3233 4129 
Q 3647 3509 3647 2328 
Q 3647 1150 3233 529 
Q 2819 -91 2034 -91 
Q 1250 -91 836 529 
Q 422 1150 422 2328 
Q 422 3509 836 4129 
Q 1250 4750 2034 4750 
z
" transform="scale(0.015625)"/>
        <path id="DejaVuSans-2e" d="M 684 794 
L 1344 794 
L 1344 0 
L 684 0 
L 684 794 
z
" transform="scale(0.015625)"/>
       </defs>
       <use xlink:href="#DejaVuSans-30"/>
       <use xlink:href="#DejaVuSans-2e" x="63.623047"/>
       <use xlink:href="#DejaVuSans-30" x="95.410156"/>
      </g>
     </g>
    </g>
    <g id="xtick_2">
     <g id="line2d_2">
      <g>
       <use xlink:href="#m1afc521ebb" x="126.196364" y="307.584" style="stroke: #000000; stroke-width: 0.8"/>
      </g>
     </g>
     <g id="text_2">
      <!-- 0.5 -->
      <g transform="translate(118.244801 322.182437) scale(0.1 -0.1)">
       <defs>
        <path id="DejaVuSans-35" d="M 691 4666 
L 3169 4666 
L 3169 4134 
L 1269 4134 
L 1269 2991 
Q 1406 3038 1543 3061 
Q 1681 3084 1819 3084 
Q 2600 3084 3056 2656 
Q 3513 2228 3513 1497 
Q 3513 744 3044 326 
Q 2575 -91 1722 -91 
Q 1428 -91 1123 -41 
Q 819 9 494 109 
L 494 744 
Q 775 591 1075 516 
Q 1375 441 1709 441 
Q 2250 441 2565 725 
Q 2881 1009 2881 1497 
Q 2881 1984 2565 2268 
Q 2250 2553 1709 2553 
Q 1456 2553 1204 2497 
Q 953 2441 691 2322 
L 691 4666 
z
" transform="scale(0.015625)"/>
       </defs>
       <use xlink:href="#DejaVuSans-30"/>
       <use xlink:href="#DejaVuSans-2e" x="63.623047"/>
       <use xlink:href="#DejaVuSans-35" x="95.410156"/>
      </g>
     </g>
    </g>
    <g id="xtick_3">
     <g id="line2d_3">
      <g>
       <use xlink:href="#m1afc521ebb" x="178.56" y="307.584" style="stroke: #000000; stroke-width: 0.8"/>
      </g>
     </g>
     <g id="text_3">
      <!-- 1.0 -->
      <g transform="translate(170.608438 322.182437) scale(0.1 -0.1)">
       <defs>
        <path id="DejaVuSans-31" d="M 794 531 
L 1825 531 
L 1825 4091 
L 703 3866 
L 703 4441 
L 1819 4666 
L 2450 4666 
L 2450 531 
L 3481 531 
L 3481 0 
L 794 0 
L 794 531 
z
" transform="scale(0.015625)"/>
       </defs>
       <use xlink:href="#DejaVuSans-31"/>
       <use xlink:href="#DejaVuSans-2e" x="63.623047"/>
       <use xlink:href="#DejaVuSans-30" x="95.410156"/>
      </g>
     </g>
    </g>
    <g id="xtick_4">
     <g id="line2d_4">
      <g>
       <use xlink:href="#m1afc521ebb" x="230.923636" y="307.584" style="stroke: #000000; stroke-width: 0.8"/>
      </g>
     </g>
     <g id="text_4">
      <!-- 1.5 -->
      <g transform="translate(222.972074 322.182437) scale(0.1 -0.1)">
       <use xlink:href="#DejaVuSans-31"/>
       <use xlink:href="#DejaVuSans-2e" x="63.623047"/>
       <use xlink:href="#DejaVuSans-35" x="95.410156"/>
      </g>
     </g>
    </g>
    <g id="xtick_5">
     <g id="line2d_5">
      <g>
       <use xlink:href="#m1afc521ebb" x="283.287273" y="307.584" style="stroke: #000000; stroke-width: 0.8"/>
      </g>
     </g>
     <g id="text_5">
      <!-- 2.0 -->
      <g transform="translate(275.33571 322.182437) scale(0.1 -0.1)">
       <defs>
        <path id="DejaVuSans-32" d="M 1228 531 
L 3431 531 
L 3431 0 
L 469 0 
L 469 531 
Q 828 903 1448 1529 
Q 2069 2156 2228 2338 
Q 2531 2678 2651 2914 
Q 2772 3150 2772 3378 
Q 2772 3750 2511 3984 
Q 2250 4219 1831 4219 
Q 1534 4219 1204 4116 
Q 875 4013 500 3803 
L 500 4441 
Q 881 4594 1212 4672 
Q 1544 4750 1819 4750 
Q 2544 4750 2975 4387 
Q 3406 4025 3406 3419 
Q 3406 3131 3298 2873 
Q 3191 2616 2906 2266 
Q 2828 2175 2409 1742 
Q 1991 1309 1228 531 
z
" transform="scale(0.015625)"/>
       </defs>
       <use xlink:href="#DejaVuSans-32"/>
       <use xlink:href="#DejaVuSans-2e" x="63.623047"/>
       <use xlink:href="#DejaVuSans-30" x="95.410156"/>
      </g>
     </g>
    </g>
    <g id="xtick_6">
     <g id="line2d_6">
      <g>
       <use xlink:href="#m1afc521ebb" x="335.650909" y="307.584" style="stroke: #000000; stroke-width: 0.8"/>
      </g>
     </g>
     <g id="text_6">
      <!-- 2.5 -->
      <g transform="translate(327.699347 322.182437) scale(0.1 -0.1)">
       <use xlink:href="#DejaVuSans-32"/>
       <use xlink:href="#DejaVuSans-2e" x="63.623047"/>
       <use xlink:href="#DejaVuSans-35" x="95.410156"/>
      </g>
     </g>
    </g>
    <g id="xtick_7">
     <g id="line2d_7">
      <g>
       <use xlink:href="#m1afc521ebb" x="388.014545" y="307.584" style="stroke: #000000; stroke-width: 0.8"/>
      </g>
     </g>
     <g id="text_7">
      <!-- 3.0 -->
      <g transform="translate(380.062983 322.182437) scale(0.1 -0.1)">
       <defs>
        <path id="DejaVuSans-33" d="M 2597 2516 
Q 3050 2419 3304 2112 
Q 3559 1806 3559 1356 
Q 3559 666 3084 287 
Q 2609 -91 1734 -91 
Q 1441 -91 1130 -33 
Q 819 25 488 141 
L 488 750 
Q 750 597 1062 519 
Q 1375 441 1716 441 
Q 2309 441 2620 675 
Q 2931 909 2931 1356 
Q 2931 1769 2642 2001 
Q 2353 2234 1838 2234 
L 1294 2234 
L 1294 2753 
L 1863 2753 
Q 2328 2753 2575 2939 
Q 2822 3125 2822 3475 
Q 2822 3834 2567 4026 
Q 2313 4219 1838 4219 
Q 1578 4219 1281 4162 
Q 984 4106 628 3988 
L 628 4550 
Q 988 4650 1302 4700 
Q 1616 4750 1894 4750 
Q 2613 4750 3031 4423 
Q 3450 4097 3450 3541 
Q 3450 3153 3228 2886 
Q 3006 2619 2597 2516 
z
" transform="scale(0.015625)"/>
       </defs>
       <use xlink:href="#DejaVuSans-33"/>
       <use xlink:href="#DejaVuSans-2e" x="63.623047"/>
       <use xlink:href="#DejaVuSans-30" x="95.410156"/>
      </g>
     </g>
    </g>
    <g id="text_8">
     <!-- Time (s) -->
     <g transform="translate(217.264688 335.762125) scale(0.1 -0.1)">
      <defs>
       <path id="CMUSerif-Roman-54" d="M 230 2893 
L 352 4333 
L 4262 4333 
L 4384 2893 
L 4224 2893 
Q 4198 3181 4176 3347 
Q 4154 3514 4099 3670 
Q 4045 3827 3977 3904 
Q 3910 3981 3782 4041 
Q 3654 4102 3488 4118 
Q 3322 4134 3072 4134 
Q 2778 4134 2707 4122 
Q 2630 4102 2611 4048 
Q 2592 3994 2592 3878 
L 2592 506 
Q 2592 378 2617 326 
Q 2643 275 2790 236 
Q 2938 198 3264 198 
L 3520 198 
L 3520 0 
Q 3258 19 2304 19 
Q 1357 19 1094 0 
L 1094 198 
L 1350 198 
Q 1677 198 1824 236 
Q 1971 275 1996 326 
Q 2022 378 2022 506 
L 2022 3878 
Q 2022 3968 2016 4006 
Q 2010 4045 1981 4077 
Q 1952 4109 1888 4121 
Q 1824 4134 1542 4134 
Q 1293 4134 1126 4118 
Q 960 4102 832 4041 
Q 704 3981 637 3904 
Q 570 3827 515 3670 
Q 461 3514 438 3347 
Q 416 3181 390 2893 
L 230 2893 
z
" transform="scale(0.015625)"/>
       <path id="CMUSerif-Roman-69" d="M 211 0 
L 211 198 
Q 550 198 630 240 
Q 710 282 710 486 
L 710 2208 
Q 710 2445 630 2502 
Q 550 2560 237 2560 
L 237 2758 
L 1133 2829 
L 1133 480 
Q 1133 288 1200 243 
Q 1267 198 1581 198 
L 1581 0 
Q 928 19 915 19 
Q 826 19 211 0 
z
M 480 3942 
Q 480 4070 579 4176 
Q 678 4282 819 4282 
Q 960 4282 1059 4186 
Q 1158 4090 1158 3942 
Q 1158 3795 1059 3699 
Q 960 3603 819 3603 
Q 672 3603 576 3705 
Q 480 3808 480 3942 
z
" transform="scale(0.015625)"/>
       <path id="CMUSerif-Roman-6d" d="M 205 0 
L 205 198 
Q 544 198 624 240 
Q 704 282 704 486 
L 704 2202 
Q 704 2438 621 2499 
Q 538 2560 205 2560 
L 205 2758 
L 1107 2829 
L 1107 2157 
Q 1408 2829 2054 2829 
Q 2803 2829 2906 2202 
Q 3014 2445 3244 2637 
Q 3475 2829 3834 2829 
Q 4314 2829 4506 2592 
Q 4646 2432 4675 2253 
Q 4704 2074 4704 1613 
L 4704 390 
Q 4710 256 4812 227 
Q 4915 198 5203 198 
L 5203 0 
Q 4550 19 4486 19 
Q 4435 19 3763 0 
L 3763 198 
Q 4102 198 4182 240 
Q 4262 282 4262 486 
L 4262 1978 
Q 4262 2304 4163 2496 
Q 4064 2688 3789 2688 
Q 3456 2688 3190 2409 
Q 2925 2131 2925 1664 
L 2925 486 
Q 2925 282 3005 240 
Q 3085 198 3424 198 
L 3424 0 
Q 2771 19 2707 19 
Q 2656 19 1984 0 
L 1984 198 
Q 2323 198 2403 240 
Q 2483 282 2483 486 
L 2483 1978 
Q 2483 2304 2384 2496 
Q 2285 2688 2010 2688 
Q 1677 2688 1411 2409 
Q 1146 2131 1146 1664 
L 1146 486 
Q 1146 282 1226 240 
Q 1306 198 1645 198 
L 1645 0 
Q 992 19 928 19 
Q 877 19 205 0 
z
" transform="scale(0.015625)"/>
       <path id="CMUSerif-Roman-65" d="M 179 1408 
Q 179 2010 566 2438 
Q 954 2867 1510 2867 
Q 2074 2867 2365 2502 
Q 2656 2138 2656 1613 
Q 2656 1517 2630 1497 
Q 2605 1478 2496 1478 
L 710 1478 
Q 710 826 902 518 
Q 1171 90 1626 90 
Q 1690 90 1763 102 
Q 1837 115 1990 169 
Q 2144 224 2278 371 
Q 2413 518 2490 749 
Q 2509 838 2573 838 
Q 2656 838 2656 762 
Q 2656 704 2595 579 
Q 2534 454 2419 304 
Q 2304 154 2080 42 
Q 1856 -70 1587 -70 
Q 1024 -70 601 355 
Q 179 781 179 1408 
z
M 717 1613 
L 2234 1613 
Q 2234 1747 2211 1897 
Q 2189 2048 2121 2256 
Q 2054 2464 1897 2595 
Q 1741 2726 1510 2726 
Q 1408 2726 1296 2681 
Q 1184 2637 1049 2531 
Q 915 2426 822 2186 
Q 730 1946 717 1613 
z
" transform="scale(0.015625)"/>
       <path id="CMUSerif-Roman-20" transform="scale(0.015625)"/>
       <path id="CMUSerif-Roman-28" d="M 634 1600 
Q 634 2682 1037 3552 
Q 1210 3917 1450 4224 
Q 1690 4531 1850 4665 
Q 2010 4800 2054 4800 
Q 2118 4800 2118 4736 
Q 2118 4704 2035 4627 
Q 1005 3578 1005 1600 
Q 1005 -384 2010 -1395 
Q 2118 -1504 2118 -1536 
Q 2118 -1600 2054 -1600 
Q 2010 -1600 1856 -1472 
Q 1702 -1344 1465 -1049 
Q 1229 -755 1056 -397 
Q 634 474 634 1600 
z
" transform="scale(0.015625)"/>
       <path id="CMUSerif-Roman-73" d="M 211 83 
L 211 928 
Q 211 998 214 1024 
Q 218 1050 237 1069 
Q 256 1088 294 1088 
Q 339 1088 355 1069 
Q 371 1050 384 979 
Q 480 538 688 304 
Q 896 70 1274 70 
Q 1632 70 1814 230 
Q 1997 390 1997 653 
Q 1997 1120 1331 1242 
Q 947 1318 787 1369 
Q 627 1421 486 1536 
Q 211 1760 211 2080 
Q 211 2400 454 2633 
Q 698 2867 1235 2867 
Q 1594 2867 1837 2688 
Q 1907 2746 1946 2790 
Q 2029 2867 2074 2867 
Q 2125 2867 2134 2835 
Q 2144 2803 2144 2714 
L 2144 2067 
Q 2144 1997 2141 1971 
Q 2138 1946 2118 1930 
Q 2099 1914 2061 1914 
Q 1990 1914 1984 1971 
Q 1933 2746 1235 2746 
Q 858 2746 688 2602 
Q 518 2458 518 2259 
Q 518 2150 569 2067 
Q 621 1984 688 1936 
Q 755 1888 880 1843 
Q 1005 1798 1081 1782 
Q 1158 1766 1306 1734 
Q 1818 1638 2035 1427 
Q 2304 1158 2304 819 
Q 2304 442 2048 186 
Q 1792 -70 1274 -70 
Q 858 -70 570 205 
Q 531 166 502 134 
Q 474 102 464 89 
Q 454 77 451 70 
Q 448 64 442 58 
Q 314 -70 282 -70 
Q 230 -70 220 -38 
Q 211 -6 211 83 
z
" transform="scale(0.015625)"/>
       <path id="CMUSerif-Roman-29" d="M 365 -1536 
Q 365 -1504 448 -1427 
Q 1478 -378 1478 1600 
Q 1478 3584 486 4589 
Q 365 4704 365 4736 
Q 365 4800 429 4800 
Q 474 4800 627 4672 
Q 781 4544 1017 4249 
Q 1254 3955 1427 3597 
Q 1850 2726 1850 1600 
Q 1850 518 1446 -352 
Q 1274 -717 1034 -1024 
Q 794 -1331 634 -1465 
Q 474 -1600 429 -1600 
Q 365 -1600 365 -1536 
z
" transform="scale(0.015625)"/>
      </defs>
      <use xlink:href="#CMUSerif-Roman-54"/>
      <use xlink:href="#CMUSerif-Roman-69" x="72.199982"/>
      <use xlink:href="#CMUSerif-Roman-6d" x="99.899979"/>
      <use xlink:href="#CMUSerif-Roman-65" x="183.199966"/>
      <use xlink:href="#CMUSerif-Roman-20" x="227.59996"/>
      <use xlink:href="#CMUSerif-Roman-28" x="260.899948"/>
      <use xlink:href="#CMUSerif-Roman-73" x="299.699936"/>
      <use xlink:href="#CMUSerif-Roman-29" x="339.09993"/>
     </g>
    </g>
    <g id="text_9">
     <!-- 1e7 -->
     <g transform="translate(395.841875 334.860562) scale(0.1 -0.1)">
      <defs>
       <path id="DejaVuSans-65" d="M 3597 1894 
L 3597 1613 
L 953 1613 
Q 991 1019 1311 708 
Q 1631 397 2203 397 
Q 2534 397 2845 478 
Q 3156 559 3463 722 
L 3463 178 
Q 3153 47 2828 -22 
Q 2503 -91 2169 -91 
Q 1331 -91 842 396 
Q 353 884 353 1716 
Q 353 2575 817 3079 
Q 1281 3584 2069 3584 
Q 2775 3584 3186 3129 
Q 3597 2675 3597 1894 
z
M 3022 2063 
Q 3016 2534 2758 2815 
Q 2500 3097 2075 3097 
Q 1594 3097 1305 2825 
Q 1016 2553 972 2059 
L 3022 2063 
z
" transform="scale(0.015625)"/>
       <path id="DejaVuSans-37" d="M 525 4666 
L 3525 4666 
L 3525 4397 
L 1831 0 
L 1172 0 
L 2766 4134 
L 525 4134 
L 525 4666 
z
" transform="scale(0.015625)"/>
      </defs>
      <use xlink:href="#DejaVuSans-31"/>
      <use xlink:href="#DejaVuSans-65" x="63.623047"/>
      <use xlink:href="#DejaVuSans-37" x="125.146484"/>
     </g>
    </g>
   </g>
   <g id="matplotlib.axis_2">
    <g id="ytick_1">
     <g id="line2d_8">
      <defs>
       <path id="mdeba3f2eae" d="M 0 0 
L -3.5 0 
" style="stroke: #000000; stroke-width: 0.8"/>
      </defs>
      <g>
       <use xlink:href="#mdeba3f2eae" x="57.6" y="275.274442" style="stroke: #000000; stroke-width: 0.8"/>
      </g>
     </g>
     <g id="text_10">
      <!-- −1.5 -->
      <g transform="translate(26.317187 279.073661) scale(0.1 -0.1)">
       <defs>
        <path id="DejaVuSans-2212" d="M 678 2272 
L 4684 2272 
L 4684 1741 
L 678 1741 
L 678 2272 
z
" transform="scale(0.015625)"/>
       </defs>
       <use xlink:href="#DejaVuSans-2212"/>
       <use xlink:href="#DejaVuSans-31" x="83.789062"/>
       <use xlink:href="#DejaVuSans-2e" x="147.412109"/>
       <use xlink:href="#DejaVuSans-35" x="179.199219"/>
      </g>
     </g>
    </g>
    <g id="ytick_2">
     <g id="line2d_9">
      <g>
       <use xlink:href="#mdeba3f2eae" x="57.6" y="241.689097" style="stroke: #000000; stroke-width: 0.8"/>
      </g>
     </g>
     <g id="text_11">
      <!-- −1.0 -->
      <g transform="translate(26.317187 245.488316) scale(0.1 -0.1)">
       <use xlink:href="#DejaVuSans-2212"/>
       <use xlink:href="#DejaVuSans-31" x="83.789062"/>
       <use xlink:href="#DejaVuSans-2e" x="147.412109"/>
       <use xlink:href="#DejaVuSans-30" x="179.199219"/>
      </g>
     </g>
    </g>
    <g id="ytick_3">
     <g id="line2d_10">
      <g>
       <use xlink:href="#mdeba3f2eae" x="57.6" y="208.103752" style="stroke: #000000; stroke-width: 0.8"/>
      </g>
     </g>
     <g id="text_12">
      <!-- −0.5 -->
      <g transform="translate(26.317187 211.902971) scale(0.1 -0.1)">
       <use xlink:href="#DejaVuSans-2212"/>
       <use xlink:href="#DejaVuSans-30" x="83.789062"/>
       <use xlink:href="#DejaVuSans-2e" x="147.412109"/>
       <use xlink:href="#DejaVuSans-35" x="179.199219"/>
      </g>
     </g>
    </g>
    <g id="ytick_4">
     <g id="line2d_11">
      <g>
       <use xlink:href="#mdeba3f2eae" x="57.6" y="174.518407" style="stroke: #000000; stroke-width: 0.8"/>
      </g>
     </g>
     <g id="text_13">
      <!-- 0.0 -->
      <g transform="translate(34.696875 178.317625) scale(0.1 -0.1)">
       <use xlink:href="#DejaVuSans-30"/>
       <use xlink:href="#DejaVuSans-2e" x="63.623047"/>
       <use xlink:href="#DejaVuSans-30" x="95.410156"/>
      </g>
     </g>
    </g>
    <g id="ytick_5">
     <g id="line2d_12">
      <g>
       <use xlink:href="#mdeba3f2eae" x="57.6" y="140.933061" style="stroke: #000000; stroke-width: 0.8"/>
      </g>
     </g>
     <g id="text_14">
      <!-- 0.5 -->
      <g transform="translate(34.696875 144.73228) scale(0.1 -0.1)">
       <use xlink:href="#DejaVuSans-30"/>
       <use xlink:href="#DejaVuSans-2e" x="63.623047"/>
       <use xlink:href="#DejaVuSans-35" x="95.410156"/>
      </g>
     </g>
    </g>
    <g id="ytick_6">
     <g id="line2d_13">
      <g>
       <use xlink:href="#mdeba3f2eae" x="57.6" y="107.347716" style="stroke: #000000; stroke-width: 0.8"/>
      </g>
     </g>
     <g id="text_15">
      <!-- 1.0 -->
      <g transform="translate(34.696875 111.146935) scale(0.1 -0.1)">
       <use xlink:href="#DejaVuSans-31"/>
       <use xlink:href="#DejaVuSans-2e" x="63.623047"/>
       <use xlink:href="#DejaVuSans-30" x="95.410156"/>
      </g>
     </g>
    </g>
    <g id="ytick_7">
     <g id="line2d_14">
      <g>
       <use xlink:href="#mdeba3f2eae" x="57.6" y="73.762371" style="stroke: #000000; stroke-width: 0.8"/>
      </g>
     </g>
     <g id="text_16">
      <!-- 1.5 -->
      <g transform="translate(34.696875 77.561589) scale(0.1 -0.1)">
       <use xlink:href="#DejaVuSans-31"/>
       <use xlink:href="#DejaVuSans-2e" x="63.623047"/>
       <use xlink:href="#DejaVuSans-35" x="95.410156"/>
      </g>
     </g>
    </g>
    <g id="text_17">
     <!-- Momentum (kgm/s) -->
     <g transform="translate(19.817187 218.962375) rotate(-90) scale(0.1 -0.1)">
      <defs>
       <path id="CMUSerif-Roman-4d" d="M 237 0 
L 237 198 
Q 467 198 614 243 
Q 762 288 816 374 
Q 870 461 883 518 
Q 896 576 896 672 
L 896 3872 
Q 896 4058 816 4115 
Q 736 4173 390 4173 
L 237 4173 
L 237 4371 
L 1318 4371 
Q 1434 4371 1466 4352 
Q 1498 4333 1542 4230 
L 2931 646 
L 4333 4250 
Q 4365 4339 4393 4355 
Q 4422 4371 4544 4371 
L 5626 4371 
L 5626 4173 
L 5472 4173 
Q 5126 4173 5046 4115 
Q 4966 4058 4966 3872 
L 4966 499 
Q 4966 314 5046 256 
Q 5126 198 5472 198 
L 5626 198 
L 5626 0 
Q 5389 19 4710 19 
Q 4026 19 3789 0 
L 3789 198 
L 3942 198 
Q 4288 198 4368 256 
Q 4448 314 4448 499 
L 4448 4173 
L 4442 4173 
L 2867 122 
Q 2822 0 2752 0 
Q 2675 0 2624 141 
L 1082 4122 
L 1075 4122 
L 1075 672 
Q 1075 576 1088 518 
Q 1101 461 1155 374 
Q 1210 288 1357 243 
Q 1504 198 1734 198 
L 1734 0 
Q 1062 19 985 19 
Q 909 19 237 0 
z
" transform="scale(0.015625)"/>
       <path id="CMUSerif-Roman-6f" d="M 601 346 
Q 179 762 179 1370 
Q 179 1978 592 2422 
Q 1005 2867 1600 2867 
Q 2182 2867 2598 2425 
Q 3014 1984 3014 1370 
Q 3014 768 2595 349 
Q 2176 -70 1594 -70 
Q 1024 -70 601 346 
z
M 710 1421 
Q 710 800 870 518 
Q 1120 90 1600 90 
Q 1837 90 2035 218 
Q 2234 346 2342 563 
Q 2483 845 2483 1421 
Q 2483 2035 2317 2310 
Q 2067 2726 1594 2726 
Q 1389 2726 1187 2617 
Q 986 2509 864 2298 
Q 710 2016 710 1421 
z
" transform="scale(0.015625)"/>
       <path id="CMUSerif-Roman-6e" d="M 205 0 
L 205 198 
Q 544 198 624 240 
Q 704 282 704 486 
L 704 2202 
Q 704 2438 621 2499 
Q 538 2560 205 2560 
L 205 2758 
L 1107 2829 
L 1107 2157 
Q 1408 2829 2054 2829 
Q 2534 2829 2726 2592 
Q 2867 2432 2896 2253 
Q 2925 2074 2925 1613 
L 2925 390 
Q 2931 256 3033 227 
Q 3136 198 3424 198 
L 3424 0 
Q 2771 19 2707 19 
Q 2656 19 1984 0 
L 1984 198 
Q 2323 198 2403 240 
Q 2483 282 2483 486 
L 2483 1978 
Q 2483 2304 2384 2496 
Q 2285 2688 2010 2688 
Q 1677 2688 1411 2409 
Q 1146 2131 1146 1664 
L 1146 486 
Q 1146 282 1226 240 
Q 1306 198 1645 198 
L 1645 0 
Q 992 19 928 19 
Q 877 19 205 0 
z
" transform="scale(0.015625)"/>
       <path id="CMUSerif-Roman-74" d="M 122 2560 
L 122 2701 
Q 416 2714 611 2922 
Q 806 3130 873 3386 
Q 941 3642 947 3936 
L 1107 3936 
L 1107 2758 
L 2022 2758 
L 2022 2560 
L 1107 2560 
L 1107 781 
Q 1107 90 1536 90 
Q 1722 90 1843 278 
Q 1965 467 1965 806 
L 1965 1158 
L 2125 1158 
L 2125 794 
Q 2125 448 1965 189 
Q 1805 -70 1491 -70 
Q 1376 -70 1261 -41 
Q 1146 -13 998 64 
Q 851 141 758 329 
Q 666 518 666 794 
L 666 2560 
L 122 2560 
z
" transform="scale(0.015625)"/>
       <path id="CMUSerif-Roman-75" d="M 205 2560 
L 205 2758 
L 1146 2829 
L 1146 704 
Q 1146 550 1158 460 
Q 1171 371 1222 268 
Q 1274 166 1395 118 
Q 1517 70 1709 70 
Q 2054 70 2268 355 
Q 2483 640 2483 1062 
L 2483 2202 
Q 2483 2438 2400 2499 
Q 2317 2560 1984 2560 
L 1984 2758 
L 2925 2829 
L 2925 557 
Q 2925 320 3008 259 
Q 3091 198 3424 198 
L 3424 0 
L 2502 -70 
L 2502 506 
Q 2234 -70 1677 -70 
Q 1395 -70 1203 0 
Q 1011 70 915 160 
Q 819 250 768 422 
Q 717 595 710 700 
Q 704 806 704 1011 
L 704 1971 
Q 704 2406 640 2483 
Q 576 2560 205 2560 
z
" transform="scale(0.015625)"/>
       <path id="CMUSerif-Roman-6b" d="M 179 0 
L 179 198 
Q 518 198 598 240 
Q 678 282 678 486 
L 678 3814 
Q 678 4051 595 4112 
Q 512 4173 179 4173 
L 179 4371 
L 1101 4442 
L 1101 1370 
L 2003 2150 
Q 2144 2272 2144 2400 
Q 2144 2547 1958 2560 
L 1958 2758 
Q 2227 2739 2675 2739 
Q 2938 2739 3123 2758 
L 3123 2560 
Q 2720 2541 2317 2214 
Q 2227 2144 2012 1958 
Q 1798 1773 1798 1754 
Q 1798 1747 1804 1731 
Q 1811 1715 1824 1702 
Q 1837 1690 1837 1683 
L 2650 538 
Q 2816 307 2937 252 
Q 3059 198 3270 198 
L 3270 0 
Q 2995 19 2714 19 
Q 2560 19 2022 0 
L 2022 198 
Q 2253 198 2253 346 
Q 2253 448 1734 1165 
Q 1696 1216 1613 1325 
Q 1536 1440 1491 1498 
L 1082 1146 
L 1082 486 
Q 1082 282 1162 240 
Q 1242 198 1581 198 
L 1581 0 
Q 1197 19 877 19 
Q 813 19 179 0 
z
" transform="scale(0.015625)"/>
       <path id="CMUSerif-Roman-67" d="M 179 -506 
Q 179 -301 336 -121 
Q 493 58 768 134 
Q 486 314 486 704 
Q 486 1005 685 1235 
Q 384 1485 384 1894 
Q 384 2272 685 2550 
Q 986 2829 1421 2829 
Q 1805 2829 2099 2598 
Q 2406 2899 2778 2899 
Q 2944 2899 3024 2796 
Q 3104 2694 3104 2586 
Q 3104 2490 3043 2442 
Q 2982 2394 2918 2394 
Q 2842 2394 2787 2445 
Q 2733 2496 2733 2579 
Q 2733 2714 2835 2752 
Q 2816 2758 2771 2758 
Q 2458 2758 2195 2509 
Q 2458 2266 2458 1888 
Q 2458 1510 2157 1232 
Q 1856 954 1421 954 
Q 1062 954 787 1152 
Q 678 1024 678 851 
Q 678 691 774 566 
Q 870 442 1018 422 
Q 1062 416 1498 416 
Q 1754 416 1894 409 
Q 2035 403 2236 361 
Q 2438 320 2598 237 
Q 3014 6 3014 -493 
Q 3014 -858 2595 -1088 
Q 2176 -1318 1594 -1318 
Q 1005 -1318 592 -1084 
Q 179 -851 179 -506 
z
M 512 -506 
Q 512 -768 822 -969 
Q 1133 -1171 1600 -1171 
Q 2061 -1171 2371 -972 
Q 2682 -774 2682 -506 
Q 2682 -314 2573 -192 
Q 2464 -70 2240 -22 
Q 2016 26 1859 35 
Q 1702 45 1414 45 
L 1037 45 
Q 819 32 665 -128 
Q 512 -288 512 -506 
z
M 864 1888 
Q 864 1101 1421 1101 
Q 1702 1101 1875 1357 
Q 1978 1530 1978 1894 
Q 1978 2682 1421 2682 
Q 1139 2682 966 2426 
Q 864 2253 864 1888 
z
" transform="scale(0.015625)"/>
       <path id="CMUSerif-Roman-2f" d="M 365 -1510 
Q 365 -1478 390 -1408 
L 2650 4627 
Q 2650 4634 2666 4669 
Q 2682 4704 2691 4726 
Q 2701 4749 2720 4768 
Q 2739 4787 2765 4787 
Q 2829 4787 2829 4710 
Q 2829 4704 2810 4627 
L 544 -1414 
Q 506 -1523 483 -1555 
Q 461 -1587 422 -1587 
Q 365 -1587 365 -1510 
z
" transform="scale(0.015625)"/>
      </defs>
      <use xlink:href="#CMUSerif-Roman-4d"/>
      <use xlink:href="#CMUSerif-Roman-6f" x="91.599991"/>
      <use xlink:href="#CMUSerif-Roman-6d" x="141.599976"/>
      <use xlink:href="#CMUSerif-Roman-65" x="224.899963"/>
      <use xlink:href="#CMUSerif-Roman-6e" x="269.299957"/>
      <use xlink:href="#CMUSerif-Roman-74" x="324.799942"/>
      <use xlink:href="#CMUSerif-Roman-75" x="363.59993"/>
      <use xlink:href="#CMUSerif-Roman-6d" x="419.099915"/>
      <use xlink:href="#CMUSerif-Roman-20" x="502.399902"/>
      <use xlink:href="#CMUSerif-Roman-28" x="535.69989"/>
      <use xlink:href="#CMUSerif-Roman-6b" x="574.499878"/>
      <use xlink:href="#CMUSerif-Roman-67" x="627.199875"/>
      <use xlink:href="#CMUSerif-Roman-6d" x="677.19986"/>
      <use xlink:href="#CMUSerif-Roman-2f" x="760.499847"/>
      <use xlink:href="#CMUSerif-Roman-73" x="810.499832"/>
      <use xlink:href="#CMUSerif-Roman-29" x="849.899826"/>
     </g>
    </g>
    <g id="text_18">
     <!-- 1e29 -->
     <g transform="translate(57.6 38.472) scale(0.1 -0.1)">
      <defs>
       <path id="DejaVuSans-39" d="M 703 97 
L 703 672 
Q 941 559 1184 500 
Q 1428 441 1663 441 
Q 2288 441 2617 861 
Q 2947 1281 2994 2138 
Q 2813 1869 2534 1725 
Q 2256 1581 1919 1581 
Q 1219 1581 811 2004 
Q 403 2428 403 3163 
Q 403 3881 828 4315 
Q 1253 4750 1959 4750 
Q 2769 4750 3195 4129 
Q 3622 3509 3622 2328 
Q 3622 1225 3098 567 
Q 2575 -91 1691 -91 
Q 1453 -91 1209 -44 
Q 966 3 703 97 
z
M 1959 2075 
Q 2384 2075 2632 2365 
Q 2881 2656 2881 3163 
Q 2881 3666 2632 3958 
Q 2384 4250 1959 4250 
Q 1534 4250 1286 3958 
Q 1038 3666 1038 3163 
Q 1038 2656 1286 2365 
Q 1534 2075 1959 2075 
z
" transform="scale(0.015625)"/>
      </defs>
      <use xlink:href="#DejaVuSans-31"/>
      <use xlink:href="#DejaVuSans-65" x="63.623047"/>
      <use xlink:href="#DejaVuSans-32" x="125.146484"/>
      <use xlink:href="#DejaVuSans-39" x="188.769531"/>
     </g>
    </g>
   </g>
   <g id="line2d_15">
    <path d="M 73.832727 174.51094 
L 86.461789 145.744214 
L 93.139933 131.098134 
L 98.681786 119.465304 
L 103.580823 109.686562 
L 108.035084 101.281558 
L 112.148457 93.984911 
L 115.98912 87.615777 
L 119.602525 82.045941 
L 123.017891 77.182122 
L 126.26119 72.942914 
L 129.351901 69.262262 
L 132.306257 66.083508 
L 135.137245 63.358275 
L 137.861097 61.039984 
L 140.484305 59.094868 
L 143.019857 57.487469 
L 145.480739 56.187338 
L 147.876689 55.170243 
L 150.220695 54.414719 
L 152.522496 53.904787 
L 154.795078 53.6278 
L 157.054673 53.576 
L 159.311023 53.746841 
L 161.577111 54.141938 
L 163.865926 54.767622 
L 166.193699 55.636324 
L 168.566924 56.761458 
L 171.001833 58.164726 
L 173.508166 59.869278 
L 176.095663 61.90178 
L 178.774063 64.29235 
L 181.559599 67.081274 
L 184.458764 70.303437 
L 187.487791 74.007509 
L 190.662912 78.247331 
L 194.000361 83.081216 
L 197.522863 88.581411 
L 201.259636 94.836221 
L 205.246394 101.951326 
L 209.538327 110.075025 
L 214.223092 119.429204 
L 219.440291 130.356448 
L 225.482112 143.545422 
L 233.192657 160.945725 
L 255.165277 210.84868 
L 261.203852 223.820094 
L 266.408064 234.4856 
L 271.079843 243.564119 
L 275.362036 251.40987 
L 279.342301 258.247389 
L 283.072582 264.221721 
L 286.588591 269.440992 
L 289.922793 273.99947 
L 293.091421 277.961854 
L 296.117201 281.395787 
L 299.01312 284.351567 
L 301.792163 286.875376 
L 304.46407 289.006437 
L 307.045073 290.784695 
L 309.541667 292.238599 
L 311.970083 293.398474 
L 314.336815 294.285148 
L 316.658095 294.919301 
L 318.943663 295.314613 
L 321.206505 295.481304 
L 323.459607 295.424825 
L 325.719203 295.145335 
L 327.995031 294.638762 
L 330.300079 293.896389 
L 332.647331 292.904738 
L 335.046528 291.647398 
L 337.510656 290.102236 
L 340.052701 288.242257 
L 342.682403 286.038477 
L 345.409501 283.458493 
L 348.246982 280.463056 
L 351.204585 277.012474 
L 354.298543 273.055836 
L 357.545088 268.537353 
L 360.966947 263.387066 
L 364.583599 257.534739 
L 368.430755 250.878752 
L 372.553868 243.292229 
L 377.017868 234.602912 
L 381.933137 224.536448 
L 387.49447 212.624298 
L 394.156381 197.805207 
L 398.487273 187.95562 
L 398.487273 187.95562 
" clip-path="url(#pbbb63e3531)" style="fill: none; stroke: #1f77b4; stroke-width: 1.5; stroke-linecap: square"/>
   </g>
   <g id="line2d_16">
    <path d="M 73.832727 174.525728 
L 89.766772 210.184923 
L 96.34752 224.078498 
L 101.921839 235.40784 
L 106.025472 243.19122 
L 110.385583 250.988054 
L 115.080087 258.92196 
L 118.391564 264.128951 
L 121.582918 268.723154 
L 124.894394 273.104544 
L 128.3195 277.26698 
L 131.718633 281.0605 
L 134.299636 283.623326 
L 136.828695 285.819284 
L 139.442164 287.796381 
L 142.101085 289.530421 
L 144.886621 291.080361 
L 147.532556 292.309622 
L 149.681769 293.070223 
L 151.78553 293.57684 
L 153.989935 293.877859 
L 156.281996 293.965539 
L 158.690932 293.83269 
L 161.301155 293.462861 
L 163.661393 292.913998 
L 165.735936 292.202107 
L 167.911121 291.214351 
L 170.284346 289.887331 
L 172.852364 288.191584 
L 175.741789 286.00809 
L 178.692899 283.507346 
L 181.150534 281.132611 
L 183.786729 278.263421 
L 186.770304 274.678042 
L 190.195409 270.200693 
L 194.075031 264.764675 
L 197.087825 260.159117 
L 200.538903 254.45536 
L 204.7237 247.090471 
L 209.957132 237.42203 
L 213.801041 229.821386 
L 219.047459 218.916023 
L 226.806703 202.255353 
L 234.156881 185.690262 
L 252.444672 144.582739 
L 262.411567 123.268642 
L 266.479488 115.14782 
L 272.819991 103.111434 
L 276.790516 96.027342 
L 280.072774 90.611098 
L 284.419898 83.934945 
L 288.082001 78.662225 
L 291.127261 74.65671 
L 293.812154 71.483381 
L 297.094412 67.981654 
L 300.373423 64.770864 
L 303.058316 62.447184 
L 305.45102 60.661995 
L 307.681396 59.272979 
L 310.43122 57.843465 
L 313.268701 56.597836 
L 315.632186 55.799372 
L 317.794385 55.29929 
L 319.797504 55.061162 
L 321.875293 55.044538 
L 324.657583 55.2609 
L 327.186641 55.666191 
L 329.446237 56.253262 
L 331.579217 57.035835 
L 333.637527 58.029399 
L 336.085423 59.478152 
L 339.270284 61.619976 
L 341.919465 63.666647 
L 344.403072 65.866836 
L 346.786036 68.277881 
L 349.876748 71.762149 
L 353.564823 76.225099 
L 356.616576 80.27124 
L 359.434577 84.376263 
L 363.265501 90.42084 
L 367.628858 97.652701 
L 371.125388 103.881635 
L 375.027735 111.342265 
L 381.277335 123.703856 
L 385.290065 132.152997 
L 396.191965 156.026091 
L 398.487273 161.280881 
L 398.487273 161.280881 
" clip-path="url(#pbbb63e3531)" style="fill: none; stroke: #ff7f0e; stroke-width: 1.5; stroke-linecap: square"/>
   </g>
   <g id="line2d_17">
    <path d="M 73.832727 174.518552 
L 81.491328 174.750273 
L 87.906502 174.867943 
L 98.470761 175.186453 
L 104.116503 175.276924 
L 114.596352 175.554832 
L 120.479092 175.617954 
L 130.332358 175.826728 
L 136.760518 175.850946 
L 145.90279 175.981425 
L 152.827671 175.953875 
L 161.395305 176.00791 
L 168.518225 175.920905 
L 176.832628 175.90565 
L 183.770496 175.76373 
L 192.198528 175.685202 
L 198.655907 175.504808 
L 207.473524 175.366852 
L 213.29458 175.170241 
L 222.634892 174.978815 
L 227.803392 174.787196 
L 237.59822 174.558276 
L 242.266752 174.383935 
L 252.233647 174.147056 
L 256.632716 173.991166 
L 266.547665 173.775294 
L 270.816873 173.63826 
L 280.62144 173.463158 
L 284.81273 173.349009 
L 294.46471 173.229107 
L 298.607302 173.141065 
L 308.090461 173.084816 
L 312.194095 173.025032 
L 321.508433 173.035438 
L 325.573108 173.004502 
L 334.71538 173.080124 
L 338.73785 173.076331 
L 347.724288 173.211663 
L 351.694813 173.23193 
L 360.518924 173.418745 
L 364.437504 173.457798 
L 373.112273 173.685674 
L 376.982156 173.738045 
L 385.491351 173.994897 
L 389.332015 174.054524 
L 397.656157 174.327581 
L 398.487273 174.318719 
L 398.487273 174.318719 
" clip-path="url(#pbbb63e3531)" style="fill: none; stroke: #2ca02c; stroke-width: 1.5; stroke-linecap: square"/>
   </g>
   <g id="line2d_18">
    <path d="M 73.832727 174.518407 
L 398.487273 174.518407 
L 398.487273 174.518407 
" clip-path="url(#pbbb63e3531)" style="fill: none; stroke: #d62728; stroke-width: 1.5; stroke-linecap: square"/>
   </g>
   <g id="patch_3">
    <path d="M 57.6 307.584 
L 57.6 41.472 
" style="fill: none; stroke: #000000; stroke-width: 0.8; stroke-linejoin: miter; stroke-linecap: square"/>
   </g>
   <g id="patch_4">
    <path d="M 414.72 307.584 
L 414.72 41.472 
" style="fill: none; stroke: #000000; stroke-width: 0.8; stroke-linejoin: miter; stroke-linecap: square"/>
   </g>
   <g id="patch_5">
    <path d="M 57.6 307.584 
L 414.72 307.584 
" style="fill: none; stroke: #000000; stroke-width: 0.8; stroke-linejoin: miter; stroke-linecap: square"/>
   </g>
   <g id="patch_6">
    <path d="M 57.6 41.472 
L 414.72 41.472 
" style="fill: none; stroke: #000000; stroke-width: 0.8; stroke-linejoin: miter; stroke-linecap: square"/>
   </g>
   <g id="text_19">
    <!-- Figure 1c: The X Momenta of the Earth, Sun, and Moon -->
    <g transform="translate(111.245937 35.472) scale(0.1 -0.1)">
     <defs>
      <path id="CMUSerif-Roman-46" d="M 211 0 
L 211 198 
L 365 198 
Q 710 198 790 256 
Q 870 314 870 499 
L 870 3853 
Q 870 4038 790 4096 
Q 710 4154 365 4154 
L 211 4154 
L 211 4352 
L 3725 4352 
L 3904 2912 
L 3744 2912 
Q 3699 3277 3641 3485 
Q 3584 3693 3453 3859 
Q 3322 4026 3101 4090 
Q 2880 4154 2522 4154 
L 1754 4154 
Q 1536 4154 1488 4109 
Q 1440 4064 1440 3898 
L 1440 2278 
L 1990 2278 
Q 2426 2278 2547 2435 
Q 2669 2592 2669 3027 
L 2829 3027 
L 2829 1331 
L 2669 1331 
Q 2669 1773 2547 1926 
Q 2426 2080 1990 2080 
L 1440 2080 
L 1440 506 
Q 1440 371 1462 320 
Q 1485 269 1619 233 
Q 1754 198 2048 198 
L 2259 198 
L 2259 0 
Q 2029 19 1184 19 
Q 435 19 211 0 
z
" transform="scale(0.015625)"/>
      <path id="CMUSerif-Roman-72" d="M 179 0 
L 179 198 
Q 518 198 598 240 
Q 678 282 678 486 
L 678 2202 
Q 678 2438 595 2499 
Q 512 2560 179 2560 
L 179 2758 
L 1069 2829 
L 1069 2125 
Q 1158 2400 1350 2614 
Q 1542 2829 1856 2829 
Q 2061 2829 2195 2713 
Q 2330 2598 2330 2438 
Q 2330 2298 2243 2227 
Q 2157 2157 2054 2157 
Q 1939 2157 1859 2230 
Q 1779 2304 1779 2432 
Q 1779 2509 1814 2569 
Q 1850 2630 1878 2652 
Q 1907 2675 1926 2682 
Q 1914 2688 1856 2688 
Q 1504 2688 1302 2336 
Q 1101 1984 1101 1485 
L 1101 499 
Q 1101 314 1177 256 
Q 1254 198 1587 198 
L 1722 198 
L 1722 0 
Q 1466 19 909 19 
Q 832 19 710 16 
Q 589 13 429 6 
Q 269 0 179 0 
z
" transform="scale(0.015625)"/>
      <path id="CMUSerif-Roman-31" d="M 570 3654 
L 570 3853 
Q 1338 3853 1734 4262 
Q 1843 4262 1862 4236 
Q 1882 4211 1882 4096 
L 1882 506 
Q 1882 314 1974 256 
Q 2067 198 2477 198 
L 2682 198 
L 2682 0 
Q 2458 19 1645 19 
Q 832 19 608 0 
L 608 198 
L 813 198 
Q 1216 198 1312 256 
Q 1408 314 1408 506 
L 1408 3821 
Q 1075 3654 570 3654 
z
" transform="scale(0.015625)"/>
      <path id="CMUSerif-Roman-63" d="M 624 352 
Q 218 774 218 1382 
Q 218 1990 618 2428 
Q 1018 2867 1606 2867 
Q 1997 2867 2291 2681 
Q 2586 2496 2586 2182 
Q 2586 2042 2502 1962 
Q 2419 1882 2291 1882 
Q 2157 1882 2077 1965 
Q 1997 2048 1997 2176 
Q 1997 2234 2016 2288 
Q 2035 2342 2105 2403 
Q 2176 2464 2298 2470 
Q 2067 2707 1613 2707 
Q 1286 2707 1017 2400 
Q 749 2093 749 1395 
Q 749 1030 838 761 
Q 928 493 1075 355 
Q 1222 218 1366 154 
Q 1510 90 1651 90 
Q 2278 90 2490 762 
Q 2509 826 2573 826 
Q 2656 826 2656 762 
Q 2656 730 2630 650 
Q 2605 570 2528 442 
Q 2451 314 2339 202 
Q 2227 90 2032 10 
Q 1837 -70 1594 -70 
Q 1030 -70 624 352 
z
" transform="scale(0.015625)"/>
      <path id="CMUSerif-Roman-3a" d="M 649 2179 
Q 550 2279 550 2419 
Q 550 2560 649 2659 
Q 749 2759 889 2759 
Q 1030 2759 1129 2659 
Q 1229 2560 1229 2419 
Q 1229 2279 1129 2179 
Q 1030 2080 889 2080 
Q 749 2080 649 2179 
z
M 649 99 
Q 550 199 550 339 
Q 550 480 649 579 
Q 749 679 889 679 
Q 1030 679 1129 579 
Q 1229 480 1229 339 
Q 1229 199 1129 99 
Q 1030 0 889 0 
Q 749 0 649 99 
z
" transform="scale(0.015625)"/>
      <path id="CMUSerif-Roman-68" d="M 205 0 
L 205 198 
Q 544 198 624 240 
Q 704 282 704 486 
L 704 3814 
Q 704 4051 621 4112 
Q 538 4173 205 4173 
L 205 4371 
L 1126 4442 
L 1126 2214 
L 1133 2214 
Q 1235 2445 1465 2637 
Q 1696 2829 2054 2829 
Q 2534 2829 2726 2592 
Q 2867 2432 2896 2253 
Q 2925 2074 2925 1613 
L 2925 390 
Q 2931 256 3033 227 
Q 3136 198 3424 198 
L 3424 0 
Q 2771 19 2707 19 
Q 2656 19 1984 0 
L 1984 198 
Q 2323 198 2403 240 
Q 2483 282 2483 486 
L 2483 1978 
Q 2483 2304 2384 2496 
Q 2285 2688 2010 2688 
Q 1677 2688 1411 2409 
Q 1146 2131 1146 1664 
L 1146 486 
Q 1146 282 1226 240 
Q 1306 198 1645 198 
L 1645 0 
Q 992 19 928 19 
Q 877 19 205 0 
z
" transform="scale(0.015625)"/>
      <path id="CMUSerif-Roman-58" d="M 154 0 
L 154 198 
Q 448 198 662 288 
Q 877 378 941 445 
Q 1005 512 1082 621 
L 2131 2170 
L 954 3949 
Q 864 4083 742 4128 
Q 621 4173 358 4173 
L 237 4173 
L 237 4371 
Q 589 4352 1069 4352 
Q 1779 4352 2003 4371 
L 2003 4173 
Q 1811 4166 1699 4105 
Q 1587 4045 1587 3981 
Q 1587 3955 1632 3885 
L 2458 2650 
L 3187 3731 
Q 3245 3821 3245 3878 
Q 3245 3994 3139 4080 
Q 3034 4166 2848 4173 
L 2848 4371 
Q 3104 4352 3667 4352 
Q 3738 4352 3856 4355 
Q 3974 4358 4131 4364 
Q 4288 4371 4378 4371 
L 4378 4173 
Q 3731 4166 3450 3757 
L 2573 2470 
L 3923 429 
Q 4019 288 4140 243 
Q 4262 198 4525 198 
L 4646 198 
L 4646 0 
Q 4243 19 3814 19 
Q 3104 19 2880 0 
L 2880 198 
Q 3072 205 3184 265 
Q 3296 326 3296 390 
Q 3296 397 3264 461 
L 2253 1990 
L 1344 646 
Q 1280 544 1280 493 
Q 1280 390 1382 297 
Q 1485 205 1683 198 
L 1683 0 
Q 1453 19 864 19 
Q 845 19 154 0 
z
" transform="scale(0.015625)"/>
      <path id="CMUSerif-Roman-61" d="M 269 608 
Q 269 1152 909 1440 
Q 1293 1626 2086 1670 
L 2086 1907 
Q 2086 2304 1878 2515 
Q 1670 2726 1408 2726 
Q 941 2726 717 2432 
Q 909 2426 976 2330 
Q 1043 2234 1043 2138 
Q 1043 2010 963 1926 
Q 883 1843 749 1843 
Q 621 1843 537 1923 
Q 454 2003 454 2144 
Q 454 2458 736 2662 
Q 1018 2867 1421 2867 
Q 1946 2867 2298 2515 
Q 2406 2406 2460 2265 
Q 2515 2125 2521 2032 
Q 2528 1939 2528 1760 
L 2528 480 
Q 2528 442 2541 381 
Q 2554 320 2611 240 
Q 2669 160 2765 160 
Q 2995 160 2995 570 
L 2995 928 
L 3155 928 
L 3155 570 
Q 3155 230 2976 96 
Q 2797 -38 2630 -38 
Q 2419 -38 2284 118 
Q 2150 275 2131 486 
Q 2035 243 1814 86 
Q 1594 -70 1293 -70 
Q 1062 -70 844 -12 
Q 627 45 448 205 
Q 269 365 269 608 
z
M 762 614 
Q 762 378 931 224 
Q 1101 70 1338 70 
Q 1606 70 1846 278 
Q 2086 486 2086 896 
L 2086 1536 
Q 1376 1510 1069 1228 
Q 762 947 762 614 
z
" transform="scale(0.015625)"/>
      <path id="CMUSerif-Roman-66" d="M 211 2560 
L 211 2758 
L 717 2758 
L 717 3494 
Q 717 3968 1024 4240 
Q 1331 4512 1709 4512 
Q 1958 4512 2121 4377 
Q 2285 4243 2285 4064 
Q 2285 3942 2211 3862 
Q 2138 3782 2003 3782 
Q 1875 3782 1801 3862 
Q 1728 3942 1728 4058 
Q 1728 4262 1920 4326 
Q 1824 4371 1709 4371 
Q 1478 4371 1299 4134 
Q 1120 3898 1120 3501 
L 1120 2758 
L 1869 2758 
L 1869 2560 
L 1139 2560 
L 1139 499 
Q 1139 314 1216 256 
Q 1293 198 1626 198 
L 1760 198 
L 1760 0 
Q 1504 19 947 19 
Q 870 19 748 16 
Q 627 13 467 6 
Q 307 0 218 0 
L 218 198 
Q 557 198 637 240 
Q 717 282 717 486 
L 717 2560 
L 211 2560 
z
" transform="scale(0.015625)"/>
      <path id="CMUSerif-Roman-45" d="M 211 0 
L 211 198 
L 365 198 
Q 710 198 790 256 
Q 870 314 870 499 
L 870 3853 
Q 870 4038 790 4096 
Q 710 4154 365 4154 
L 211 4154 
L 211 4352 
L 3814 4352 
L 3994 2912 
L 3834 2912 
Q 3789 3277 3731 3488 
Q 3674 3699 3536 3862 
Q 3398 4026 3171 4090 
Q 2944 4154 2579 4154 
L 1754 4154 
Q 1536 4154 1488 4109 
Q 1440 4064 1440 3898 
L 1440 2362 
L 2016 2362 
Q 2458 2362 2582 2515 
Q 2707 2669 2707 3110 
L 2867 3110 
L 2867 1414 
L 2707 1414 
Q 2707 1850 2582 2006 
Q 2458 2163 2016 2163 
L 1440 2163 
L 1440 454 
Q 1440 288 1488 243 
Q 1536 198 1754 198 
L 2605 198 
Q 2880 198 3081 233 
Q 3283 269 3424 358 
Q 3565 448 3661 550 
Q 3757 653 3824 838 
Q 3891 1024 3929 1197 
Q 3968 1370 4013 1651 
L 4173 1651 
L 3904 0 
L 211 0 
z
" transform="scale(0.015625)"/>
      <path id="CMUSerif-Roman-2c" d="M 640 102 
Q 550 205 550 339 
Q 550 474 640 576 
Q 730 678 890 678 
Q 1082 678 1190 496 
Q 1299 314 1299 6 
Q 1299 -326 1164 -633 
Q 1030 -941 899 -1088 
Q 768 -1235 717 -1235 
Q 653 -1235 653 -1165 
Q 653 -1139 698 -1094 
Q 1158 -602 1158 6 
Q 1158 102 1146 102 
L 1133 90 
Q 1024 0 890 0 
Q 730 0 640 102 
z
" transform="scale(0.015625)"/>
      <path id="CMUSerif-Roman-53" d="M 358 13 
L 358 1293 
Q 358 1363 361 1388 
Q 365 1414 384 1433 
Q 403 1453 442 1453 
Q 512 1453 518 1389 
Q 538 755 915 403 
Q 1286 58 1926 58 
Q 2310 58 2547 333 
Q 2784 608 2784 973 
Q 2784 1318 2586 1562 
Q 2502 1670 2396 1740 
Q 2291 1811 2227 1833 
Q 2163 1856 2042 1888 
Q 1248 2080 1197 2099 
Q 819 2227 588 2550 
Q 358 2874 358 3270 
Q 358 3782 720 4147 
Q 1082 4512 1606 4512 
Q 1869 4512 2089 4429 
Q 2310 4346 2400 4272 
Q 2490 4198 2630 4064 
L 2854 4429 
Q 2906 4512 2950 4512 
Q 3002 4512 3011 4483 
Q 3021 4454 3021 4358 
L 3021 3072 
Q 3021 3002 3017 2976 
Q 3014 2950 2995 2934 
Q 2976 2918 2938 2918 
Q 2874 2918 2861 2995 
Q 2682 4333 1613 4333 
Q 1248 4333 1008 4086 
Q 768 3840 768 3494 
Q 768 3213 944 2982 
Q 1120 2752 1414 2682 
L 2234 2483 
Q 2643 2387 2918 2025 
Q 3194 1664 3194 1190 
Q 3194 646 2838 252 
Q 2483 -141 1933 -141 
Q 1536 -141 1229 -9 
Q 922 122 755 307 
Q 627 96 544 -26 
L 525 -58 
Q 474 -141 429 -141 
Q 378 -141 368 -109 
Q 358 -77 358 13 
z
" transform="scale(0.015625)"/>
      <path id="CMUSerif-Roman-64" d="M 218 1376 
Q 218 1984 643 2406 
Q 1069 2829 1645 2829 
Q 2131 2829 2451 2432 
L 2451 3814 
Q 2451 4051 2368 4112 
Q 2285 4173 1952 4173 
L 1952 4371 
L 2874 4442 
L 2874 557 
Q 2874 320 2957 259 
Q 3040 198 3373 198 
L 3373 0 
L 2432 -70 
L 2432 352 
Q 2099 -70 1574 -70 
Q 1024 -70 621 352 
Q 218 774 218 1376 
z
M 749 1370 
Q 749 774 934 480 
Q 1190 70 1606 70 
Q 2080 70 2362 518 
Q 2432 627 2432 755 
L 2432 2067 
Q 2432 2195 2362 2304 
Q 2099 2688 1670 2688 
Q 1222 2688 947 2278 
Q 749 1971 749 1370 
z
" transform="scale(0.015625)"/>
     </defs>
     <use xlink:href="#CMUSerif-Roman-46"/>
     <use xlink:href="#CMUSerif-Roman-69" x="65.199997"/>
     <use xlink:href="#CMUSerif-Roman-67" x="92.899994"/>
     <use xlink:href="#CMUSerif-Roman-75" x="142.899979"/>
     <use xlink:href="#CMUSerif-Roman-72" x="198.399963"/>
     <use xlink:href="#CMUSerif-Roman-65" x="237.499954"/>
     <use xlink:href="#CMUSerif-Roman-20" x="281.899948"/>
     <use xlink:href="#CMUSerif-Roman-31" x="315.199936"/>
     <use xlink:href="#CMUSerif-Roman-63" x="365.199921"/>
     <use xlink:href="#CMUSerif-Roman-3a" x="409.599915"/>
     <use xlink:href="#CMUSerif-Roman-20" x="437.299911"/>
     <use xlink:href="#CMUSerif-Roman-54" x="470.599899"/>
     <use xlink:href="#CMUSerif-Roman-68" x="542.799881"/>
     <use xlink:href="#CMUSerif-Roman-65" x="598.299866"/>
     <use xlink:href="#CMUSerif-Roman-20" x="642.69986"/>
     <use xlink:href="#CMUSerif-Roman-58" x="675.999847"/>
     <use xlink:href="#CMUSerif-Roman-20" x="750.999832"/>
     <use xlink:href="#CMUSerif-Roman-4d" x="784.29982"/>
     <use xlink:href="#CMUSerif-Roman-6f" x="875.899811"/>
     <use xlink:href="#CMUSerif-Roman-6d" x="925.899796"/>
     <use xlink:href="#CMUSerif-Roman-65" x="1009.199783"/>
     <use xlink:href="#CMUSerif-Roman-6e" x="1053.599777"/>
     <use xlink:href="#CMUSerif-Roman-74" x="1109.099762"/>
     <use xlink:href="#CMUSerif-Roman-61" x="1147.89975"/>
     <use xlink:href="#CMUSerif-Roman-20" x="1197.899734"/>
     <use xlink:href="#CMUSerif-Roman-6f" x="1231.199722"/>
     <use xlink:href="#CMUSerif-Roman-66" x="1281.199707"/>
     <use xlink:href="#CMUSerif-Roman-20" x="1311.699692"/>
     <use xlink:href="#CMUSerif-Roman-74" x="1344.99968"/>
     <use xlink:href="#CMUSerif-Roman-68" x="1383.799667"/>
     <use xlink:href="#CMUSerif-Roman-65" x="1439.299652"/>
     <use xlink:href="#CMUSerif-Roman-20" x="1483.699646"/>
     <use xlink:href="#CMUSerif-Roman-45" x="1516.999634"/>
     <use xlink:href="#CMUSerif-Roman-61" x="1584.999619"/>
     <use xlink:href="#CMUSerif-Roman-72" x="1634.999603"/>
     <use xlink:href="#CMUSerif-Roman-74" x="1674.099594"/>
     <use xlink:href="#CMUSerif-Roman-68" x="1712.899582"/>
     <use xlink:href="#CMUSerif-Roman-2c" x="1768.399567"/>
     <use xlink:href="#CMUSerif-Roman-20" x="1796.099564"/>
     <use xlink:href="#CMUSerif-Roman-53" x="1829.399551"/>
     <use xlink:href="#CMUSerif-Roman-75" x="1884.899536"/>
     <use xlink:href="#CMUSerif-Roman-6e" x="1940.399521"/>
     <use xlink:href="#CMUSerif-Roman-2c" x="1995.899506"/>
     <use xlink:href="#CMUSerif-Roman-20" x="2023.599503"/>
     <use xlink:href="#CMUSerif-Roman-61" x="2056.89949"/>
     <use xlink:href="#CMUSerif-Roman-6e" x="2106.899475"/>
     <use xlink:href="#CMUSerif-Roman-64" x="2162.39946"/>
     <use xlink:href="#CMUSerif-Roman-20" x="2217.899445"/>
     <use xlink:href="#CMUSerif-Roman-4d" x="2251.199432"/>
     <use xlink:href="#CMUSerif-Roman-6f" x="2342.799423"/>
     <use xlink:href="#CMUSerif-Roman-6f" x="2392.799408"/>
     <use xlink:href="#CMUSerif-Roman-6e" x="2442.799393"/>
    </g>
   </g>
   <g id="legend_1">
    <g id="patch_7">
     <path d="M 228.898125 108.1845 
L 407.72 108.1845 
Q 409.72 108.1845 409.72 106.1845 
L 409.72 48.472 
Q 409.72 46.472 407.72 46.472 
L 228.898125 46.472 
Q 226.898125 46.472 226.898125 48.472 
L 226.898125 106.1845 
Q 226.898125 108.1845 228.898125 108.1845 
z
" style="fill: #ffffff; opacity: 0.8; stroke: #cccccc; stroke-linejoin: miter"/>
    </g>
    <g id="line2d_19">
     <path d="M 230.898125 54.570438 
L 240.898125 54.570438 
L 250.898125 54.570438 
" style="fill: none; stroke: #1f77b4; stroke-width: 1.5; stroke-linecap: square"/>
    </g>
    <g id="text_20">
     <!-- X Momentum of the Sun -->
     <g transform="translate(258.898125 58.070438) scale(0.1 -0.1)">
      <defs>
       <path id="DejaVuSans-58" d="M 403 4666 
L 1081 4666 
L 2241 2931 
L 3406 4666 
L 4084 4666 
L 2584 2425 
L 4184 0 
L 3506 0 
L 2194 1984 
L 872 0 
L 191 0 
L 1856 2491 
L 403 4666 
z
" transform="scale(0.015625)"/>
       <path id="DejaVuSans-20" transform="scale(0.015625)"/>
       <path id="DejaVuSans-4d" d="M 628 4666 
L 1569 4666 
L 2759 1491 
L 3956 4666 
L 4897 4666 
L 4897 0 
L 4281 0 
L 4281 4097 
L 3078 897 
L 2444 897 
L 1241 4097 
L 1241 0 
L 628 0 
L 628 4666 
z
" transform="scale(0.015625)"/>
       <path id="DejaVuSans-6f" d="M 1959 3097 
Q 1497 3097 1228 2736 
Q 959 2375 959 1747 
Q 959 1119 1226 758 
Q 1494 397 1959 397 
Q 2419 397 2687 759 
Q 2956 1122 2956 1747 
Q 2956 2369 2687 2733 
Q 2419 3097 1959 3097 
z
M 1959 3584 
Q 2709 3584 3137 3096 
Q 3566 2609 3566 1747 
Q 3566 888 3137 398 
Q 2709 -91 1959 -91 
Q 1206 -91 779 398 
Q 353 888 353 1747 
Q 353 2609 779 3096 
Q 1206 3584 1959 3584 
z
" transform="scale(0.015625)"/>
       <path id="DejaVuSans-6d" d="M 3328 2828 
Q 3544 3216 3844 3400 
Q 4144 3584 4550 3584 
Q 5097 3584 5394 3201 
Q 5691 2819 5691 2113 
L 5691 0 
L 5113 0 
L 5113 2094 
Q 5113 2597 4934 2840 
Q 4756 3084 4391 3084 
Q 3944 3084 3684 2787 
Q 3425 2491 3425 1978 
L 3425 0 
L 2847 0 
L 2847 2094 
Q 2847 2600 2669 2842 
Q 2491 3084 2119 3084 
Q 1678 3084 1418 2786 
Q 1159 2488 1159 1978 
L 1159 0 
L 581 0 
L 581 3500 
L 1159 3500 
L 1159 2956 
Q 1356 3278 1631 3431 
Q 1906 3584 2284 3584 
Q 2666 3584 2933 3390 
Q 3200 3197 3328 2828 
z
" transform="scale(0.015625)"/>
       <path id="DejaVuSans-6e" d="M 3513 2113 
L 3513 0 
L 2938 0 
L 2938 2094 
Q 2938 2591 2744 2837 
Q 2550 3084 2163 3084 
Q 1697 3084 1428 2787 
Q 1159 2491 1159 1978 
L 1159 0 
L 581 0 
L 581 3500 
L 1159 3500 
L 1159 2956 
Q 1366 3272 1645 3428 
Q 1925 3584 2291 3584 
Q 2894 3584 3203 3211 
Q 3513 2838 3513 2113 
z
" transform="scale(0.015625)"/>
       <path id="DejaVuSans-74" d="M 1172 4494 
L 1172 3500 
L 2356 3500 
L 2356 3053 
L 1172 3053 
L 1172 1153 
Q 1172 725 1289 603 
Q 1406 481 1766 481 
L 2356 481 
L 2356 0 
L 1766 0 
Q 1100 0 847 248 
Q 594 497 594 1153 
L 594 3053 
L 172 3053 
L 172 3500 
L 594 3500 
L 594 4494 
L 1172 4494 
z
" transform="scale(0.015625)"/>
       <path id="DejaVuSans-75" d="M 544 1381 
L 544 3500 
L 1119 3500 
L 1119 1403 
Q 1119 906 1312 657 
Q 1506 409 1894 409 
Q 2359 409 2629 706 
Q 2900 1003 2900 1516 
L 2900 3500 
L 3475 3500 
L 3475 0 
L 2900 0 
L 2900 538 
Q 2691 219 2414 64 
Q 2138 -91 1772 -91 
Q 1169 -91 856 284 
Q 544 659 544 1381 
z
M 1991 3584 
L 1991 3584 
z
" transform="scale(0.015625)"/>
       <path id="DejaVuSans-66" d="M 2375 4863 
L 2375 4384 
L 1825 4384 
Q 1516 4384 1395 4259 
Q 1275 4134 1275 3809 
L 1275 3500 
L 2222 3500 
L 2222 3053 
L 1275 3053 
L 1275 0 
L 697 0 
L 697 3053 
L 147 3053 
L 147 3500 
L 697 3500 
L 697 3744 
Q 697 4328 969 4595 
Q 1241 4863 1831 4863 
L 2375 4863 
z
" transform="scale(0.015625)"/>
       <path id="DejaVuSans-68" d="M 3513 2113 
L 3513 0 
L 2938 0 
L 2938 2094 
Q 2938 2591 2744 2837 
Q 2550 3084 2163 3084 
Q 1697 3084 1428 2787 
Q 1159 2491 1159 1978 
L 1159 0 
L 581 0 
L 581 4863 
L 1159 4863 
L 1159 2956 
Q 1366 3272 1645 3428 
Q 1925 3584 2291 3584 
Q 2894 3584 3203 3211 
Q 3513 2838 3513 2113 
z
" transform="scale(0.015625)"/>
       <path id="DejaVuSans-53" d="M 3425 4513 
L 3425 3897 
Q 3066 4069 2747 4153 
Q 2428 4238 2131 4238 
Q 1616 4238 1336 4038 
Q 1056 3838 1056 3469 
Q 1056 3159 1242 3001 
Q 1428 2844 1947 2747 
L 2328 2669 
Q 3034 2534 3370 2195 
Q 3706 1856 3706 1288 
Q 3706 609 3251 259 
Q 2797 -91 1919 -91 
Q 1588 -91 1214 -16 
Q 841 59 441 206 
L 441 856 
Q 825 641 1194 531 
Q 1563 422 1919 422 
Q 2459 422 2753 634 
Q 3047 847 3047 1241 
Q 3047 1584 2836 1778 
Q 2625 1972 2144 2069 
L 1759 2144 
Q 1053 2284 737 2584 
Q 422 2884 422 3419 
Q 422 4038 858 4394 
Q 1294 4750 2059 4750 
Q 2388 4750 2728 4690 
Q 3069 4631 3425 4513 
z
" transform="scale(0.015625)"/>
      </defs>
      <use xlink:href="#DejaVuSans-58"/>
      <use xlink:href="#DejaVuSans-20" x="68.505859"/>
      <use xlink:href="#DejaVuSans-4d" x="100.292969"/>
      <use xlink:href="#DejaVuSans-6f" x="186.572266"/>
      <use xlink:href="#DejaVuSans-6d" x="247.753906"/>
      <use xlink:href="#DejaVuSans-65" x="345.166016"/>
      <use xlink:href="#DejaVuSans-6e" x="406.689453"/>
      <use xlink:href="#DejaVuSans-74" x="470.068359"/>
      <use xlink:href="#DejaVuSans-75" x="509.277344"/>
      <use xlink:href="#DejaVuSans-6d" x="572.65625"/>
      <use xlink:href="#DejaVuSans-20" x="670.068359"/>
      <use xlink:href="#DejaVuSans-6f" x="701.855469"/>
      <use xlink:href="#DejaVuSans-66" x="763.037109"/>
      <use xlink:href="#DejaVuSans-20" x="798.242188"/>
      <use xlink:href="#DejaVuSans-74" x="830.029297"/>
      <use xlink:href="#DejaVuSans-68" x="869.238281"/>
      <use xlink:href="#DejaVuSans-65" x="932.617188"/>
      <use xlink:href="#DejaVuSans-20" x="994.140625"/>
      <use xlink:href="#DejaVuSans-53" x="1025.927734"/>
      <use xlink:href="#DejaVuSans-75" x="1089.404297"/>
      <use xlink:href="#DejaVuSans-6e" x="1152.783203"/>
     </g>
    </g>
    <g id="line2d_20">
     <path d="M 230.898125 69.248563 
L 240.898125 69.248563 
L 250.898125 69.248563 
" style="fill: none; stroke: #ff7f0e; stroke-width: 1.5; stroke-linecap: square"/>
    </g>
    <g id="text_21">
     <!-- X Momentum of the Earth -->
     <g transform="translate(258.898125 72.748563) scale(0.1 -0.1)">
      <defs>
       <path id="DejaVuSans-45" d="M 628 4666 
L 3578 4666 
L 3578 4134 
L 1259 4134 
L 1259 2753 
L 3481 2753 
L 3481 2222 
L 1259 2222 
L 1259 531 
L 3634 531 
L 3634 0 
L 628 0 
L 628 4666 
z
" transform="scale(0.015625)"/>
       <path id="DejaVuSans-61" d="M 2194 1759 
Q 1497 1759 1228 1600 
Q 959 1441 959 1056 
Q 959 750 1161 570 
Q 1363 391 1709 391 
Q 2188 391 2477 730 
Q 2766 1069 2766 1631 
L 2766 1759 
L 2194 1759 
z
M 3341 1997 
L 3341 0 
L 2766 0 
L 2766 531 
Q 2569 213 2275 61 
Q 1981 -91 1556 -91 
Q 1019 -91 701 211 
Q 384 513 384 1019 
Q 384 1609 779 1909 
Q 1175 2209 1959 2209 
L 2766 2209 
L 2766 2266 
Q 2766 2663 2505 2880 
Q 2244 3097 1772 3097 
Q 1472 3097 1187 3025 
Q 903 2953 641 2809 
L 641 3341 
Q 956 3463 1253 3523 
Q 1550 3584 1831 3584 
Q 2591 3584 2966 3190 
Q 3341 2797 3341 1997 
z
" transform="scale(0.015625)"/>
       <path id="DejaVuSans-72" d="M 2631 2963 
Q 2534 3019 2420 3045 
Q 2306 3072 2169 3072 
Q 1681 3072 1420 2755 
Q 1159 2438 1159 1844 
L 1159 0 
L 581 0 
L 581 3500 
L 1159 3500 
L 1159 2956 
Q 1341 3275 1631 3429 
Q 1922 3584 2338 3584 
Q 2397 3584 2469 3576 
Q 2541 3569 2628 3553 
L 2631 2963 
z
" transform="scale(0.015625)"/>
      </defs>
      <use xlink:href="#DejaVuSans-58"/>
      <use xlink:href="#DejaVuSans-20" x="68.505859"/>
      <use xlink:href="#DejaVuSans-4d" x="100.292969"/>
      <use xlink:href="#DejaVuSans-6f" x="186.572266"/>
      <use xlink:href="#DejaVuSans-6d" x="247.753906"/>
      <use xlink:href="#DejaVuSans-65" x="345.166016"/>
      <use xlink:href="#DejaVuSans-6e" x="406.689453"/>
      <use xlink:href="#DejaVuSans-74" x="470.068359"/>
      <use xlink:href="#DejaVuSans-75" x="509.277344"/>
      <use xlink:href="#DejaVuSans-6d" x="572.65625"/>
      <use xlink:href="#DejaVuSans-20" x="670.068359"/>
      <use xlink:href="#DejaVuSans-6f" x="701.855469"/>
      <use xlink:href="#DejaVuSans-66" x="763.037109"/>
      <use xlink:href="#DejaVuSans-20" x="798.242188"/>
      <use xlink:href="#DejaVuSans-74" x="830.029297"/>
      <use xlink:href="#DejaVuSans-68" x="869.238281"/>
      <use xlink:href="#DejaVuSans-65" x="932.617188"/>
      <use xlink:href="#DejaVuSans-20" x="994.140625"/>
      <use xlink:href="#DejaVuSans-45" x="1025.927734"/>
      <use xlink:href="#DejaVuSans-61" x="1089.111328"/>
      <use xlink:href="#DejaVuSans-72" x="1150.390625"/>
      <use xlink:href="#DejaVuSans-74" x="1191.503906"/>
      <use xlink:href="#DejaVuSans-68" x="1230.712891"/>
     </g>
    </g>
    <g id="line2d_21">
     <path d="M 230.898125 83.926688 
L 240.898125 83.926688 
L 250.898125 83.926688 
" style="fill: none; stroke: #2ca02c; stroke-width: 1.5; stroke-linecap: square"/>
    </g>
    <g id="text_22">
     <!-- X Momentum of the Moon -->
     <g transform="translate(258.898125 87.426688) scale(0.1 -0.1)">
      <use xlink:href="#DejaVuSans-58"/>
      <use xlink:href="#DejaVuSans-20" x="68.505859"/>
      <use xlink:href="#DejaVuSans-4d" x="100.292969"/>
      <use xlink:href="#DejaVuSans-6f" x="186.572266"/>
      <use xlink:href="#DejaVuSans-6d" x="247.753906"/>
      <use xlink:href="#DejaVuSans-65" x="345.166016"/>
      <use xlink:href="#DejaVuSans-6e" x="406.689453"/>
      <use xlink:href="#DejaVuSans-74" x="470.068359"/>
      <use xlink:href="#DejaVuSans-75" x="509.277344"/>
      <use xlink:href="#DejaVuSans-6d" x="572.65625"/>
      <use xlink:href="#DejaVuSans-20" x="670.068359"/>
      <use xlink:href="#DejaVuSans-6f" x="701.855469"/>
      <use xlink:href="#DejaVuSans-66" x="763.037109"/>
      <use xlink:href="#DejaVuSans-20" x="798.242188"/>
      <use xlink:href="#DejaVuSans-74" x="830.029297"/>
      <use xlink:href="#DejaVuSans-68" x="869.238281"/>
      <use xlink:href="#DejaVuSans-65" x="932.617188"/>
      <use xlink:href="#DejaVuSans-20" x="994.140625"/>
      <use xlink:href="#DejaVuSans-4d" x="1025.927734"/>
      <use xlink:href="#DejaVuSans-6f" x="1112.207031"/>
      <use xlink:href="#DejaVuSans-6f" x="1173.388672"/>
      <use xlink:href="#DejaVuSans-6e" x="1234.570312"/>
     </g>
    </g>
    <g id="line2d_22">
     <path d="M 230.898125 98.604813 
L 240.898125 98.604813 
L 250.898125 98.604813 
" style="fill: none; stroke: #d62728; stroke-width: 1.5; stroke-linecap: square"/>
    </g>
    <g id="text_23">
     <!-- Total X Momentum of System -->
     <g transform="translate(258.898125 102.104813) scale(0.1 -0.1)">
      <defs>
       <path id="DejaVuSans-54" d="M -19 4666 
L 3928 4666 
L 3928 4134 
L 2272 4134 
L 2272 0 
L 1638 0 
L 1638 4134 
L -19 4134 
L -19 4666 
z
" transform="scale(0.015625)"/>
       <path id="DejaVuSans-6c" d="M 603 4863 
L 1178 4863 
L 1178 0 
L 603 0 
L 603 4863 
z
" transform="scale(0.015625)"/>
       <path id="DejaVuSans-79" d="M 2059 -325 
Q 1816 -950 1584 -1140 
Q 1353 -1331 966 -1331 
L 506 -1331 
L 506 -850 
L 844 -850 
Q 1081 -850 1212 -737 
Q 1344 -625 1503 -206 
L 1606 56 
L 191 3500 
L 800 3500 
L 1894 763 
L 2988 3500 
L 3597 3500 
L 2059 -325 
z
" transform="scale(0.015625)"/>
       <path id="DejaVuSans-73" d="M 2834 3397 
L 2834 2853 
Q 2591 2978 2328 3040 
Q 2066 3103 1784 3103 
Q 1356 3103 1142 2972 
Q 928 2841 928 2578 
Q 928 2378 1081 2264 
Q 1234 2150 1697 2047 
L 1894 2003 
Q 2506 1872 2764 1633 
Q 3022 1394 3022 966 
Q 3022 478 2636 193 
Q 2250 -91 1575 -91 
Q 1294 -91 989 -36 
Q 684 19 347 128 
L 347 722 
Q 666 556 975 473 
Q 1284 391 1588 391 
Q 1994 391 2212 530 
Q 2431 669 2431 922 
Q 2431 1156 2273 1281 
Q 2116 1406 1581 1522 
L 1381 1569 
Q 847 1681 609 1914 
Q 372 2147 372 2553 
Q 372 3047 722 3315 
Q 1072 3584 1716 3584 
Q 2034 3584 2315 3537 
Q 2597 3491 2834 3397 
z
" transform="scale(0.015625)"/>
      </defs>
      <use xlink:href="#DejaVuSans-54"/>
      <use xlink:href="#DejaVuSans-6f" x="44.083984"/>
      <use xlink:href="#DejaVuSans-74" x="105.265625"/>
      <use xlink:href="#DejaVuSans-61" x="144.474609"/>
      <use xlink:href="#DejaVuSans-6c" x="205.753906"/>
      <use xlink:href="#DejaVuSans-20" x="233.537109"/>
      <use xlink:href="#DejaVuSans-58" x="265.324219"/>
      <use xlink:href="#DejaVuSans-20" x="333.830078"/>
      <use xlink:href="#DejaVuSans-4d" x="365.617188"/>
      <use xlink:href="#DejaVuSans-6f" x="451.896484"/>
      <use xlink:href="#DejaVuSans-6d" x="513.078125"/>
      <use xlink:href="#DejaVuSans-65" x="610.490234"/>
      <use xlink:href="#DejaVuSans-6e" x="672.013672"/>
      <use xlink:href="#DejaVuSans-74" x="735.392578"/>
      <use xlink:href="#DejaVuSans-75" x="774.601562"/>
      <use xlink:href="#DejaVuSans-6d" x="837.980469"/>
      <use xlink:href="#DejaVuSans-20" x="935.392578"/>
      <use xlink:href="#DejaVuSans-6f" x="967.179688"/>
      <use xlink:href="#DejaVuSans-66" x="1028.361328"/>
      <use xlink:href="#DejaVuSans-20" x="1063.566406"/>
      <use xlink:href="#DejaVuSans-53" x="1095.353516"/>
      <use xlink:href="#DejaVuSans-79" x="1158.830078"/>
      <use xlink:href="#DejaVuSans-73" x="1218.009766"/>
      <use xlink:href="#DejaVuSans-74" x="1270.109375"/>
      <use xlink:href="#DejaVuSans-65" x="1309.318359"/>
      <use xlink:href="#DejaVuSans-6d" x="1370.841797"/>
     </g>
    </g>
   </g>
  </g>
 </g>
 <defs>
  <clipPath id="pbbb63e3531">
   <rect x="57.6" y="41.472" width="357.12" height="266.112"/>
  </clipPath>
 </defs>
</svg>
